<svg id="svg" version="1.1" width="400" height="400" viewBox="0 0 400 400" xmlns="http://www.w3.org/2000/svg" xmlns:xlink="http://www.w3.org/1999/xlink" ><g id="svgg"><path id="path0" d="" stroke="none" fill="#ffffff" fill-rule="evenodd"></path><path id="path1" d="" stroke="none" fill="#0000ff" fill-rule="evenodd"></path><path id="path2" d="" stroke="none" fill="#5555ff" fill-rule="evenodd"></path><path id="path3" d="M187.800 4.800 C 187.660 5.026,185.689 5.200,183.256 5.200 C 180.893 5.200,178.789 5.366,178.580 5.570 C 178.371 5.773,176.850 6.040,175.200 6.162 C 168.653 6.647,166.800 6.884,166.800 7.234 C 166.800 7.435,165.911 7.600,164.824 7.600 C 163.737 7.600,162.736 7.780,162.600 8.000 C 162.464 8.220,161.463 8.400,160.376 8.400 C 159.289 8.400,158.400 8.580,158.400 8.800 C 158.400 9.020,157.680 9.200,156.800 9.200 C 155.920 9.200,155.200 9.354,155.200 9.542 C 155.200 9.730,154.059 9.991,152.665 10.121 C 151.271 10.251,149.696 10.528,149.165 10.737 C 148.634 10.946,147.480 11.309,146.600 11.544 C 142.310 12.689,138.933 13.703,138.305 14.034 C 137.923 14.235,137.259 14.400,136.829 14.400 C 136.399 14.400,135.936 14.580,135.800 14.800 C 135.664 15.020,135.201 15.200,134.771 15.200 C 134.341 15.200,133.632 15.380,133.195 15.600 C 132.758 15.820,132.042 16.180,131.605 16.400 C 131.168 16.620,130.448 16.800,130.005 16.800 C 129.562 16.800,129.200 16.980,129.200 17.200 C 129.200 17.420,128.750 17.600,128.200 17.600 C 127.650 17.600,127.200 17.747,127.200 17.928 C 127.200 18.108,126.300 18.500,125.200 18.800 C 124.100 19.100,123.200 19.492,123.200 19.672 C 123.200 19.853,122.840 20.000,122.400 20.000 C 121.960 20.000,121.600 20.180,121.600 20.400 C 121.600 20.620,121.245 20.800,120.812 20.800 C 120.379 20.800,119.383 21.160,118.600 21.600 C 117.817 22.040,116.911 22.400,116.588 22.400 C 116.265 22.400,116.000 22.580,116.000 22.800 C 116.000 23.020,115.640 23.200,115.200 23.200 C 114.760 23.200,114.400 23.380,114.400 23.600 C 114.400 23.820,114.040 24.000,113.600 24.000 C 113.160 24.000,112.800 24.180,112.800 24.400 C 112.800 24.620,112.440 24.800,112.000 24.800 C 111.560 24.800,111.200 24.946,111.200 25.125 C 111.200 25.304,110.570 25.698,109.800 26.000 C 109.030 26.302,108.400 26.696,108.400 26.875 C 108.400 27.054,108.126 27.200,107.791 27.200 C 106.854 27.200,99.072 31.309,96.338 33.247 C 95.754 33.661,95.079 34.000,94.838 34.000 C 94.597 34.000,94.400 34.158,94.400 34.351 C 94.400 34.545,93.860 34.927,93.200 35.200 C 92.540 35.473,92.000 35.855,92.000 36.049 C 92.000 36.242,91.764 36.400,91.475 36.400 C 91.187 36.400,90.602 36.715,90.175 37.100 C 89.749 37.485,88.905 38.055,88.300 38.368 C 87.695 38.680,87.200 39.085,87.200 39.268 C 87.200 39.450,86.975 39.600,86.700 39.600 C 86.425 39.601,85.660 40.066,85.000 40.635 C 84.340 41.204,83.305 41.963,82.700 42.321 C 82.095 42.679,81.600 43.114,81.600 43.286 C 81.600 43.459,81.420 43.600,81.201 43.600 C 80.783 43.600,76.241 46.945,75.200 48.019 C 74.870 48.359,73.970 49.072,73.200 49.604 C 72.430 50.135,71.350 51.027,70.800 51.586 C 70.250 52.145,69.151 53.086,68.359 53.677 C 66.368 55.161,50.456 71.034,48.992 72.997 C 48.336 73.876,47.440 74.974,47.000 75.438 C 45.769 76.737,44.684 78.065,43.600 79.600 C 42.343 81.380,41.625 82.268,40.500 83.432 C 40.005 83.944,39.600 84.525,39.600 84.722 C 39.600 84.920,39.060 85.646,38.400 86.337 C 37.740 87.028,37.200 87.729,37.199 87.896 C 37.199 88.063,36.659 88.830,36.000 89.600 C 35.341 90.370,34.801 91.210,34.801 91.467 C 34.800 91.723,34.650 91.993,34.468 92.067 C 34.106 92.212,29.200 99.420,29.200 99.806 C 29.200 99.936,28.750 100.705,28.200 101.514 C 27.650 102.323,27.200 103.221,27.200 103.510 C 27.200 103.798,26.840 104.420,26.400 104.892 C 25.960 105.364,25.600 105.987,25.600 106.275 C 25.600 106.564,25.420 106.800,25.200 106.800 C 24.980 106.800,24.800 107.160,24.800 107.600 C 24.800 108.040,24.620 108.400,24.400 108.400 C 24.180 108.400,24.000 108.760,24.000 109.200 C 24.000 109.640,23.864 110.000,23.698 110.000 C 23.531 110.000,23.141 110.585,22.830 111.300 C 22.519 112.015,22.160 112.690,22.032 112.800 C 21.560 113.206,20.800 114.808,20.800 115.395 C 20.800 115.728,20.665 116.001,20.500 116.003 C 20.141 116.007,19.200 117.944,19.200 118.680 C 19.200 118.966,19.020 119.200,18.800 119.200 C 18.580 119.200,18.400 119.560,18.400 120.000 C 18.400 120.440,18.220 120.800,18.000 120.800 C 17.780 120.800,17.600 121.160,17.600 121.600 C 17.600 122.040,17.420 122.400,17.200 122.400 C 16.980 122.400,16.800 122.672,16.800 123.005 C 16.800 123.338,16.640 123.923,16.444 124.305 C 15.957 125.255,14.377 128.798,13.949 129.900 C 13.757 130.395,13.432 131.205,13.227 131.700 C 12.013 134.627,10.280 139.924,10.102 141.251 C 9.988 142.103,9.738 142.800,9.547 142.800 C 9.356 142.800,9.200 143.340,9.200 144.000 C 9.200 144.660,9.020 145.200,8.800 145.200 C 8.580 145.200,8.400 145.740,8.400 146.400 C 8.400 147.060,8.220 147.600,8.000 147.600 C 7.780 147.600,7.600 148.129,7.600 148.776 C 7.600 149.423,7.420 150.064,7.200 150.200 C 6.980 150.336,6.800 150.966,6.800 151.600 C 6.800 152.234,6.620 152.864,6.400 153.000 C 6.180 153.136,6.000 153.856,6.000 154.600 C 6.000 155.344,5.820 156.064,5.600 156.200 C 5.380 156.336,5.200 157.056,5.200 157.800 C 5.200 158.544,5.020 159.264,4.800 159.400 C 4.580 159.536,4.400 160.346,4.400 161.200 C 4.400 162.054,4.220 162.864,4.000 163.000 C 3.780 163.136,3.600 164.047,3.600 165.024 C 3.600 166.001,3.420 166.800,3.200 166.800 C 2.980 166.800,2.800 167.779,2.800 168.976 C 2.800 170.173,2.620 171.264,2.400 171.400 C 2.180 171.536,2.000 172.717,2.000 174.024 C 2.000 175.341,1.822 176.400,1.600 176.400 C 1.370 176.400,1.200 177.640,1.200 179.320 C 1.200 181.123,1.009 182.431,0.700 182.740 C -0.030 183.470,-0.030 226.457,0.700 226.700 C 1.040 226.813,1.200 227.811,1.200 229.810 C 1.200 231.428,1.380 232.864,1.600 233.000 C 1.820 233.136,2.000 234.306,2.000 235.600 C 2.000 236.894,2.180 238.064,2.400 238.200 C 2.620 238.336,2.800 239.337,2.800 240.424 C 2.800 241.511,2.980 242.400,3.200 242.400 C 3.420 242.400,3.600 243.300,3.600 244.400 C 3.600 245.500,3.780 246.400,4.000 246.400 C 4.220 246.400,4.400 247.210,4.400 248.200 C 4.400 249.190,4.580 250.000,4.800 250.000 C 5.020 250.000,5.200 250.720,5.200 251.600 C 5.200 252.480,5.380 253.200,5.600 253.200 C 5.820 253.200,6.000 253.920,6.000 254.800 C 6.000 255.680,6.180 256.400,6.400 256.400 C 6.620 256.400,6.800 256.929,6.800 257.576 C 6.800 258.223,6.980 258.864,7.200 259.000 C 7.420 259.136,7.600 259.766,7.600 260.400 C 7.600 261.034,7.780 261.664,8.000 261.800 C 8.220 261.936,8.400 262.577,8.400 263.224 C 8.400 263.871,8.580 264.400,8.800 264.400 C 9.020 264.400,9.200 264.940,9.200 265.600 C 9.200 266.260,9.356 266.800,9.546 266.800 C 9.736 266.800,10.004 267.565,10.143 268.500 C 10.387 270.152,12.801 276.934,13.334 277.468 C 13.480 277.614,13.600 277.975,13.600 278.271 C 13.600 278.567,13.978 279.662,14.440 280.704 C 14.902 281.747,15.424 282.960,15.600 283.400 C 17.257 287.538,23.159 299.293,23.700 299.533 C 23.865 299.607,24.000 300.012,24.000 300.433 C 24.000 300.855,24.180 301.200,24.400 301.200 C 24.620 301.200,24.800 301.560,24.800 302.000 C 24.800 302.440,24.980 302.800,25.200 302.800 C 25.420 302.800,25.600 303.070,25.600 303.400 C 25.600 303.730,25.736 304.000,25.902 304.000 C 26.069 304.000,26.462 304.585,26.776 305.300 C 27.315 306.526,30.759 312.369,31.198 312.800 C 31.310 312.910,31.656 313.495,31.968 314.100 C 32.280 314.705,32.685 315.200,32.868 315.200 C 33.050 315.200,33.200 315.436,33.200 315.725 C 33.200 316.013,33.515 316.598,33.900 317.025 C 34.285 317.451,34.855 318.295,35.168 318.900 C 35.480 319.505,35.885 320.000,36.068 320.000 C 36.250 320.000,36.400 320.178,36.400 320.395 C 36.400 320.767,37.160 321.815,38.300 323.016 C 38.575 323.306,38.800 323.647,38.800 323.775 C 38.800 323.903,39.340 324.572,40.000 325.263 C 40.660 325.954,41.200 326.690,41.200 326.899 C 41.200 327.108,41.740 327.783,42.400 328.400 C 43.060 329.017,43.600 329.674,43.600 329.860 C 43.601 330.047,44.061 330.740,44.624 331.400 C 45.187 332.060,45.956 332.960,46.332 333.400 C 46.709 333.840,47.289 334.588,47.620 335.062 C 50.245 338.819,64.206 352.718,70.000 357.343 C 70.990 358.133,72.360 359.305,73.045 359.946 C 73.730 360.588,74.720 361.342,75.245 361.623 C 75.770 361.903,76.677 362.643,77.260 363.267 C 77.844 363.890,78.427 364.400,78.556 364.400 C 78.789 364.400,80.000 365.335,81.016 366.300 C 81.306 366.575,81.736 366.800,81.971 366.800 C 82.207 366.800,82.400 366.950,82.400 367.132 C 82.400 367.315,82.895 367.719,83.500 368.030 C 84.105 368.340,84.891 368.911,85.247 369.297 C 85.603 369.684,85.998 370.000,86.125 370.000 C 86.253 370.000,88.107 371.170,90.245 372.600 C 92.384 374.030,94.374 375.200,94.667 375.200 C 94.960 375.200,95.200 375.380,95.200 375.600 C 95.200 375.820,95.455 376.000,95.767 376.000 C 96.078 376.000,96.393 376.135,96.467 376.300 C 96.634 376.676,98.764 377.975,99.700 378.271 C 100.085 378.393,100.400 378.652,100.400 378.847 C 100.400 379.041,100.745 379.200,101.167 379.200 C 101.588 379.200,101.993 379.335,102.067 379.500 C 102.234 379.876,104.364 381.175,105.300 381.471 C 105.685 381.593,106.000 381.852,106.000 382.047 C 106.000 382.241,106.360 382.400,106.800 382.400 C 107.240 382.400,107.600 382.580,107.600 382.800 C 107.600 383.020,107.960 383.200,108.400 383.200 C 108.840 383.200,109.200 383.380,109.200 383.600 C 109.200 383.820,109.560 384.000,110.000 384.000 C 110.440 384.000,110.800 384.180,110.800 384.400 C 110.800 384.620,111.160 384.800,111.600 384.800 C 112.040 384.800,112.400 384.980,112.400 385.200 C 112.400 385.420,112.760 385.600,113.200 385.600 C 113.640 385.600,114.000 385.780,114.000 386.000 C 114.000 386.220,114.253 386.400,114.562 386.400 C 114.871 386.400,115.816 386.739,116.662 387.153 C 118.518 388.061,121.898 389.585,123.000 390.010 C 123.440 390.180,124.457 390.607,125.260 390.959 C 126.064 391.312,127.011 391.600,127.366 391.600 C 127.721 391.600,128.323 391.759,128.705 391.953 C 129.087 392.148,129.940 392.529,130.600 392.800 C 131.260 393.071,132.113 393.452,132.495 393.647 C 132.877 393.841,133.541 394.000,133.971 394.000 C 134.401 394.000,134.864 394.180,135.000 394.400 C 135.136 394.620,135.957 394.800,136.824 394.800 C 137.691 394.800,138.400 394.980,138.400 395.200 C 138.400 395.442,140.133 395.600,142.800 395.600 C 145.467 395.600,147.200 395.442,147.200 395.200 C 147.200 394.980,147.920 394.800,148.800 394.800 C 149.680 394.800,150.400 394.620,150.400 394.400 C 150.400 394.180,150.742 394.000,151.159 394.000 C 153.392 394.000,162.000 387.976,162.000 386.413 C 162.000 386.186,162.180 386.000,162.400 386.000 C 162.620 386.000,162.800 385.812,162.800 385.583 C 162.800 385.354,163.160 384.780,163.600 384.308 C 164.040 383.836,164.400 383.213,164.400 382.925 C 164.400 382.636,164.580 382.400,164.800 382.400 C 165.020 382.400,165.200 382.051,165.200 381.624 C 165.200 381.197,165.380 380.736,165.600 380.600 C 165.820 380.464,166.000 379.913,166.000 379.376 C 166.000 378.839,166.180 378.400,166.400 378.400 C 166.620 378.400,166.800 377.680,166.800 376.800 C 166.800 375.920,166.980 375.200,167.200 375.200 C 167.461 375.200,167.600 368.075,167.600 354.624 C 167.600 341.337,167.458 333.960,167.200 333.800 C 166.980 333.664,166.800 333.239,166.800 332.856 C 166.800 331.981,165.901 330.007,165.500 330.003 C 165.335 330.001,165.200 329.814,165.200 329.587 C 165.200 329.092,162.571 326.400,162.089 326.400 C 161.903 326.400,161.354 326.030,160.868 325.578 L 159.986 324.756 162.093 323.341 C 163.252 322.562,164.319 321.717,164.465 321.463 C 164.611 321.208,165.196 320.460,165.765 319.800 C 166.334 319.140,166.799 318.296,166.800 317.924 C 166.800 317.552,166.980 317.136,167.200 317.000 C 167.420 316.864,167.600 316.223,167.600 315.576 C 167.600 314.929,167.780 314.400,168.000 314.400 C 168.222 314.400,168.400 313.341,168.400 312.024 C 168.400 310.717,168.580 309.536,168.800 309.400 C 169.020 309.264,169.200 308.533,169.200 307.776 C 169.200 307.019,169.380 306.400,169.600 306.400 C 169.820 306.400,170.000 306.056,170.000 305.634 C 170.000 304.566,172.140 300.498,173.693 298.614 C 175.326 296.632,176.800 293.748,176.800 292.532 C 176.800 292.019,176.980 291.600,177.200 291.600 C 177.426 291.600,177.600 290.467,177.600 289.000 C 177.600 287.533,177.426 286.400,177.200 286.400 C 176.980 286.400,176.800 285.877,176.800 285.238 C 176.800 282.130,171.703 276.400,168.939 276.400 C 168.642 276.400,168.400 276.220,168.400 276.000 C 168.400 275.780,167.590 275.600,166.600 275.600 C 165.610 275.600,164.800 275.420,164.800 275.200 C 164.800 274.980,163.810 274.800,162.600 274.800 C 161.390 274.800,160.400 274.620,160.400 274.400 C 160.400 274.180,159.691 274.000,158.824 274.000 C 157.957 274.000,157.136 273.820,157.000 273.600 C 156.864 273.380,156.043 273.200,155.176 273.200 C 154.309 273.200,153.600 273.020,153.600 272.800 C 153.600 272.580,152.880 272.400,152.000 272.400 C 151.120 272.400,150.400 272.220,150.400 272.000 C 150.400 271.780,149.860 271.600,149.200 271.600 C 148.540 271.600,148.000 271.420,148.000 271.200 C 148.000 270.980,147.471 270.800,146.824 270.800 C 146.177 270.800,145.536 270.620,145.400 270.400 C 145.264 270.180,144.724 270.000,144.200 270.000 C 143.676 270.000,143.136 269.820,143.000 269.600 C 142.864 269.380,142.313 269.200,141.776 269.200 C 141.239 269.200,140.800 269.020,140.800 268.800 C 140.800 268.580,140.474 268.400,140.075 268.400 C 139.419 268.400,136.885 267.373,135.105 266.385 C 134.723 266.173,134.138 266.000,133.805 266.000 C 133.472 266.000,133.200 265.820,133.200 265.600 C 133.200 265.380,132.840 265.200,132.400 265.200 C 131.960 265.200,131.600 265.020,131.600 264.800 C 131.600 264.580,131.328 264.400,130.995 264.400 C 130.439 264.400,128.878 263.678,128.400 263.200 C 128.290 263.090,127.390 262.568,126.400 262.041 C 125.410 261.513,124.330 260.875,124.000 260.623 C 123.670 260.372,122.905 259.918,122.300 259.615 C 121.695 259.312,121.200 258.915,121.200 258.732 C 121.200 258.550,121.018 258.400,120.796 258.400 C 120.574 258.400,119.828 257.860,119.137 257.200 C 118.446 256.540,117.722 256.000,117.528 256.000 C 116.907 256.000,108.660 247.383,107.000 244.999 C 106.120 243.736,105.220 242.499,105.000 242.251 C 104.555 241.749,103.291 239.422,101.497 235.800 C 100.843 234.480,100.149 233.087,99.954 232.705 C 99.759 232.323,99.600 231.738,99.600 231.405 C 99.600 231.072,99.420 230.800,99.200 230.800 C 98.980 230.800,98.800 230.361,98.800 229.824 C 98.800 229.287,98.620 228.736,98.400 228.600 C 98.180 228.464,98.000 227.913,98.000 227.376 C 98.000 226.839,97.820 226.400,97.600 226.400 C 97.380 226.400,97.200 225.781,97.200 225.024 C 97.200 224.267,97.020 223.536,96.800 223.400 C 96.580 223.264,96.400 222.544,96.400 221.800 C 96.400 221.056,96.220 220.336,96.000 220.200 C 95.780 220.064,95.600 219.164,95.600 218.200 C 95.600 217.236,95.420 216.336,95.200 216.200 C 94.980 216.064,94.800 214.624,94.800 213.000 C 94.800 211.376,94.620 209.936,94.400 209.800 C 93.859 209.466,93.859 192.534,94.400 192.200 C 94.620 192.064,94.800 190.613,94.800 188.976 C 94.800 187.259,94.969 186.000,95.200 186.000 C 95.420 186.000,95.600 185.111,95.600 184.024 C 95.600 182.937,95.780 181.936,96.000 181.800 C 96.220 181.664,96.400 180.843,96.400 179.976 C 96.400 179.109,96.580 178.400,96.800 178.400 C 97.020 178.400,97.200 177.860,97.200 177.200 C 97.200 176.540,97.380 176.000,97.600 176.000 C 97.820 176.000,98.000 175.548,98.000 174.995 C 98.000 174.442,98.159 173.677,98.353 173.295 C 98.548 172.913,98.929 172.060,99.200 171.400 C 99.471 170.740,99.852 169.887,100.047 169.505 C 100.241 169.123,100.400 168.538,100.400 168.205 C 100.400 167.872,100.580 167.600,100.800 167.600 C 101.020 167.600,101.200 167.240,101.200 166.800 C 101.200 166.360,101.380 166.000,101.600 166.000 C 101.820 166.000,102.000 165.640,102.000 165.200 C 102.000 164.760,102.180 164.400,102.400 164.400 C 102.620 164.400,102.800 164.040,102.800 163.600 C 102.800 163.160,102.958 162.800,103.151 162.800 C 103.345 162.800,103.727 162.260,104.000 161.600 C 104.273 160.940,104.655 160.400,104.849 160.400 C 105.042 160.400,105.200 160.170,105.200 159.889 C 105.200 159.608,106.370 157.899,107.800 156.091 C 109.230 154.282,110.400 152.704,110.400 152.585 C 110.400 152.465,110.760 151.980,111.200 151.508 C 111.640 151.036,112.000 150.233,112.000 149.725 C 112.000 149.216,112.180 148.800,112.400 148.800 C 112.645 148.800,112.800 146.875,112.800 143.824 C 112.800 140.937,112.632 138.743,112.400 138.600 C 112.180 138.464,112.000 137.193,112.000 135.776 C 112.000 134.359,111.831 133.200,111.624 133.200 C 111.416 133.200,111.152 131.085,111.035 128.500 C 110.919 125.915,110.714 122.293,110.580 120.452 C 110.421 118.272,110.487 116.953,110.768 116.672 C 111.006 116.434,111.200 114.962,111.200 113.400 C 111.200 111.724,111.397 110.363,111.680 110.080 C 112.260 109.500,114.000 109.440,114.000 110.000 C 114.000 110.220,114.630 110.400,115.400 110.400 C 116.170 110.400,116.800 110.580,116.800 110.800 C 116.800 111.020,117.340 111.200,118.000 111.200 C 118.660 111.200,119.200 111.380,119.200 111.600 C 119.200 111.820,119.472 112.000,119.805 112.000 C 120.138 112.000,120.768 112.180,121.205 112.400 C 121.642 112.620,122.358 112.980,122.795 113.200 C 123.232 113.420,123.862 113.600,124.195 113.600 C 124.528 113.600,124.800 113.780,124.800 114.000 C 124.800 114.220,125.145 114.400,125.567 114.400 C 125.988 114.400,126.393 114.535,126.467 114.700 C 126.540 114.865,127.500 115.448,128.600 115.995 C 129.700 116.542,130.690 117.082,130.800 117.195 C 130.994 117.394,131.304 117.576,134.355 119.284 C 135.150 119.730,136.278 120.433,136.862 120.847 C 137.446 121.261,138.038 121.600,138.179 121.600 C 138.319 121.600,138.651 121.788,138.917 122.017 C 139.183 122.247,140.390 123.049,141.600 123.800 C 142.810 124.551,144.017 125.353,144.283 125.583 C 144.549 125.812,144.954 126.000,145.183 126.000 C 145.412 126.000,145.600 126.180,145.600 126.400 C 145.600 126.620,145.870 126.800,146.200 126.800 C 146.530 126.800,146.800 126.980,146.800 127.200 C 146.800 127.420,147.250 127.600,147.800 127.600 C 148.350 127.600,148.800 127.780,148.800 128.000 C 148.800 128.243,150.592 128.400,153.376 128.400 C 155.996 128.400,158.058 128.229,158.200 128.000 C 158.336 127.780,159.427 127.600,160.624 127.600 C 161.821 127.600,162.800 127.420,162.800 127.200 C 162.800 126.972,163.992 126.800,165.576 126.800 C 167.103 126.800,168.464 126.620,168.600 126.400 C 168.736 126.180,170.337 126.000,172.157 126.000 C 173.977 126.000,175.601 125.865,175.765 125.700 C 177.390 124.066,225.130 123.992,228.095 125.619 C 228.477 125.828,229.771 126.000,230.971 126.000 C 232.171 126.000,233.264 126.180,233.400 126.400 C 233.536 126.620,234.627 126.800,235.824 126.800 C 237.021 126.800,238.000 126.980,238.000 127.200 C 238.000 127.420,238.900 127.600,240.000 127.600 C 241.100 127.600,242.000 127.780,242.000 128.000 C 242.000 128.243,243.792 128.400,246.576 128.400 C 249.196 128.400,251.258 128.229,251.400 128.000 C 251.536 127.780,251.916 127.600,252.244 127.600 C 252.709 127.600,258.781 123.791,261.002 122.105 C 261.224 121.937,262.214 121.363,263.202 120.830 C 264.191 120.296,265.090 119.756,265.200 119.630 C 265.391 119.410,268.002 117.971,269.897 117.040 C 270.390 116.798,270.795 116.465,270.797 116.300 C 270.799 116.135,271.145 116.000,271.567 116.000 C 271.988 116.000,272.393 115.865,272.467 115.700 C 272.540 115.535,273.500 114.975,274.600 114.456 C 275.700 113.937,276.913 113.352,277.295 113.156 C 277.677 112.960,278.262 112.800,278.595 112.800 C 278.928 112.800,279.200 112.620,279.200 112.400 C 279.200 112.180,279.740 112.000,280.400 112.000 C 281.060 112.000,281.600 111.820,281.600 111.600 C 281.600 111.380,282.140 111.200,282.800 111.200 C 283.460 111.200,284.000 111.020,284.000 110.800 C 284.000 110.580,284.594 110.400,285.320 110.400 C 286.046 110.400,286.844 110.196,287.094 109.946 C 288.080 108.960,288.800 110.565,288.800 113.748 C 288.800 115.401,288.980 116.864,289.200 117.000 C 289.420 117.136,289.600 118.576,289.600 120.200 C 289.600 121.824,289.420 123.264,289.200 123.400 C 288.971 123.541,288.800 125.596,288.800 128.200 C 288.800 130.804,288.629 132.859,288.400 133.000 C 288.180 133.136,288.000 134.396,288.000 135.800 C 288.000 137.204,287.820 138.464,287.600 138.600 C 287.368 138.743,287.200 140.930,287.200 143.800 C 287.200 146.670,287.368 148.857,287.600 149.000 C 287.820 149.136,288.000 149.519,288.000 149.852 C 288.000 150.587,289.860 153.331,291.555 155.096 C 292.240 155.809,292.800 156.559,292.800 156.763 C 292.800 156.967,292.946 157.193,293.124 157.267 C 293.303 157.340,294.158 158.570,295.024 160.000 C 295.891 161.430,296.735 162.660,296.900 162.733 C 297.065 162.807,297.200 163.212,297.200 163.633 C 297.200 164.055,297.380 164.400,297.600 164.400 C 297.820 164.400,298.000 164.760,298.000 165.200 C 298.000 165.640,298.180 166.000,298.400 166.000 C 298.620 166.000,298.800 166.360,298.800 166.800 C 298.800 167.240,298.980 167.600,299.200 167.600 C 299.420 167.600,299.600 167.872,299.600 168.205 C 299.600 168.538,299.759 169.123,299.953 169.505 C 300.148 169.887,300.529 170.740,300.800 171.400 C 301.071 172.060,301.452 172.913,301.647 173.295 C 301.841 173.677,302.000 174.442,302.000 174.995 C 302.000 175.548,302.180 176.000,302.400 176.000 C 302.620 176.000,302.800 176.529,302.800 177.176 C 302.800 177.823,302.980 178.464,303.200 178.600 C 303.420 178.736,303.600 179.456,303.600 180.200 C 303.600 180.944,303.780 181.664,304.000 181.800 C 304.220 181.936,304.400 182.926,304.400 184.000 C 304.400 185.074,304.580 186.064,304.800 186.200 C 305.020 186.336,305.200 187.776,305.200 189.400 C 305.200 191.024,305.380 192.464,305.600 192.600 C 306.140 192.934,306.140 209.066,305.600 209.400 C 305.380 209.536,305.200 210.976,305.200 212.600 C 305.200 214.224,305.020 215.664,304.800 215.800 C 304.580 215.936,304.400 216.926,304.400 218.000 C 304.400 219.074,304.220 220.064,304.000 220.200 C 303.780 220.336,303.600 221.056,303.600 221.800 C 303.600 222.544,303.420 223.264,303.200 223.400 C 302.980 223.536,302.800 224.267,302.800 225.024 C 302.800 225.781,302.620 226.400,302.400 226.400 C 302.180 226.400,302.000 226.762,302.000 227.205 C 302.000 227.648,301.841 228.323,301.647 228.705 C 301.452 229.087,301.111 229.850,300.887 230.400 C 299.036 234.962,298.031 236.977,294.951 242.297 C 294.538 243.011,294.065 243.596,293.900 243.597 C 293.735 243.599,293.600 243.843,293.600 244.141 C 293.600 244.438,293.060 245.246,292.400 245.937 C 291.740 246.628,291.200 247.287,291.200 247.401 C 291.200 247.763,283.836 254.936,281.977 256.385 C 281.000 257.147,280.140 257.912,280.067 258.085 C 279.993 258.258,279.678 258.400,279.367 258.400 C 279.055 258.400,278.800 258.550,278.800 258.732 C 278.800 258.915,278.305 259.312,277.700 259.615 C 277.095 259.918,276.330 260.372,276.000 260.623 C 275.670 260.875,274.590 261.513,273.600 262.041 C 272.610 262.568,271.710 263.090,271.600 263.200 C 271.138 263.662,267.879 265.200,267.362 265.200 C 267.053 265.200,266.800 265.380,266.800 265.600 C 266.800 265.820,266.451 266.000,266.024 266.000 C 265.597 266.000,265.136 266.180,265.000 266.400 C 264.864 266.620,264.403 266.800,263.976 266.800 C 263.549 266.800,263.200 266.980,263.200 267.200 C 263.200 267.420,262.851 267.600,262.424 267.600 C 261.997 267.600,261.536 267.780,261.400 268.000 C 261.264 268.220,260.713 268.400,260.176 268.400 C 259.639 268.400,259.200 268.580,259.200 268.800 C 259.200 269.020,258.786 269.200,258.280 269.200 C 257.774 269.200,257.189 269.349,256.980 269.530 C 256.771 269.712,255.790 270.090,254.800 270.369 C 253.810 270.649,252.687 271.040,252.305 271.239 C 251.923 271.438,251.158 271.600,250.605 271.600 C 250.052 271.600,249.600 271.780,249.600 272.000 C 249.600 272.220,248.981 272.400,248.224 272.400 C 247.467 272.400,246.736 272.580,246.600 272.800 C 246.464 273.020,245.744 273.200,245.000 273.200 C 244.256 273.200,243.536 273.380,243.400 273.600 C 243.264 273.820,242.353 274.000,241.376 274.000 C 240.399 274.000,239.600 274.180,239.600 274.400 C 239.600 274.620,238.711 274.800,237.624 274.800 C 236.537 274.800,235.536 274.980,235.400 275.200 C 235.264 275.420,234.353 275.600,233.376 275.600 C 232.399 275.600,231.600 275.780,231.600 276.000 C 231.600 276.220,231.326 276.400,230.992 276.400 C 229.971 276.400,225.600 279.451,225.600 280.164 C 225.600 280.312,225.240 280.820,224.800 281.292 C 224.360 281.764,224.000 282.477,224.000 282.875 C 224.000 283.274,223.820 283.600,223.600 283.600 C 223.380 283.600,223.200 284.230,223.200 285.000 C 223.200 285.770,223.020 286.400,222.800 286.400 C 222.574 286.400,222.400 287.533,222.400 289.000 C 222.400 290.467,222.574 291.600,222.800 291.600 C 223.020 291.600,223.200 292.130,223.200 292.777 C 223.200 294.113,224.481 296.516,225.985 298.003 C 227.182 299.185,228.410 301.285,229.553 304.100 C 229.799 304.705,230.166 305.605,230.370 306.100 C 230.962 307.541,231.277 309.217,231.477 312.000 C 231.580 313.430,231.830 314.771,232.032 314.980 C 232.249 315.204,232.400 327.701,232.400 345.456 C 232.400 365.089,232.539 375.639,232.800 375.800 C 233.020 375.936,233.200 376.656,233.200 377.400 C 233.200 378.144,233.380 378.864,233.600 379.000 C 233.820 379.136,234.000 379.597,234.000 380.024 C 234.000 380.451,234.180 380.800,234.400 380.800 C 234.620 380.800,234.800 381.160,234.800 381.600 C 234.800 382.040,234.980 382.400,235.200 382.400 C 235.420 382.400,235.600 382.760,235.600 383.200 C 235.600 383.640,235.780 384.000,236.000 384.000 C 236.220 384.000,236.400 384.178,236.400 384.395 C 236.400 385.289,241.316 390.311,243.083 391.223 C 243.697 391.540,244.290 391.889,244.400 391.999 C 244.945 392.546,248.170 394.000,248.838 394.000 C 249.257 394.000,249.600 394.180,249.600 394.400 C 249.600 394.620,250.320 394.800,251.200 394.800 C 252.080 394.800,252.800 394.980,252.800 395.200 C 252.800 395.732,261.071 395.732,261.400 395.200 C 261.536 394.980,262.357 394.800,263.224 394.800 C 264.091 394.800,264.800 394.620,264.800 394.400 C 264.800 394.180,265.252 394.000,265.805 394.000 C 266.774 394.000,267.138 393.874,269.095 392.862 C 269.587 392.608,270.352 392.400,270.795 392.400 C 271.238 392.400,271.600 392.220,271.600 392.000 C 271.600 391.780,272.005 391.599,272.500 391.598 C 272.995 391.596,273.916 391.326,274.546 390.998 C 275.176 390.669,275.860 390.400,276.065 390.400 C 276.271 390.400,277.184 390.040,278.094 389.600 C 279.005 389.160,279.986 388.800,280.275 388.800 C 280.564 388.800,280.800 388.620,280.800 388.400 C 280.800 388.180,281.072 388.000,281.405 388.000 C 281.738 388.000,282.323 387.838,282.705 387.641 C 283.087 387.443,285.020 386.500,287.000 385.545 C 288.980 384.589,290.660 383.671,290.733 383.504 C 290.807 383.337,291.212 383.200,291.633 383.200 C 292.055 383.200,292.400 383.020,292.400 382.800 C 292.400 382.580,292.760 382.400,293.200 382.400 C 293.640 382.400,294.000 382.262,294.000 382.094 C 294.000 381.926,294.675 381.482,295.500 381.106 C 297.130 380.365,299.281 379.138,299.600 378.768 C 299.710 378.640,300.385 378.281,301.100 377.970 C 301.815 377.659,302.400 377.269,302.400 377.102 C 302.400 376.936,302.670 376.800,303.000 376.800 C 303.330 376.800,303.600 376.664,303.600 376.498 C 303.600 376.331,304.165 375.945,304.855 375.640 C 306.030 375.120,310.811 372.103,311.883 371.205 C 312.149 370.982,312.509 370.800,312.683 370.800 C 312.857 370.799,313.523 370.349,314.162 369.800 C 314.801 369.250,315.468 368.800,315.644 368.800 C 315.820 368.800,316.414 368.350,316.964 367.800 C 317.514 367.250,318.125 366.800,318.322 366.800 C 318.520 366.800,319.246 366.260,319.937 365.600 C 320.628 364.940,321.282 364.400,321.392 364.400 C 321.594 364.400,322.858 363.409,323.816 362.500 C 324.106 362.225,324.460 362.000,324.603 362.000 C 324.746 362.000,325.554 361.280,326.400 360.400 C 327.246 359.520,328.096 358.800,328.290 358.800 C 328.485 358.800,329.290 358.215,330.080 357.500 C 330.870 356.785,332.561 355.300,333.838 354.200 C 338.188 350.453,351.394 336.849,353.102 334.355 C 353.461 333.830,354.044 333.130,354.396 332.800 C 354.749 332.470,355.923 331.030,357.005 329.600 C 358.087 328.170,359.114 326.940,359.287 326.867 C 359.459 326.793,359.600 326.505,359.600 326.226 C 359.600 325.947,360.140 325.154,360.800 324.463 C 361.460 323.772,362.000 323.041,362.000 322.837 C 362.000 322.633,362.147 322.407,362.328 322.333 C 362.508 322.260,363.441 321.030,364.400 319.600 C 365.359 318.170,366.292 316.940,366.472 316.867 C 366.653 316.793,366.800 316.512,366.800 316.242 C 366.800 315.972,367.115 315.402,367.500 314.975 C 367.885 314.549,368.455 313.705,368.768 313.100 C 369.080 312.495,369.485 312.000,369.668 312.000 C 369.850 312.000,370.000 311.655,370.000 311.233 C 370.000 310.812,370.135 310.407,370.300 310.333 C 370.684 310.163,373.104 306.155,374.848 302.800 C 375.592 301.370,376.304 300.110,376.432 300.000 C 376.560 299.890,376.919 299.215,377.230 298.500 C 377.541 297.785,377.931 297.200,378.098 297.200 C 378.264 297.200,378.400 296.840,378.400 296.400 C 378.400 295.960,378.580 295.600,378.800 295.600 C 379.020 295.600,379.200 295.240,379.200 294.800 C 379.200 294.360,379.380 294.000,379.600 294.000 C 379.820 294.000,380.000 293.640,380.000 293.200 C 380.000 292.760,380.180 292.400,380.400 292.400 C 380.620 292.400,380.800 292.135,380.800 291.812 C 380.800 291.489,381.160 290.583,381.600 289.800 C 382.040 289.017,382.400 288.111,382.400 287.788 C 382.400 287.465,382.580 287.200,382.800 287.200 C 383.020 287.200,383.200 286.935,383.200 286.612 C 383.200 286.289,383.560 285.383,384.000 284.600 C 384.440 283.817,384.800 282.821,384.800 282.388 C 384.800 281.955,384.980 281.600,385.200 281.600 C 385.420 281.600,385.600 281.251,385.600 280.824 C 385.600 280.397,385.780 279.936,386.000 279.800 C 386.220 279.664,386.400 279.113,386.400 278.576 C 386.400 278.039,386.547 277.600,386.728 277.600 C 386.908 277.600,387.300 276.700,387.600 275.600 C 387.900 274.500,388.292 273.600,388.472 273.600 C 388.653 273.600,388.800 273.161,388.800 272.624 C 388.800 272.087,388.980 271.536,389.200 271.400 C 389.420 271.264,389.600 270.743,389.600 270.243 C 389.600 269.743,389.723 269.210,389.874 269.059 C 390.352 268.581,391.178 265.869,391.445 263.900 C 391.587 262.855,391.860 262.000,392.052 262.000 C 392.243 262.000,392.400 261.460,392.400 260.800 C 392.400 260.140,392.580 259.600,392.800 259.600 C 393.020 259.600,393.200 258.880,393.200 258.000 C 393.200 257.120,393.380 256.400,393.600 256.400 C 393.820 256.400,394.000 255.781,394.000 255.024 C 394.000 254.267,394.180 253.536,394.400 253.400 C 394.620 253.264,394.800 252.544,394.800 251.800 C 394.800 251.056,394.980 250.336,395.200 250.200 C 395.420 250.064,395.600 249.153,395.600 248.176 C 395.600 247.199,395.780 246.400,396.000 246.400 C 396.220 246.400,396.400 245.601,396.400 244.624 C 396.400 243.647,396.580 242.736,396.800 242.600 C 397.020 242.464,397.200 241.463,397.200 240.376 C 397.200 239.289,397.380 238.400,397.600 238.400 C 397.822 238.400,398.000 237.341,398.000 236.024 C 398.000 234.717,398.180 233.536,398.400 233.400 C 398.620 233.264,398.800 231.849,398.800 230.256 C 398.800 228.473,398.992 227.168,399.300 226.860 C 400.028 226.132,400.028 183.468,399.300 182.740 C 398.992 182.432,398.800 181.127,398.800 179.344 C 398.800 177.751,398.620 176.336,398.400 176.200 C 398.180 176.064,398.000 174.894,398.000 173.600 C 398.000 172.306,397.820 171.136,397.600 171.000 C 397.380 170.864,397.200 169.863,397.200 168.776 C 397.200 167.689,397.020 166.800,396.800 166.800 C 396.580 166.800,396.400 166.001,396.400 165.024 C 396.400 164.047,396.220 163.136,396.000 163.000 C 395.780 162.864,395.600 161.953,395.600 160.976 C 395.600 159.999,395.420 159.200,395.200 159.200 C 394.980 159.200,394.800 158.480,394.800 157.600 C 394.800 156.720,394.620 156.000,394.400 156.000 C 394.180 156.000,394.000 155.381,394.000 154.624 C 394.000 153.867,393.820 153.136,393.600 153.000 C 393.380 152.864,393.200 152.234,393.200 151.600 C 393.200 150.966,393.020 150.336,392.800 150.200 C 392.580 150.064,392.400 149.434,392.400 148.800 C 392.400 148.166,392.237 147.546,392.037 147.423 C 391.838 147.300,391.551 146.300,391.400 145.200 C 391.249 144.100,390.962 143.100,390.763 142.977 C 390.563 142.854,390.400 142.324,390.400 141.800 C 390.400 141.276,390.220 140.736,390.000 140.600 C 389.780 140.464,389.600 140.001,389.600 139.571 C 389.600 139.141,389.434 138.477,389.232 138.095 C 389.030 137.713,388.472 136.320,387.993 135.000 C 386.979 132.206,386.445 130.871,385.953 129.905 C 385.759 129.523,385.600 128.938,385.600 128.605 C 385.600 128.272,385.420 128.000,385.200 128.000 C 384.980 128.000,384.800 127.728,384.800 127.395 C 384.800 127.062,384.592 126.387,384.338 125.895 C 383.367 124.018,383.200 123.593,383.200 123.005 C 383.200 122.672,383.020 122.400,382.800 122.400 C 382.580 122.400,382.400 122.040,382.400 121.600 C 382.400 121.160,382.220 120.800,382.000 120.800 C 381.780 120.800,381.601 120.575,381.603 120.300 C 381.606 119.665,377.514 111.445,377.105 111.267 C 376.937 111.193,376.800 110.878,376.800 110.567 C 376.800 110.255,376.620 110.000,376.400 110.000 C 376.180 110.000,376.000 109.640,376.000 109.200 C 376.000 108.760,375.820 108.400,375.600 108.400 C 375.380 108.400,375.200 108.079,375.200 107.687 C 375.200 107.294,374.586 106.020,373.836 104.855 C 373.085 103.690,372.253 102.211,371.987 101.569 C 371.721 100.926,371.345 100.400,371.151 100.400 C 370.958 100.400,370.800 100.212,370.800 99.982 C 370.800 99.752,369.900 98.230,368.800 96.600 C 367.700 94.970,366.800 93.488,366.800 93.306 C 366.800 93.125,366.440 92.717,366.000 92.400 C 365.560 92.083,365.200 91.638,365.199 91.412 C 365.199 91.185,364.659 90.370,364.000 89.600 C 363.341 88.830,362.801 88.015,362.801 87.788 C 362.800 87.562,362.440 87.117,362.000 86.800 C 361.560 86.483,361.200 86.020,361.200 85.771 C 361.200 85.522,360.660 84.754,360.000 84.063 C 359.340 83.372,358.800 82.706,358.800 82.582 C 358.800 82.250,354.408 76.825,352.900 75.293 C 352.185 74.567,351.600 73.810,351.600 73.609 C 351.600 73.097,333.297 54.761,331.617 53.590 C 330.856 53.060,329.429 51.856,328.445 50.913 C 327.462 49.971,326.517 49.200,326.347 49.200 C 326.176 49.200,325.623 48.793,325.118 48.295 C 323.663 46.860,319.389 43.600,318.963 43.600 C 318.751 43.600,318.317 43.240,318.000 42.800 C 317.683 42.360,317.238 42.000,317.012 41.999 C 316.785 41.999,315.970 41.459,315.200 40.800 C 314.430 40.141,313.575 39.601,313.300 39.601 C 313.025 39.600,312.800 39.450,312.800 39.268 C 312.800 39.085,312.305 38.680,311.700 38.368 C 311.095 38.055,310.251 37.485,309.825 37.100 C 309.398 36.715,308.896 36.400,308.708 36.400 C 308.520 36.400,308.011 36.069,307.577 35.664 C 307.142 35.259,306.295 34.680,305.693 34.376 C 305.092 34.073,303.848 33.324,302.928 32.712 C 302.008 32.101,301.136 31.600,300.990 31.600 C 300.843 31.600,300.246 31.264,299.662 30.854 C 298.535 30.062,293.873 27.659,291.700 26.749 C 290.985 26.450,290.400 26.069,290.400 25.902 C 290.400 25.736,290.040 25.600,289.600 25.600 C 289.160 25.600,288.800 25.420,288.800 25.200 C 288.800 24.980,288.440 24.800,288.000 24.800 C 287.560 24.800,287.200 24.620,287.200 24.400 C 287.200 24.180,286.840 24.000,286.400 24.000 C 285.960 24.000,285.600 23.820,285.600 23.600 C 285.600 23.380,285.240 23.200,284.800 23.200 C 284.360 23.200,284.000 23.020,284.000 22.800 C 284.000 22.580,283.640 22.400,283.200 22.400 C 282.760 22.400,282.400 22.220,282.400 22.000 C 282.400 21.780,282.051 21.600,281.624 21.600 C 281.197 21.600,280.736 21.420,280.600 21.200 C 280.464 20.980,279.913 20.800,279.376 20.800 C 278.839 20.800,278.400 20.620,278.400 20.400 C 278.400 20.180,278.040 20.000,277.600 20.000 C 277.160 20.000,276.800 19.820,276.800 19.600 C 276.800 19.380,276.451 19.200,276.024 19.200 C 275.597 19.200,275.136 19.020,275.000 18.800 C 274.864 18.580,274.313 18.400,273.776 18.400 C 273.239 18.400,272.800 18.220,272.800 18.000 C 272.800 17.780,272.350 17.600,271.800 17.600 C 271.250 17.600,270.800 17.420,270.800 17.200 C 270.800 16.980,270.438 16.800,269.995 16.800 C 269.552 16.800,268.787 16.592,268.295 16.338 C 266.374 15.344,265.984 15.200,265.229 15.200 C 264.799 15.200,264.336 15.020,264.200 14.800 C 264.064 14.580,263.524 14.400,263.000 14.400 C 262.476 14.400,261.936 14.220,261.800 14.000 C 261.664 13.780,261.201 13.600,260.771 13.600 C 260.341 13.600,259.677 13.429,259.295 13.220 C 258.913 13.011,257.430 12.547,256.000 12.188 C 254.570 11.830,252.770 11.353,252.000 11.129 C 251.230 10.906,249.520 10.542,248.200 10.322 C 246.880 10.102,245.487 9.760,245.105 9.561 C 244.723 9.362,243.778 9.200,243.005 9.200 C 242.232 9.200,241.600 9.020,241.600 8.800 C 241.600 8.580,240.700 8.400,239.600 8.400 C 238.500 8.400,237.600 8.220,237.600 8.000 C 237.600 7.780,236.610 7.600,235.400 7.600 C 234.190 7.600,233.200 7.420,233.200 7.200 C 233.200 6.974,232.067 6.800,230.600 6.800 C 229.133 6.800,228.000 6.626,228.000 6.400 C 228.000 6.169,226.741 6.000,225.024 6.000 C 223.387 6.000,221.936 5.820,221.800 5.600 C 221.659 5.371,219.604 5.200,217.000 5.200 C 214.396 5.200,212.341 5.029,212.200 4.800 C 211.863 4.255,188.137 4.255,187.800 4.800 M217.400 19.793 C 219.380 19.920,221.360 20.192,221.800 20.396 C 222.240 20.601,223.770 20.858,225.200 20.967 C 229.337 21.282,231.739 21.615,232.600 21.992 C 233.040 22.184,234.210 22.442,235.200 22.564 C 237.134 22.804,239.521 23.284,242.400 24.011 C 243.390 24.261,245.415 24.665,246.900 24.907 C 248.385 25.149,249.600 25.494,249.600 25.674 C 249.600 25.853,250.140 26.000,250.800 26.000 C 251.460 26.000,252.000 26.180,252.000 26.400 C 252.000 26.620,252.529 26.800,253.176 26.800 C 253.823 26.800,254.464 26.980,254.600 27.200 C 254.736 27.420,255.199 27.600,255.629 27.600 C 256.059 27.600,256.723 27.762,257.105 27.961 C 257.487 28.160,258.610 28.551,259.600 28.831 C 260.590 29.110,261.571 29.488,261.780 29.670 C 261.989 29.851,262.574 30.000,263.080 30.000 C 263.586 30.000,264.000 30.180,264.000 30.400 C 264.000 30.620,264.362 30.800,264.805 30.800 C 265.248 30.800,266.013 31.008,266.505 31.262 C 268.382 32.233,268.807 32.400,269.395 32.400 C 269.728 32.400,270.000 32.580,270.000 32.800 C 270.000 33.020,270.272 33.200,270.605 33.200 C 271.193 33.200,271.618 33.367,273.495 34.338 C 273.987 34.592,274.662 34.800,274.995 34.800 C 275.328 34.800,275.600 34.980,275.600 35.200 C 275.600 35.420,275.960 35.600,276.400 35.600 C 276.840 35.600,277.200 35.780,277.200 36.000 C 277.200 36.220,277.446 36.400,277.746 36.400 C 278.047 36.400,280.584 37.570,283.385 39.000 C 286.186 40.430,288.730 41.600,289.038 41.600 C 289.347 41.600,289.600 41.780,289.600 42.000 C 289.600 42.220,289.878 42.400,290.217 42.400 C 290.556 42.400,291.220 42.760,291.692 43.200 C 292.164 43.640,292.787 44.000,293.075 44.000 C 293.364 44.000,293.600 44.180,293.600 44.400 C 293.600 44.620,293.793 44.800,294.028 44.800 C 294.263 44.800,295.241 45.340,296.200 46.000 C 297.159 46.660,298.137 47.200,298.372 47.200 C 298.607 47.200,298.800 47.380,298.800 47.600 C 298.800 47.820,299.070 48.000,299.400 48.000 C 299.730 48.000,300.000 48.180,300.000 48.400 C 300.000 48.620,300.270 48.800,300.600 48.800 C 300.930 48.800,301.200 48.950,301.200 49.132 C 301.200 49.315,301.695 49.720,302.300 50.032 C 302.905 50.345,303.749 50.915,304.175 51.300 C 304.602 51.685,305.187 52.000,305.475 52.000 C 305.764 52.000,306.000 52.150,306.000 52.332 C 306.000 52.515,306.495 52.919,307.100 53.230 C 307.705 53.540,308.470 54.072,308.800 54.411 C 309.130 54.751,310.660 55.911,312.200 56.991 C 313.740 58.070,315.270 59.243,315.600 59.596 C 315.930 59.949,316.830 60.676,317.600 61.212 C 318.370 61.748,319.572 62.755,320.270 63.450 C 320.969 64.145,322.223 65.228,323.057 65.857 C 325.028 67.343,337.460 79.774,338.943 81.743 C 339.572 82.577,340.652 83.833,341.343 84.535 C 342.034 85.237,343.075 86.439,343.655 87.206 C 344.235 87.972,345.090 89.033,345.555 89.561 C 346.020 90.090,346.404 90.630,346.409 90.761 C 346.414 90.893,347.044 91.695,347.809 92.544 C 348.574 93.393,349.200 94.240,349.200 94.426 C 349.200 94.612,349.605 95.177,350.100 95.682 C 350.595 96.187,351.255 97.095,351.568 97.700 C 351.880 98.305,352.285 98.800,352.468 98.800 C 352.650 98.800,352.800 99.070,352.800 99.400 C 352.800 99.730,352.980 100.000,353.200 100.000 C 353.420 100.000,353.600 100.188,353.600 100.417 C 353.600 100.646,353.960 101.220,354.400 101.692 C 354.840 102.164,355.200 102.787,355.200 103.075 C 355.200 103.364,355.380 103.600,355.600 103.600 C 355.820 103.600,356.000 103.870,356.000 104.200 C 356.000 104.530,356.180 104.800,356.400 104.800 C 356.620 104.800,356.800 105.070,356.800 105.400 C 356.800 105.730,356.980 106.000,357.200 106.000 C 357.420 106.000,357.600 106.270,357.600 106.600 C 357.600 106.930,357.780 107.200,358.000 107.200 C 358.220 107.200,358.400 107.470,358.400 107.800 C 358.400 108.130,358.580 108.400,358.800 108.400 C 359.020 108.400,359.200 108.670,359.200 109.000 C 359.200 109.330,359.380 109.600,359.600 109.600 C 359.820 109.600,360.000 109.874,360.000 110.208 C 360.000 110.542,360.451 111.530,361.002 112.403 C 362.593 114.923,369.200 128.002,369.200 128.631 C 369.200 128.944,369.380 129.200,369.600 129.200 C 369.820 129.200,370.000 129.560,370.000 130.000 C 370.000 130.440,370.180 130.800,370.400 130.800 C 370.620 130.800,370.800 131.072,370.800 131.405 C 370.800 131.738,370.959 132.323,371.153 132.705 C 371.348 133.087,371.684 133.850,371.900 134.400 C 372.116 134.950,372.497 135.895,372.746 136.500 C 372.996 137.105,373.356 138.005,373.546 138.500 C 374.124 140.001,374.873 141.760,375.247 142.495 C 375.441 142.877,375.600 143.552,375.600 143.995 C 375.600 144.438,375.780 144.800,376.000 144.800 C 376.220 144.800,376.400 145.340,376.400 146.000 C 376.400 146.660,376.556 147.200,376.746 147.200 C 376.936 147.200,377.205 148.029,377.344 149.042 C 377.483 150.055,377.944 151.990,378.370 153.342 C 378.796 154.694,379.322 156.520,379.539 157.400 C 380.316 160.546,380.860 162.619,381.227 163.828 C 381.432 164.504,381.600 165.618,381.600 166.305 C 381.600 166.991,381.780 167.664,382.000 167.800 C 382.220 167.936,382.400 168.836,382.400 169.800 C 382.400 170.764,382.580 171.664,382.800 171.800 C 383.020 171.936,383.200 173.016,383.200 174.200 C 383.200 175.384,383.380 176.464,383.600 176.600 C 383.820 176.736,384.000 177.996,384.000 179.400 C 384.000 180.804,384.180 182.064,384.400 182.200 C 384.620 182.336,384.800 184.021,384.800 185.944 C 384.800 187.867,384.984 189.624,385.210 189.850 C 386.023 190.663,385.223 226.513,384.373 227.380 C 384.168 227.589,384.000 228.883,384.000 230.256 C 384.000 231.629,383.820 232.864,383.600 233.000 C 383.380 233.136,383.200 234.216,383.200 235.400 C 383.200 236.584,383.020 237.664,382.800 237.800 C 382.580 237.936,382.400 238.811,382.400 239.744 C 382.400 240.677,382.238 241.611,382.041 241.820 C 381.844 242.029,381.588 242.920,381.474 243.800 C 381.359 244.680,381.070 246.165,380.833 247.100 C 380.595 248.035,380.236 249.475,380.036 250.300 C 378.901 254.975,378.321 257.072,377.998 257.665 C 377.800 258.031,377.515 259.246,377.367 260.365 C 377.218 261.484,376.940 262.400,376.748 262.400 C 376.557 262.400,376.400 262.839,376.400 263.376 C 376.400 263.913,376.220 264.464,376.000 264.600 C 375.780 264.736,375.600 265.287,375.600 265.824 C 375.600 266.361,375.420 266.800,375.200 266.800 C 374.980 266.800,374.800 267.340,374.800 268.000 C 374.800 268.660,374.620 269.200,374.400 269.200 C 374.180 269.200,374.000 269.549,374.000 269.976 C 374.000 270.403,373.820 270.864,373.600 271.000 C 373.380 271.136,373.200 271.687,373.200 272.224 C 373.200 272.761,373.020 273.200,372.800 273.200 C 372.580 273.200,372.400 273.549,372.400 273.976 C 372.400 274.403,372.220 274.864,372.000 275.000 C 371.780 275.136,371.600 275.687,371.600 276.224 C 371.600 276.761,371.420 277.200,371.200 277.200 C 370.980 277.200,370.800 277.560,370.800 278.000 C 370.800 278.440,370.620 278.800,370.400 278.800 C 370.180 278.800,370.000 279.065,370.000 279.388 C 370.000 279.711,369.640 280.617,369.200 281.400 C 368.760 282.183,368.400 283.089,368.400 283.412 C 368.400 283.735,368.220 284.000,368.000 284.000 C 367.780 284.000,367.600 284.360,367.600 284.800 C 367.600 285.240,367.420 285.600,367.200 285.600 C 366.980 285.600,366.800 285.960,366.800 286.400 C 366.800 286.840,366.620 287.200,366.400 287.200 C 366.180 287.200,366.000 287.560,366.000 288.000 C 366.000 288.440,365.820 288.800,365.600 288.800 C 365.380 288.800,365.200 289.160,365.200 289.600 C 365.200 290.040,365.020 290.400,364.800 290.400 C 364.580 290.400,364.400 290.760,364.400 291.200 C 364.400 291.640,364.220 292.000,364.000 292.000 C 363.780 292.000,363.600 292.360,363.600 292.800 C 363.600 293.240,363.465 293.602,363.300 293.603 C 363.135 293.605,362.280 295.000,361.400 296.703 C 360.520 298.407,359.665 299.860,359.500 299.933 C 359.335 300.007,359.200 300.322,359.200 300.633 C 359.200 300.945,359.020 301.200,358.800 301.200 C 358.580 301.200,358.400 301.520,358.400 301.912 C 358.400 302.303,358.040 302.883,357.600 303.200 C 357.160 303.517,356.800 304.097,356.800 304.488 C 356.800 304.880,356.650 305.200,356.468 305.200 C 356.285 305.200,355.880 305.695,355.568 306.300 C 355.255 306.905,354.685 307.749,354.300 308.175 C 353.915 308.602,353.600 309.172,353.600 309.442 C 353.600 309.712,353.460 309.993,353.288 310.067 C 353.116 310.140,350.845 313.059,348.240 316.554 C 345.635 320.049,342.986 323.450,342.352 324.113 C 341.718 324.776,341.200 325.463,341.200 325.639 C 341.200 325.815,340.075 327.115,338.700 328.528 C 337.325 329.941,334.476 332.875,332.368 335.049 C 328.100 339.450,323.031 344.133,319.400 347.028 C 318.080 348.081,316.910 349.045,316.800 349.171 C 316.690 349.297,315.790 350.023,314.800 350.785 C 313.810 351.547,312.940 352.312,312.867 352.485 C 312.793 352.658,312.551 352.800,312.327 352.800 C 312.104 352.800,311.417 353.340,310.800 354.000 C 310.183 354.660,309.431 355.200,309.128 355.200 C 308.825 355.200,308.317 355.560,308.000 356.000 C 307.683 356.440,307.238 356.800,307.012 356.801 C 306.785 356.801,305.970 357.341,305.200 358.000 C 304.430 358.659,303.657 359.199,303.483 359.199 C 303.309 359.200,302.949 359.386,302.683 359.614 C 301.780 360.389,295.151 364.400,294.775 364.400 C 294.569 364.400,294.399 364.535,294.397 364.700 C 294.395 364.865,293.990 365.187,293.497 365.417 C 291.634 366.282,288.995 367.811,288.867 368.100 C 288.793 368.265,288.388 368.400,287.967 368.400 C 287.545 368.400,287.200 368.580,287.200 368.800 C 287.200 369.020,286.855 369.200,286.433 369.200 C 286.012 369.200,285.607 369.337,285.533 369.504 C 285.460 369.671,283.780 370.614,281.800 371.600 C 279.820 372.586,278.140 373.529,278.067 373.696 C 277.993 373.863,277.676 374.000,277.361 374.000 C 276.805 374.000,276.372 374.173,274.505 375.138 C 274.013 375.392,273.338 375.600,273.005 375.600 C 272.672 375.600,272.400 375.780,272.400 376.000 C 272.400 376.220,272.051 376.400,271.624 376.400 C 271.197 376.400,270.749 376.559,270.629 376.754 C 270.508 376.949,269.913 377.199,269.305 377.311 C 268.334 377.490,264.934 378.639,262.600 379.578 C 262.160 379.756,261.297 380.103,260.681 380.350 C 257.003 381.829,248.800 378.981,248.800 376.226 C 248.800 375.882,248.620 375.600,248.400 375.600 C 248.180 375.600,248.000 375.240,248.000 374.800 C 248.000 374.360,247.820 374.000,247.600 374.000 C 247.337 374.000,247.200 364.008,247.200 344.824 C 247.200 325.804,247.061 315.561,246.800 315.400 C 246.580 315.264,246.400 313.734,246.400 312.000 C 246.400 310.266,246.220 308.736,246.000 308.600 C 245.780 308.464,245.600 307.564,245.600 306.600 C 245.600 305.636,245.420 304.736,245.200 304.600 C 244.980 304.464,244.800 303.823,244.800 303.176 C 244.800 302.529,244.620 302.000,244.400 302.000 C 244.180 302.000,244.000 301.548,244.000 300.995 C 244.000 300.442,243.832 299.677,243.626 299.295 C 243.421 298.913,243.017 298.015,242.729 297.300 C 242.440 296.585,242.069 296.000,241.902 296.000 C 241.736 296.000,241.600 295.670,241.600 295.266 C 241.600 294.863,240.880 293.505,240.000 292.249 C 239.120 290.992,238.400 289.903,238.400 289.829 C 238.400 289.596,242.862 288.616,246.103 288.137 C 246.929 288.015,247.705 287.755,247.826 287.558 C 247.948 287.361,248.656 287.200,249.400 287.200 C 250.144 287.200,250.864 287.020,251.000 286.800 C 251.136 286.580,251.867 286.400,252.624 286.400 C 253.381 286.400,254.000 286.220,254.000 286.000 C 254.000 285.780,254.452 285.600,255.005 285.600 C 255.558 285.600,256.323 285.438,256.705 285.239 C 257.087 285.040,258.210 284.649,259.200 284.369 C 260.190 284.090,261.171 283.712,261.380 283.530 C 261.589 283.349,262.174 283.200,262.680 283.200 C 263.186 283.200,263.600 283.020,263.600 282.800 C 263.600 282.580,264.039 282.400,264.576 282.400 C 265.113 282.400,265.664 282.220,265.800 282.000 C 265.936 281.780,266.397 281.600,266.824 281.600 C 267.251 281.600,267.600 281.420,267.600 281.200 C 267.600 280.980,267.942 280.800,268.359 280.800 C 268.777 280.800,270.145 280.260,271.400 279.600 C 272.655 278.940,273.933 278.400,274.241 278.400 C 274.548 278.400,274.800 278.254,274.800 278.075 C 274.800 277.896,275.430 277.502,276.200 277.200 C 276.970 276.898,277.600 276.504,277.600 276.325 C 277.600 276.146,277.960 276.000,278.400 276.000 C 278.840 276.000,279.200 275.820,279.200 275.600 C 279.200 275.380,279.483 275.200,279.828 275.200 C 280.173 275.200,281.241 274.660,282.200 274.000 C 283.159 273.340,284.046 272.800,284.171 272.800 C 284.647 272.800,289.192 269.413,291.282 267.500 C 291.944 266.895,292.624 266.400,292.794 266.400 C 293.241 266.400,300.797 258.871,302.094 257.135 C 302.696 256.329,303.440 255.417,303.749 255.108 C 304.638 254.220,308.660 248.166,309.255 246.821 C 309.552 246.149,309.931 245.600,310.098 245.600 C 310.264 245.600,310.400 245.240,310.400 244.800 C 310.400 244.360,310.580 244.000,310.800 244.000 C 311.020 244.000,311.200 243.640,311.200 243.200 C 311.200 242.760,311.380 242.400,311.600 242.400 C 311.820 242.400,312.000 242.040,312.000 241.600 C 312.000 241.160,312.180 240.800,312.400 240.800 C 312.620 240.800,312.800 240.440,312.800 240.000 C 312.800 239.560,312.980 239.200,313.200 239.200 C 313.420 239.200,313.600 238.750,313.600 238.200 C 313.600 237.650,313.780 237.200,314.000 237.200 C 314.220 237.200,314.400 236.851,314.400 236.424 C 314.400 235.997,314.580 235.536,314.800 235.400 C 315.020 235.264,315.200 234.724,315.200 234.200 C 315.200 233.676,315.380 233.136,315.600 233.000 C 315.820 232.864,316.000 232.324,316.000 231.800 C 316.000 231.276,316.180 230.736,316.400 230.600 C 316.620 230.464,316.800 229.733,316.800 228.976 C 316.800 228.219,316.980 227.600,317.200 227.600 C 317.420 227.600,317.600 226.981,317.600 226.224 C 317.600 225.467,317.780 224.736,318.000 224.600 C 318.220 224.464,318.400 223.654,318.400 222.800 C 318.400 221.946,318.580 221.136,318.800 221.000 C 319.020 220.864,319.200 219.809,319.200 218.656 C 319.200 217.503,319.364 216.389,319.565 216.180 C 320.734 214.965,320.771 188.324,319.607 185.800 C 319.405 185.360,319.145 184.100,319.030 183.000 C 318.581 178.697,318.305 177.200,317.960 177.200 C 317.762 177.200,317.600 176.480,317.600 175.600 C 317.600 174.720,317.420 174.000,317.200 174.000 C 316.980 174.000,316.800 173.381,316.800 172.624 C 316.800 171.867,316.620 171.136,316.400 171.000 C 316.180 170.864,316.000 170.401,316.000 169.971 C 316.000 169.541,315.841 168.877,315.647 168.495 C 315.452 168.113,315.092 167.305,314.847 166.700 C 314.601 166.095,314.199 165.105,313.953 164.500 C 313.708 163.895,313.348 163.087,313.153 162.705 C 312.959 162.323,312.800 161.738,312.800 161.405 C 312.800 161.072,312.620 160.800,312.400 160.800 C 312.180 160.800,312.000 160.440,312.000 160.000 C 312.000 159.560,311.820 159.200,311.600 159.200 C 311.380 159.200,311.200 158.840,311.200 158.400 C 311.200 157.960,311.020 157.600,310.800 157.600 C 310.580 157.600,310.400 157.240,310.400 156.800 C 310.400 156.360,310.240 156.000,310.044 156.000 C 309.848 156.000,309.306 155.187,308.839 154.194 C 307.790 151.962,305.595 148.820,302.883 145.666 C 301.868 144.486,301.858 142.769,302.828 135.600 C 303.458 130.947,303.472 110.452,302.848 107.600 C 302.583 106.390,302.264 104.815,302.140 104.100 C 302.015 103.385,301.752 102.800,301.556 102.800 C 301.360 102.800,301.200 102.547,301.200 102.238 C 301.200 101.572,299.532 98.259,299.100 98.067 C 298.935 97.993,298.800 97.761,298.800 97.550 C 298.800 95.100,291.697 94.013,284.800 95.408 C 283.150 95.741,281.211 96.125,280.490 96.261 C 279.770 96.397,279.084 96.664,278.967 96.854 C 278.849 97.044,278.324 97.200,277.800 97.200 C 277.276 97.200,276.758 97.344,276.649 97.521 C 276.540 97.697,275.539 98.090,274.425 98.393 C 273.311 98.696,272.400 99.092,272.400 99.272 C 272.400 99.453,272.128 99.600,271.795 99.600 C 271.462 99.600,270.877 99.761,270.495 99.958 C 270.113 100.155,268.540 100.919,267.000 101.656 C 265.460 102.393,264.140 103.132,264.067 103.298 C 263.993 103.464,263.588 103.600,263.167 103.600 C 262.745 103.600,262.400 103.780,262.400 104.000 C 262.400 104.220,262.164 104.400,261.875 104.400 C 261.587 104.400,260.964 104.760,260.492 105.200 C 260.020 105.640,259.356 106.000,259.017 106.000 C 258.678 106.000,258.400 106.180,258.400 106.400 C 258.400 106.620,258.164 106.800,257.875 106.800 C 257.587 106.800,256.964 107.160,256.492 107.600 C 256.020 108.040,255.356 108.400,255.017 108.400 C 254.678 108.400,254.400 108.550,254.400 108.732 C 254.400 108.915,253.905 109.312,253.300 109.614 C 252.695 109.917,251.088 110.937,249.728 111.882 C 247.274 113.588,243.692 114.320,243.031 113.250 C 242.912 113.058,241.866 112.789,240.707 112.654 C 239.548 112.519,237.520 112.227,236.200 112.006 C 228.141 110.658,221.522 110.052,214.524 110.022 C 211.463 110.009,209.143 109.832,209.000 109.600 C 208.864 109.380,208.403 109.200,207.976 109.200 C 207.549 109.200,207.200 109.020,207.200 108.800 C 207.200 108.580,206.401 108.400,205.424 108.400 C 204.447 108.400,203.536 108.580,203.400 108.800 C 203.254 109.037,200.804 109.200,197.400 109.200 C 193.996 109.200,191.546 109.363,191.400 109.600 C 191.256 109.833,188.870 110.009,185.676 110.022 C 178.482 110.052,171.930 110.646,163.800 112.006 C 162.480 112.227,160.452 112.519,159.293 112.654 C 158.134 112.789,157.088 113.058,156.969 113.250 C 156.349 114.253,153.107 113.579,150.470 111.898 C 149.002 110.962,147.305 109.942,146.700 109.631 C 146.095 109.319,145.600 108.915,145.600 108.732 C 145.600 108.550,145.280 108.400,144.888 108.400 C 144.497 108.400,143.917 108.040,143.600 107.600 C 143.283 107.160,142.703 106.800,142.312 106.800 C 141.920 106.800,141.600 106.641,141.600 106.447 C 141.600 106.252,141.285 105.993,140.900 105.871 C 140.194 105.647,137.970 104.379,137.600 103.989 C 137.092 103.454,128.920 99.595,128.300 99.597 C 127.915 99.599,127.600 99.420,127.600 99.200 C 127.600 98.980,127.240 98.800,126.800 98.800 C 126.360 98.800,126.000 98.620,126.000 98.400 C 126.000 98.180,125.561 98.000,125.024 98.000 C 124.487 98.000,123.936 97.820,123.800 97.600 C 123.664 97.380,123.201 97.200,122.771 97.200 C 122.341 97.200,121.677 97.040,121.295 96.843 C 115.511 93.874,101.200 94.377,101.200 97.550 C 101.200 97.761,101.065 97.993,100.900 98.067 C 100.325 98.322,98.377 102.735,97.662 105.400 C 96.751 108.795,96.666 110.129,96.677 120.800 C 96.688 131.830,96.910 136.191,97.593 138.800 C 98.441 142.042,98.399 144.208,97.467 145.233 C 96.138 146.694,93.600 150.259,93.600 150.665 C 93.600 150.862,93.240 151.283,92.800 151.600 C 92.360 151.917,92.000 152.497,92.000 152.888 C 92.000 153.280,91.841 153.600,91.647 153.600 C 91.452 153.600,91.193 153.915,91.071 154.300 C 90.775 155.236,89.476 157.366,89.100 157.533 C 88.935 157.607,88.800 158.012,88.800 158.433 C 88.800 158.855,88.620 159.200,88.400 159.200 C 88.180 159.200,88.000 159.560,88.000 160.000 C 88.000 160.440,87.820 160.800,87.600 160.800 C 87.380 160.800,87.200 161.072,87.200 161.405 C 87.200 161.738,87.041 162.323,86.847 162.705 C 86.652 163.087,86.316 163.850,86.100 164.400 C 85.884 164.950,85.527 165.850,85.307 166.400 C 85.087 166.950,84.728 167.850,84.509 168.400 C 83.729 170.360,83.200 172.270,83.200 173.128 C 83.200 173.608,83.020 174.000,82.800 174.000 C 82.580 174.000,82.400 174.720,82.400 175.600 C 82.400 176.480,82.220 177.200,82.000 177.200 C 81.780 177.200,81.600 177.974,81.600 178.920 C 81.600 179.866,81.436 180.811,81.235 181.020 C 81.035 181.229,80.762 182.480,80.629 183.800 C 80.496 185.120,80.188 188.090,79.944 190.400 C 79.128 198.138,79.507 210.671,80.791 218.400 C 81.029 219.830,81.326 221.720,81.453 222.600 C 81.579 223.480,81.844 224.371,82.041 224.580 C 82.238 224.789,82.400 225.543,82.400 226.256 C 82.400 226.969,82.580 227.664,82.800 227.800 C 83.020 227.936,83.200 228.566,83.200 229.200 C 83.200 229.834,83.380 230.464,83.600 230.600 C 83.820 230.736,84.000 231.276,84.000 231.800 C 84.000 232.324,84.180 232.864,84.400 233.000 C 84.620 233.136,84.800 233.676,84.800 234.200 C 84.800 234.724,84.980 235.264,85.200 235.400 C 85.420 235.536,85.600 235.997,85.600 236.424 C 85.600 236.851,85.780 237.200,86.000 237.200 C 86.220 237.200,86.400 237.650,86.400 238.200 C 86.400 238.750,86.580 239.200,86.800 239.200 C 87.020 239.200,87.200 239.560,87.200 240.000 C 87.200 240.440,87.380 240.800,87.600 240.800 C 87.820 240.800,88.000 241.160,88.000 241.600 C 88.000 242.040,88.180 242.400,88.400 242.400 C 88.620 242.400,88.800 242.760,88.800 243.200 C 88.800 243.640,88.980 244.000,89.200 244.000 C 89.420 244.000,89.600 244.360,89.600 244.800 C 89.600 245.240,89.780 245.600,90.000 245.600 C 90.220 245.600,90.400 245.836,90.400 246.125 C 90.400 246.413,90.760 247.036,91.200 247.508 C 91.640 247.980,92.000 248.562,92.000 248.800 C 92.000 249.038,92.360 249.620,92.800 250.092 C 93.240 250.564,93.600 251.187,93.600 251.475 C 93.600 251.764,93.741 252.000,93.914 252.000 C 94.086 252.000,94.560 252.563,94.967 253.251 C 96.627 256.062,104.092 264.096,106.800 265.985 C 107.570 266.522,108.470 267.249,108.800 267.600 C 109.130 267.951,110.030 268.671,110.800 269.200 C 111.570 269.729,112.290 270.279,112.400 270.422 C 112.872 271.036,119.681 275.200,120.214 275.200 C 120.536 275.200,120.800 275.380,120.800 275.600 C 120.800 275.820,121.160 276.000,121.600 276.000 C 122.040 276.000,122.400 276.180,122.400 276.400 C 122.400 276.620,122.760 276.800,123.200 276.800 C 123.640 276.800,124.000 276.980,124.000 277.200 C 124.000 277.420,124.360 277.600,124.800 277.600 C 125.240 277.600,125.600 277.780,125.600 278.000 C 125.600 278.220,125.960 278.400,126.400 278.400 C 126.840 278.400,127.200 278.580,127.200 278.800 C 127.200 279.020,127.560 279.200,128.000 279.200 C 128.440 279.200,128.800 279.380,128.800 279.600 C 128.800 279.820,129.160 280.000,129.600 280.000 C 130.040 280.000,130.400 280.180,130.400 280.400 C 130.400 280.620,130.672 280.800,131.005 280.800 C 131.338 280.800,132.013 281.008,132.505 281.262 C 134.431 282.258,134.817 282.400,135.595 282.400 C 136.038 282.400,136.400 282.580,136.400 282.800 C 136.400 283.020,136.940 283.200,137.600 283.200 C 138.260 283.200,138.800 283.380,138.800 283.600 C 138.800 283.820,139.239 284.000,139.776 284.000 C 140.313 284.000,140.864 284.180,141.000 284.400 C 141.136 284.620,141.777 284.800,142.424 284.800 C 143.071 284.800,143.600 284.980,143.600 285.200 C 143.600 285.420,144.129 285.600,144.776 285.600 C 145.423 285.600,146.064 285.780,146.200 286.000 C 146.336 286.220,146.966 286.400,147.600 286.400 C 148.234 286.400,148.852 286.561,148.974 286.758 C 149.095 286.955,149.871 287.213,150.697 287.332 C 151.524 287.451,153.100 287.748,154.200 287.992 C 155.300 288.236,156.740 288.525,157.400 288.634 C 158.924 288.886,161.600 289.680,161.600 289.880 C 161.600 290.159,159.805 292.598,159.500 292.733 C 159.335 292.807,159.200 293.212,159.200 293.633 C 159.200 294.055,159.020 294.400,158.800 294.400 C 158.580 294.400,158.400 294.760,158.400 295.200 C 158.400 295.640,158.220 296.000,158.000 296.000 C 157.780 296.000,157.600 296.360,157.600 296.800 C 157.600 297.240,157.420 297.600,157.200 297.600 C 156.980 297.600,156.800 298.050,156.800 298.600 C 156.800 299.150,156.620 299.600,156.400 299.600 C 156.180 299.600,156.000 300.140,156.000 300.800 C 156.000 301.460,155.820 302.000,155.600 302.000 C 155.380 302.000,155.200 302.529,155.200 303.176 C 155.200 303.823,155.020 304.464,154.800 304.600 C 154.580 304.736,154.400 305.726,154.400 306.800 C 154.400 307.874,154.220 308.864,154.000 309.000 C 153.780 309.136,153.600 309.667,153.600 310.181 C 153.600 311.378,153.368 311.475,147.200 312.843 C 139.196 314.619,126.810 315.770,125.866 314.826 C 125.632 314.592,124.934 314.400,124.315 314.400 C 123.696 314.400,122.877 314.243,122.495 314.052 C 122.113 313.860,120.411 313.024,118.712 312.193 C 117.014 311.362,115.267 310.349,114.829 309.941 C 114.392 309.534,113.862 309.200,113.652 309.200 C 112.954 309.200,107.867 303.900,104.806 299.984 C 103.348 298.120,102.793 297.435,101.300 295.666 C 100.806 295.080,100.401 294.415,100.400 294.188 C 100.400 293.962,100.040 293.517,99.600 293.200 C 99.160 292.883,98.800 292.420,98.800 292.171 C 98.800 291.922,98.260 291.154,97.600 290.463 C 96.940 289.772,96.400 289.052,96.400 288.863 C 96.400 288.674,95.860 287.954,95.200 287.263 C 94.540 286.572,94.000 285.836,94.000 285.626 C 94.000 283.553,84.618 277.200,81.557 277.200 C 80.789 277.200,79.989 277.036,79.780 276.835 C 79.571 276.635,78.365 276.365,77.100 276.235 C 75.835 276.106,73.765 275.894,72.500 275.765 C 71.235 275.635,70.029 275.365,69.820 275.165 C 69.611 274.964,68.497 274.800,67.344 274.800 C 66.191 274.800,65.136 274.620,65.000 274.400 C 64.864 274.180,63.694 274.000,62.400 274.000 C 61.106 274.000,59.936 273.820,59.800 273.600 C 59.664 273.380,58.483 273.200,57.176 273.200 C 55.859 273.200,54.800 273.022,54.800 272.800 C 54.800 272.364,52.691 272.242,52.278 272.655 C 51.929 273.005,53.537 275.200,54.143 275.200 C 54.412 275.200,55.428 275.920,56.400 276.800 C 57.372 277.680,58.334 278.400,58.537 278.400 C 58.740 278.400,59.197 278.717,59.553 279.103 C 59.909 279.490,61.280 280.615,62.600 281.602 C 63.920 282.590,65.090 283.497,65.200 283.618 C 65.310 283.739,66.030 284.275,66.800 284.808 C 67.570 285.341,68.648 286.187,69.196 286.689 C 69.744 287.190,70.301 287.600,70.435 287.600 C 70.568 287.600,71.110 287.981,71.639 288.446 C 72.167 288.911,73.050 289.585,73.600 289.943 C 75.081 290.907,75.483 291.241,77.323 293.036 C 79.830 295.481,82.109 298.029,83.194 299.600 C 83.726 300.370,84.260 301.090,84.381 301.200 C 84.502 301.310,84.871 301.940,85.200 302.600 C 85.529 303.260,85.889 303.890,85.999 304.000 C 86.477 304.476,87.200 306.039,87.200 306.595 C 87.200 306.928,87.380 307.200,87.600 307.200 C 87.820 307.200,88.000 307.560,88.000 308.000 C 88.000 308.440,88.180 308.800,88.400 308.800 C 88.620 308.800,88.800 309.250,88.800 309.800 C 88.800 310.350,88.980 310.800,89.200 310.800 C 89.420 310.800,89.600 311.250,89.600 311.800 C 89.600 312.350,89.780 312.800,90.000 312.800 C 90.220 312.800,90.400 313.160,90.400 313.600 C 90.400 314.040,90.580 314.400,90.800 314.400 C 91.020 314.400,91.200 314.760,91.200 315.200 C 91.200 315.640,91.380 316.000,91.600 316.000 C 91.820 316.000,92.000 316.360,92.000 316.800 C 92.000 317.240,92.180 317.600,92.400 317.600 C 92.620 317.600,92.800 317.960,92.800 318.400 C 92.800 318.840,92.980 319.200,93.200 319.200 C 93.420 319.200,93.600 319.427,93.600 319.704 C 93.600 321.414,103.759 333.200,105.234 333.200 C 105.494 333.200,105.998 333.515,106.354 333.900 C 107.091 334.696,109.058 335.941,110.100 336.271 C 110.485 336.393,110.800 336.652,110.800 336.847 C 110.800 337.041,111.160 337.200,111.600 337.200 C 112.040 337.200,112.400 337.336,112.400 337.502 C 112.400 337.669,112.985 338.044,113.700 338.336 C 114.415 338.628,115.360 339.018,115.800 339.203 C 116.640 339.557,117.472 339.750,121.400 340.507 C 124.594 341.122,135.607 341.103,140.600 340.473 C 144.170 340.023,145.860 339.782,151.300 338.946 L 152.800 338.716 152.800 356.046 C 152.800 373.066,152.784 373.409,151.923 375.197 C 150.990 377.132,147.872 380.000,146.702 380.000 C 146.316 380.000,146.000 380.180,146.000 380.400 C 146.000 380.950,140.712 380.910,139.319 380.350 C 137.487 379.614,136.675 379.307,135.200 378.793 C 134.430 378.525,133.233 378.057,132.540 377.753 C 131.846 377.449,130.912 377.200,130.463 377.200 C 130.014 377.200,129.536 377.020,129.400 376.800 C 129.264 376.580,128.803 376.400,128.376 376.400 C 127.949 376.400,127.600 376.220,127.600 376.000 C 127.600 375.780,127.240 375.600,126.800 375.600 C 126.360 375.600,126.000 375.420,126.000 375.200 C 126.000 374.980,125.651 374.800,125.224 374.800 C 124.797 374.800,124.336 374.620,124.200 374.400 C 124.064 374.180,123.603 374.000,123.176 374.000 C 122.749 374.000,122.400 373.820,122.400 373.600 C 122.400 373.380,122.040 373.200,121.600 373.200 C 121.160 373.200,120.800 373.020,120.800 372.800 C 120.800 372.580,120.566 372.400,120.280 372.400 C 119.544 372.400,117.607 371.459,117.603 371.100 C 117.601 370.935,117.240 370.800,116.800 370.800 C 116.360 370.800,116.000 370.620,116.000 370.400 C 116.000 370.180,115.640 370.000,115.200 370.000 C 114.760 370.000,114.400 369.820,114.400 369.600 C 114.400 369.380,114.040 369.200,113.600 369.200 C 113.160 369.200,112.800 369.020,112.800 368.800 C 112.800 368.580,112.440 368.400,112.000 368.400 C 111.560 368.400,111.200 368.255,111.200 368.079 C 111.200 367.902,110.303 367.317,109.206 366.779 C 108.110 366.240,107.210 365.665,107.206 365.500 C 107.203 365.335,107.007 365.200,106.772 365.200 C 106.537 365.200,105.559 364.660,104.600 364.000 C 103.641 363.340,102.769 362.800,102.663 362.800 C 102.557 362.800,101.513 362.170,100.344 361.400 C 99.175 360.630,97.989 360.000,97.709 360.000 C 97.429 360.000,97.200 359.850,97.200 359.668 C 97.200 359.485,96.705 359.081,96.100 358.770 C 95.495 358.460,94.709 357.889,94.353 357.503 C 93.997 357.116,93.494 356.800,93.235 356.800 C 92.976 356.800,92.344 356.395,91.832 355.900 C 90.656 354.763,89.763 354.043,88.000 352.807 C 87.230 352.268,86.359 351.593,86.065 351.307 C 85.771 351.022,84.875 350.296,84.073 349.694 C 82.614 348.599,81.869 347.994,80.000 346.390 C 79.450 345.918,78.485 345.142,77.855 344.666 C 75.869 343.164,59.600 326.768,59.600 326.269 C 59.600 326.122,58.952 325.326,58.160 324.501 C 57.368 323.675,56.304 322.370,55.795 321.600 C 55.286 320.830,54.404 319.713,53.835 319.117 C 53.266 318.522,52.800 317.924,52.800 317.789 C 52.800 317.654,52.575 317.306,52.300 317.016 C 51.160 315.815,50.400 314.767,50.400 314.395 C 50.400 314.178,50.259 314.000,50.086 314.000 C 49.914 314.000,49.479 313.505,49.121 312.900 C 48.763 312.295,48.004 311.260,47.435 310.600 C 46.866 309.940,46.401 309.175,46.400 308.900 C 46.400 308.625,46.250 308.400,46.068 308.400 C 45.885 308.400,45.480 307.905,45.168 307.300 C 44.855 306.695,44.285 305.851,43.900 305.425 C 43.515 304.998,43.200 304.413,43.200 304.125 C 43.200 303.836,43.020 303.600,42.800 303.600 C 42.580 303.600,42.400 303.425,42.400 303.212 C 42.400 302.998,41.590 301.453,40.600 299.778 C 39.610 298.104,38.800 296.584,38.800 296.400 C 38.800 296.217,38.665 296.007,38.500 295.933 C 38.233 295.815,36.151 292.084,35.025 289.703 C 34.791 289.210,34.465 288.805,34.300 288.803 C 34.135 288.801,34.000 288.555,34.000 288.256 C 34.000 287.957,33.482 286.652,32.848 285.356 C 32.214 284.060,31.115 281.740,30.406 280.200 C 29.696 278.660,28.955 277.087,28.758 276.705 C 28.561 276.323,28.400 275.738,28.400 275.405 C 28.400 275.072,28.220 274.800,28.000 274.800 C 27.780 274.800,27.600 274.451,27.600 274.024 C 27.600 273.597,27.420 273.136,27.200 273.000 C 26.980 272.864,26.800 272.313,26.800 271.776 C 26.800 271.239,26.620 270.800,26.400 270.800 C 26.180 270.800,26.000 270.438,26.000 269.995 C 26.000 269.552,25.836 268.877,25.635 268.495 C 25.274 267.809,22.999 260.692,22.025 257.200 C 21.748 256.210,21.360 255.087,21.161 254.705 C 20.962 254.323,20.800 253.479,20.800 252.829 C 20.800 252.179,20.620 251.536,20.400 251.400 C 20.180 251.264,20.000 250.634,20.000 250.000 C 20.000 249.366,19.820 248.736,19.600 248.600 C 19.380 248.464,19.200 247.643,19.200 246.776 C 19.200 245.909,19.020 245.200,18.800 245.200 C 18.580 245.200,18.400 244.401,18.400 243.424 C 18.400 242.447,18.220 241.536,18.000 241.400 C 17.780 241.264,17.600 240.364,17.600 239.400 C 17.600 238.436,17.420 237.536,17.200 237.400 C 16.980 237.264,16.800 236.184,16.800 235.000 C 16.800 233.816,16.620 232.736,16.400 232.600 C 16.180 232.464,16.000 231.204,16.000 229.800 C 16.000 228.396,15.820 227.136,15.600 227.000 C 15.380 226.864,15.200 225.089,15.200 223.056 C 15.200 221.023,15.015 219.175,14.790 218.950 C 13.983 218.143,14.782 183.482,15.627 182.620 C 15.832 182.411,16.000 181.016,16.000 179.520 C 16.000 177.973,16.173 176.800,16.400 176.800 C 16.620 176.800,16.800 175.821,16.800 174.624 C 16.800 173.427,16.980 172.336,17.200 172.200 C 17.420 172.064,17.600 171.164,17.600 170.200 C 17.600 169.236,17.780 168.336,18.000 168.200 C 18.220 168.064,18.400 167.164,18.400 166.200 C 18.400 165.236,18.580 164.336,18.800 164.200 C 19.020 164.064,19.200 163.344,19.200 162.600 C 19.200 161.856,19.380 161.136,19.600 161.000 C 19.820 160.864,20.000 160.144,20.000 159.400 C 20.000 158.656,20.180 157.936,20.400 157.800 C 20.620 157.664,20.800 157.034,20.800 156.400 C 20.800 155.766,20.980 155.136,21.200 155.000 C 21.420 154.864,21.600 154.234,21.600 153.600 C 21.600 152.966,21.780 152.336,22.000 152.200 C 22.220 152.064,22.400 151.633,22.400 151.242 C 22.400 150.412,23.841 145.713,24.401 144.717 C 24.612 144.342,24.901 143.307,25.044 142.417 C 25.186 141.528,25.459 140.800,25.651 140.800 C 25.843 140.800,26.000 140.438,26.000 139.995 C 26.000 139.552,26.159 138.877,26.353 138.495 C 26.548 138.113,26.882 137.350,27.097 136.800 C 27.311 136.250,27.872 135.018,28.343 134.062 C 28.814 133.106,29.200 131.981,29.200 131.562 C 29.200 131.143,29.380 130.800,29.600 130.800 C 29.820 130.800,30.000 130.440,30.000 130.000 C 30.000 129.560,30.180 129.200,30.400 129.200 C 30.620 129.200,30.800 128.840,30.800 128.400 C 30.800 127.960,30.980 127.600,31.200 127.600 C 31.420 127.600,31.600 127.352,31.600 127.050 C 31.600 126.475,37.813 114.187,38.400 113.600 C 38.598 113.402,39.985 110.906,41.179 108.600 C 41.521 107.940,41.935 107.340,42.100 107.267 C 42.265 107.193,42.400 106.878,42.400 106.567 C 42.400 106.255,42.580 106.000,42.800 106.000 C 43.020 106.000,43.200 105.730,43.200 105.400 C 43.200 105.070,43.380 104.800,43.600 104.800 C 43.820 104.800,44.000 104.530,44.000 104.200 C 44.000 103.870,44.180 103.600,44.400 103.600 C 44.620 103.600,44.800 103.330,44.800 103.000 C 44.800 102.670,44.980 102.400,45.200 102.400 C 45.420 102.400,45.600 102.212,45.600 101.983 C 45.600 101.754,45.960 101.180,46.400 100.708 C 46.840 100.236,47.200 99.613,47.200 99.325 C 47.200 99.036,47.350 98.800,47.532 98.800 C 47.715 98.800,48.120 98.308,48.432 97.707 C 48.745 97.106,49.495 96.089,50.100 95.448 C 50.705 94.806,51.200 94.131,51.200 93.948 C 51.200 93.764,51.642 93.116,52.182 92.507 C 52.722 91.898,54.464 89.780,56.053 87.800 C 57.642 85.820,59.233 83.930,59.590 83.600 C 59.946 83.270,60.676 82.370,61.211 81.600 C 62.346 79.966,75.235 67.132,77.000 65.878 C 77.660 65.409,78.830 64.384,79.600 63.600 C 80.370 62.816,81.630 61.734,82.400 61.196 C 83.170 60.658,84.189 59.853,84.665 59.409 C 85.141 58.964,86.558 57.880,87.814 57.000 C 89.070 56.120,90.480 55.069,90.948 54.665 C 91.417 54.260,92.295 53.637,92.900 53.279 C 93.505 52.920,94.000 52.486,94.000 52.314 C 94.000 52.141,94.236 52.000,94.525 52.000 C 94.813 52.000,95.398 51.685,95.825 51.300 C 96.251 50.915,97.095 50.345,97.700 50.032 C 98.305 49.720,98.800 49.315,98.800 49.132 C 98.800 48.950,99.036 48.800,99.325 48.800 C 99.613 48.800,100.206 48.485,100.642 48.100 C 101.647 47.212,103.591 46.017,104.500 45.729 C 104.885 45.607,105.200 45.348,105.200 45.153 C 105.200 44.959,105.470 44.800,105.800 44.800 C 106.130 44.800,106.400 44.641,106.400 44.447 C 106.400 44.252,106.715 43.993,107.100 43.871 C 108.036 43.575,110.166 42.276,110.333 41.900 C 110.407 41.735,110.733 41.600,111.060 41.600 C 111.386 41.600,113.913 40.430,116.675 39.000 C 119.438 37.570,121.946 36.400,122.249 36.400 C 122.552 36.400,122.800 36.220,122.800 36.000 C 122.800 35.780,123.160 35.600,123.600 35.600 C 124.040 35.600,124.400 35.420,124.400 35.200 C 124.400 34.980,124.760 34.800,125.200 34.800 C 125.640 34.800,126.000 34.620,126.000 34.400 C 126.000 34.180,126.439 34.000,126.976 34.000 C 127.513 34.000,128.064 33.820,128.200 33.600 C 128.336 33.380,128.797 33.200,129.224 33.200 C 129.651 33.200,130.000 33.020,130.000 32.800 C 130.000 32.580,130.349 32.400,130.776 32.400 C 131.203 32.400,131.664 32.220,131.800 32.000 C 131.936 31.780,132.487 31.600,133.024 31.600 C 133.561 31.600,134.000 31.420,134.000 31.200 C 134.000 30.980,134.362 30.800,134.805 30.800 C 135.248 30.800,135.968 30.620,136.405 30.400 C 136.842 30.180,137.558 29.820,137.995 29.600 C 138.432 29.380,139.116 29.200,139.515 29.200 C 139.914 29.200,140.411 29.051,140.620 28.870 C 140.829 28.688,141.810 28.310,142.800 28.031 C 143.790 27.751,144.913 27.360,145.295 27.161 C 145.677 26.962,146.442 26.800,146.995 26.800 C 147.548 26.800,148.000 26.620,148.000 26.400 C 148.000 26.180,148.452 26.000,149.005 26.000 C 149.558 26.000,150.323 25.840,150.705 25.645 C 151.087 25.449,152.480 25.073,153.800 24.809 C 155.120 24.544,156.920 24.154,157.800 23.942 C 163.715 22.516,170.704 21.313,175.200 20.947 C 176.630 20.831,177.971 20.570,178.180 20.368 C 178.389 20.165,180.189 19.997,182.180 19.994 C 184.171 19.991,186.070 19.809,186.400 19.591 C 187.014 19.186,210.310 19.337,217.400 19.793 " stroke="none" fill="#89cff0" fill-rule="evenodd"></path><path id="path4" d="" stroke="none" fill="#00ffff" fill-rule="evenodd"></path></g></svg>