<svg id="svg" version="1.1" width="400" height="400" viewBox="0 0 400 400" xmlns="http://www.w3.org/2000/svg" xmlns:xlink="http://www.w3.org/1999/xlink" ><g id="svgg"><path id="path0" d="" stroke="none" fill="#ffffff" fill-rule="evenodd"></path><path id="path1" d="" stroke="none" fill="#0000ff" fill-rule="evenodd"></path><path id="path2" d="" stroke="none" fill="#3399ff" fill-rule="evenodd"></path><path id="path3" d="M191.117 12.217 C 191.000 12.334,188.136 12.600,184.752 12.808 C 177.651 13.244,171.885 13.942,165.200 15.173 C 163.990 15.396,162.280 15.685,161.400 15.814 C 160.520 15.944,159.440 16.206,159.000 16.398 C 158.203 16.744,156.752 17.048,153.897 17.465 C 153.071 17.586,152.295 17.845,152.174 18.042 C 152.052 18.239,151.434 18.400,150.800 18.400 C 150.166 18.400,149.536 18.580,149.400 18.800 C 149.264 19.020,148.634 19.200,148.000 19.200 C 147.366 19.200,146.736 19.380,146.600 19.600 C 146.464 19.820,145.834 20.000,145.200 20.000 C 144.566 20.000,143.936 20.180,143.800 20.400 C 143.664 20.620,143.023 20.800,142.376 20.800 C 141.729 20.800,141.200 20.980,141.200 21.200 C 141.200 21.420,140.761 21.600,140.224 21.600 C 139.687 21.600,139.136 21.780,139.000 22.000 C 138.864 22.220,138.324 22.400,137.800 22.400 C 137.276 22.400,136.758 22.544,136.649 22.721 C 136.540 22.897,135.539 23.290,134.425 23.593 C 133.311 23.896,132.400 24.292,132.400 24.472 C 132.400 24.653,131.950 24.800,131.400 24.800 C 130.850 24.800,130.400 24.980,130.400 25.200 C 130.400 25.420,129.950 25.600,129.400 25.600 C 128.850 25.600,128.400 25.780,128.400 26.000 C 128.400 26.220,127.950 26.400,127.400 26.400 C 126.850 26.400,126.400 26.580,126.400 26.800 C 126.400 27.020,126.118 27.200,125.774 27.200 C 125.430 27.200,124.165 27.650,122.963 28.200 C 121.760 28.750,120.680 29.200,120.563 29.200 C 120.106 29.200,111.792 33.394,111.667 33.688 C 111.593 33.859,111.203 34.000,110.800 34.000 C 110.397 34.000,110.007 34.135,109.933 34.300 C 109.766 34.676,107.636 35.975,106.700 36.271 C 106.315 36.393,106.000 36.652,106.000 36.847 C 106.000 37.041,105.640 37.200,105.200 37.200 C 104.760 37.200,104.400 37.380,104.400 37.600 C 104.400 37.820,104.164 38.000,103.875 38.000 C 103.587 38.000,102.964 38.360,102.492 38.800 C 102.020 39.240,101.438 39.600,101.200 39.600 C 100.962 39.600,100.380 39.960,99.908 40.400 C 99.436 40.840,98.813 41.200,98.525 41.200 C 98.236 41.200,98.000 41.380,98.000 41.600 C 98.000 41.820,97.770 42.000,97.488 42.000 C 97.207 42.000,96.717 42.360,96.400 42.800 C 96.083 43.240,95.596 43.600,95.317 43.600 C 94.822 43.600,88.716 47.658,87.671 48.682 C 87.381 48.967,87.019 49.200,86.867 49.200 C 86.716 49.200,86.144 49.610,85.596 50.111 C 85.048 50.613,83.970 51.459,83.200 51.992 C 82.430 52.526,81.509 53.286,81.153 53.681 C 80.797 54.076,80.381 54.400,80.227 54.400 C 80.074 54.400,79.105 55.260,78.074 56.311 C 77.043 57.362,75.596 58.648,74.858 59.169 C 71.620 61.451,60.774 72.266,58.452 75.528 C 57.965 76.211,56.809 77.561,55.883 78.528 C 53.596 80.917,52.373 82.350,51.208 84.004 C 50.668 84.772,49.726 85.940,49.115 86.600 C 48.504 87.260,48.003 88.010,48.002 88.267 C 48.001 88.523,47.852 88.793,47.670 88.867 C 47.489 88.940,46.500 90.260,45.472 91.800 C 44.445 93.340,43.468 94.780,43.302 95.000 C 43.136 95.220,42.746 95.892,42.436 96.493 C 42.126 97.095,41.541 97.942,41.136 98.377 C 40.731 98.811,40.400 99.354,40.400 99.583 C 40.400 99.812,40.220 100.000,40.000 100.000 C 39.780 100.000,39.600 100.270,39.600 100.600 C 39.600 100.930,39.420 101.200,39.200 101.200 C 38.980 101.200,38.800 101.478,38.800 101.817 C 38.800 102.156,38.440 102.820,38.000 103.292 C 37.560 103.764,37.200 104.387,37.200 104.675 C 37.200 104.964,37.020 105.200,36.800 105.200 C 36.580 105.200,36.400 105.560,36.400 106.000 C 36.400 106.440,36.220 106.800,36.000 106.800 C 35.780 106.800,35.600 107.160,35.600 107.600 C 35.600 108.040,35.442 108.400,35.249 108.400 C 35.055 108.400,34.673 108.940,34.400 109.600 C 34.127 110.260,33.745 110.800,33.551 110.800 C 33.358 110.800,33.200 111.145,33.200 111.567 C 33.200 111.988,33.057 112.393,32.882 112.467 C 32.419 112.660,28.607 120.618,27.739 123.200 C 27.333 124.410,26.865 125.460,26.700 125.533 C 26.535 125.607,26.400 126.012,26.400 126.433 C 26.400 126.855,26.220 127.200,26.000 127.200 C 25.780 127.200,25.600 127.650,25.600 128.200 C 25.600 128.750,25.420 129.200,25.200 129.200 C 24.980 129.200,24.800 129.650,24.800 130.200 C 24.800 130.750,24.620 131.200,24.400 131.200 C 24.180 131.200,24.000 131.650,24.000 132.200 C 24.000 132.750,23.820 133.200,23.600 133.200 C 23.380 133.200,23.200 133.549,23.200 133.976 C 23.200 134.403,23.020 134.864,22.800 135.000 C 22.580 135.136,22.400 135.777,22.400 136.424 C 22.400 137.071,22.220 137.600,22.000 137.600 C 21.780 137.600,21.600 138.050,21.600 138.600 C 21.600 139.150,21.420 139.600,21.200 139.600 C 20.980 139.600,20.800 140.140,20.800 140.800 C 20.800 141.460,20.620 142.000,20.400 142.000 C 20.180 142.000,20.000 142.529,20.000 143.176 C 20.000 143.823,19.820 144.464,19.600 144.600 C 19.380 144.736,19.200 145.366,19.200 146.000 C 19.200 146.634,19.020 147.264,18.800 147.400 C 18.580 147.536,18.400 148.166,18.400 148.800 C 18.400 149.434,18.220 150.064,18.000 150.200 C 17.780 150.336,17.600 150.966,17.600 151.600 C 17.600 152.234,17.439 152.852,17.242 152.974 C 17.045 153.095,16.786 153.871,16.665 154.697 C 16.248 157.552,15.944 159.003,15.598 159.800 C 15.406 160.240,15.144 161.320,15.014 162.200 C 14.885 163.080,14.596 164.790,14.373 166.000 C 13.337 171.624,12.532 177.915,12.197 183.000 C 12.067 184.980,11.796 188.078,11.596 189.885 C 10.602 198.869,11.957 219.992,14.376 233.200 C 14.597 234.410,14.885 236.120,15.014 237.000 C 15.144 237.880,15.406 238.960,15.598 239.400 C 15.944 240.197,16.248 241.648,16.665 244.503 C 16.786 245.329,17.045 246.105,17.242 246.226 C 17.439 246.348,17.600 246.966,17.600 247.600 C 17.600 248.234,17.780 248.864,18.000 249.000 C 18.220 249.136,18.400 249.766,18.400 250.400 C 18.400 251.034,18.580 251.664,18.800 251.800 C 19.020 251.936,19.200 252.566,19.200 253.200 C 19.200 253.834,19.380 254.464,19.600 254.600 C 19.820 254.736,20.000 255.377,20.000 256.024 C 20.000 256.671,20.180 257.200,20.400 257.200 C 20.620 257.200,20.800 257.740,20.800 258.400 C 20.800 259.060,20.980 259.600,21.200 259.600 C 21.420 259.600,21.600 260.039,21.600 260.576 C 21.600 261.113,21.744 261.642,21.921 261.751 C 22.097 261.860,22.490 262.861,22.793 263.975 C 23.096 265.089,23.492 266.000,23.672 266.000 C 23.853 266.000,24.000 266.439,24.000 266.976 C 24.000 267.513,24.180 268.064,24.400 268.200 C 24.620 268.336,24.800 268.797,24.800 269.224 C 24.800 269.651,24.980 270.000,25.200 270.000 C 25.420 270.000,25.600 270.329,25.600 270.732 C 25.600 271.135,26.049 272.350,26.598 273.432 C 27.147 274.514,27.597 275.635,27.598 275.923 C 27.600 276.443,33.144 288.018,33.575 288.400 C 33.961 288.743,35.238 290.966,35.471 291.700 C 35.593 292.085,35.852 292.400,36.047 292.400 C 36.241 292.400,36.400 292.760,36.400 293.200 C 36.400 293.640,36.558 294.000,36.751 294.000 C 36.945 294.000,37.327 294.540,37.600 295.200 C 37.873 295.860,38.255 296.400,38.449 296.400 C 38.642 296.400,38.800 296.760,38.800 297.200 C 38.800 297.640,38.980 298.000,39.200 298.000 C 39.420 298.000,39.600 298.270,39.600 298.600 C 39.600 298.930,39.780 299.200,40.000 299.200 C 40.220 299.200,40.400 299.470,40.400 299.800 C 40.400 300.130,40.580 300.400,40.800 300.400 C 41.020 300.400,41.200 300.636,41.200 300.925 C 41.200 301.213,41.560 301.836,42.000 302.308 C 42.440 302.780,42.800 303.282,42.800 303.422 C 42.800 303.793,47.311 310.175,47.685 310.333 C 47.858 310.407,48.000 310.695,48.000 310.974 C 48.000 311.253,48.497 312.003,49.104 312.641 C 49.712 313.278,50.648 314.430,51.185 315.200 C 51.723 315.970,52.486 316.891,52.881 317.247 C 53.276 317.603,53.600 318.006,53.600 318.142 C 53.600 318.464,54.563 319.628,56.800 322.011 C 57.790 323.065,59.500 324.968,60.600 326.240 C 64.121 330.309,72.170 338.144,75.147 340.400 C 75.873 340.950,77.161 342.030,78.009 342.800 C 81.256 345.749,82.021 346.400,82.235 346.400 C 82.357 346.400,82.686 346.625,82.965 346.900 C 83.245 347.175,84.070 347.850,84.800 348.400 C 85.530 348.950,86.355 349.625,86.635 349.900 C 86.914 350.175,87.296 350.400,87.483 350.400 C 87.670 350.400,88.083 350.760,88.400 351.200 C 88.717 351.640,89.215 352.000,89.506 352.000 C 89.798 352.000,90.486 352.450,91.036 353.000 C 91.586 353.550,92.180 354.000,92.356 354.000 C 92.532 354.000,93.199 354.450,93.838 355.000 C 94.477 355.549,95.135 355.999,95.299 356.000 C 95.464 356.000,96.475 356.630,97.547 357.400 C 98.619 358.170,99.699 358.800,99.948 358.800 C 100.196 358.800,100.400 358.980,100.400 359.200 C 100.400 359.420,100.678 359.600,101.017 359.600 C 101.356 359.600,102.020 359.960,102.492 360.400 C 102.964 360.840,103.587 361.200,103.875 361.200 C 104.164 361.200,104.400 361.380,104.400 361.600 C 104.400 361.820,104.760 362.000,105.200 362.000 C 105.640 362.000,106.000 362.180,106.000 362.400 C 106.000 362.620,106.320 362.800,106.712 362.800 C 107.103 362.800,107.683 363.160,108.000 363.600 C 108.317 364.040,108.897 364.400,109.288 364.400 C 109.680 364.400,110.000 364.580,110.000 364.800 C 110.000 365.020,110.345 365.200,110.767 365.200 C 111.188 365.200,111.593 365.343,111.667 365.518 C 111.863 365.986,121.777 370.800,122.544 370.800 C 122.905 370.800,123.200 370.980,123.200 371.200 C 123.200 371.420,123.524 371.600,123.920 371.600 C 124.316 371.600,124.811 371.755,125.020 371.944 C 125.229 372.134,127.200 372.963,129.400 373.788 C 131.600 374.612,133.713 375.447,134.095 375.643 C 134.477 375.839,135.141 376.000,135.571 376.000 C 136.001 376.000,136.464 376.180,136.600 376.400 C 136.736 376.620,137.276 376.800,137.800 376.800 C 138.324 376.800,138.864 376.980,139.000 377.200 C 139.136 377.420,139.687 377.600,140.224 377.600 C 140.761 377.600,141.200 377.780,141.200 378.000 C 141.200 378.220,141.740 378.400,142.400 378.400 C 143.060 378.400,143.600 378.580,143.600 378.800 C 143.600 379.020,144.219 379.200,144.976 379.200 C 145.733 379.200,146.464 379.380,146.600 379.600 C 146.736 379.820,147.366 380.000,148.000 380.000 C 148.634 380.000,149.264 380.180,149.400 380.400 C 149.536 380.620,150.166 380.800,150.800 380.800 C 151.434 380.800,152.064 380.980,152.200 381.200 C 152.336 381.420,153.056 381.600,153.800 381.600 C 154.544 381.600,155.264 381.780,155.400 382.000 C 155.536 382.220,156.321 382.400,157.144 382.400 C 157.967 382.400,158.811 382.562,159.020 382.759 C 159.378 383.097,160.534 383.316,164.800 383.851 C 165.790 383.976,166.771 384.240,166.980 384.439 C 167.189 384.637,168.368 384.800,169.600 384.800 C 170.832 384.800,172.011 384.966,172.220 385.169 C 172.628 385.565,176.070 385.907,182.800 386.222 C 185.110 386.330,187.360 386.601,187.800 386.823 C 189.216 387.538,218.596 386.750,219.380 385.975 C 219.589 385.769,220.973 385.600,222.456 385.600 C 223.939 385.600,225.264 385.420,225.400 385.200 C 225.536 384.980,226.706 384.800,228.000 384.800 C 229.294 384.800,230.464 384.620,230.600 384.400 C 230.736 384.180,231.737 384.000,232.824 384.000 C 233.911 384.000,234.800 383.820,234.800 383.600 C 234.800 383.380,235.599 383.200,236.576 383.200 C 237.553 383.200,238.464 383.020,238.600 382.800 C 238.736 382.580,239.546 382.400,240.400 382.400 C 241.254 382.400,242.064 382.220,242.200 382.000 C 242.336 381.780,243.157 381.600,244.024 381.600 C 244.891 381.600,245.600 381.420,245.600 381.200 C 245.600 380.980,246.219 380.800,246.976 380.800 C 247.733 380.800,248.464 380.620,248.600 380.400 C 248.736 380.180,249.377 380.000,250.024 380.000 C 250.671 380.000,251.200 379.820,251.200 379.600 C 251.200 379.380,251.830 379.200,252.600 379.200 C 253.370 379.200,254.000 379.020,254.000 378.800 C 254.000 378.580,254.540 378.400,255.200 378.400 C 255.860 378.400,256.400 378.220,256.400 378.000 C 256.400 377.780,256.940 377.600,257.600 377.600 C 258.260 377.600,258.800 377.420,258.800 377.200 C 258.800 376.980,259.340 376.800,260.000 376.800 C 260.660 376.800,261.200 376.620,261.200 376.400 C 261.200 376.180,261.562 376.000,262.005 376.000 C 262.448 376.000,263.123 375.839,263.505 375.643 C 264.774 374.991,271.807 372.400,272.308 372.400 C 272.579 372.400,272.800 372.220,272.800 372.000 C 272.800 371.780,273.160 371.600,273.600 371.600 C 274.040 371.600,274.400 371.420,274.400 371.200 C 274.400 370.980,274.715 370.794,275.100 370.787 C 275.485 370.781,276.875 370.241,278.190 369.587 C 279.504 368.934,280.794 368.400,281.056 368.400 C 281.319 368.400,281.593 368.264,281.667 368.098 C 281.740 367.932,283.060 367.168,284.600 366.400 C 286.140 365.632,287.460 364.868,287.533 364.702 C 287.607 364.536,288.012 364.400,288.433 364.400 C 288.855 364.400,289.200 364.220,289.200 364.000 C 289.200 363.780,289.470 363.600,289.800 363.600 C 290.130 363.600,290.400 363.420,290.400 363.200 C 290.400 362.980,290.670 362.800,291.000 362.800 C 291.330 362.800,291.600 362.620,291.600 362.400 C 291.600 362.180,291.945 362.000,292.367 362.000 C 292.788 362.000,293.193 361.865,293.267 361.700 C 293.434 361.324,295.564 360.025,296.500 359.729 C 296.885 359.607,297.200 359.348,297.200 359.153 C 297.200 358.959,297.385 358.800,297.612 358.800 C 298.127 358.800,305.721 353.891,306.889 352.803 C 307.363 352.361,307.947 352.000,308.187 352.000 C 308.427 352.000,308.883 351.640,309.200 351.200 C 309.517 350.760,309.969 350.400,310.204 350.400 C 310.440 350.400,311.428 349.680,312.400 348.800 C 313.372 347.920,314.328 347.200,314.524 347.200 C 314.719 347.200,315.383 346.660,316.000 346.000 C 316.617 345.340,317.275 344.800,317.463 344.800 C 317.651 344.800,318.531 344.125,319.418 343.300 C 320.306 342.475,322.015 340.969,323.216 339.954 C 327.817 336.065,338.181 325.438,342.232 320.455 C 342.654 319.936,343.225 319.274,343.500 318.984 C 343.775 318.694,344.000 318.337,344.000 318.189 C 344.000 318.042,344.540 317.417,345.200 316.800 C 345.860 316.183,346.400 315.519,346.400 315.324 C 346.400 315.128,347.120 314.172,348.000 313.200 C 348.880 312.228,349.600 311.240,349.600 311.004 C 349.600 310.769,349.960 310.317,350.400 310.000 C 350.840 309.683,351.200 309.193,351.200 308.912 C 351.200 308.630,351.380 308.400,351.600 308.400 C 351.820 308.400,352.000 308.145,352.000 307.833 C 352.000 307.522,352.159 307.207,352.353 307.133 C 352.718 306.995,358.178 298.642,359.172 296.700 C 359.482 296.095,359.885 295.600,360.068 295.600 C 360.250 295.600,360.400 295.240,360.400 294.800 C 360.400 294.360,360.580 294.000,360.800 294.000 C 361.020 294.000,361.200 293.640,361.200 293.200 C 361.200 292.760,361.359 292.400,361.553 292.400 C 361.748 292.400,362.007 292.085,362.129 291.700 C 362.351 290.999,363.617 288.776,364.008 288.400 C 364.123 288.290,364.842 286.940,365.606 285.400 C 366.371 283.860,367.132 282.540,367.298 282.467 C 367.464 282.393,367.600 281.988,367.600 281.567 C 367.600 281.145,367.780 280.800,368.000 280.800 C 368.220 280.800,368.400 280.558,368.400 280.261 C 368.400 279.965,368.650 279.200,368.956 278.561 C 369.262 277.923,369.821 276.680,370.198 275.800 C 370.575 274.920,371.199 273.480,371.585 272.600 C 373.556 268.107,374.933 264.465,375.101 263.300 C 375.203 262.585,375.448 262.000,375.644 262.000 C 375.840 262.000,376.000 261.471,376.000 260.824 C 376.000 260.177,376.180 259.536,376.400 259.400 C 376.620 259.264,376.800 258.713,376.800 258.176 C 376.800 257.639,376.980 257.200,377.200 257.200 C 377.420 257.200,377.600 256.660,377.600 256.000 C 377.600 255.340,377.780 254.800,378.000 254.800 C 378.220 254.800,378.400 254.170,378.400 253.400 C 378.400 252.630,378.580 252.000,378.800 252.000 C 379.020 252.000,379.200 251.471,379.200 250.824 C 379.200 250.177,379.380 249.536,379.600 249.400 C 379.820 249.264,380.000 248.533,380.000 247.776 C 380.000 247.019,380.180 246.400,380.400 246.400 C 380.620 246.400,380.800 245.691,380.800 244.824 C 380.800 243.957,380.980 243.136,381.200 243.000 C 381.420 242.864,381.600 242.054,381.600 241.200 C 381.600 240.346,381.780 239.536,382.000 239.400 C 382.220 239.264,382.400 238.353,382.400 237.376 C 382.400 236.399,382.580 235.600,382.800 235.600 C 383.020 235.600,383.200 234.610,383.200 233.400 C 383.200 232.190,383.380 231.200,383.600 231.200 C 383.822 231.200,384.000 230.141,384.000 228.824 C 384.000 227.517,384.180 226.336,384.400 226.200 C 384.620 226.064,384.800 224.739,384.800 223.256 C 384.800 221.773,384.969 220.389,385.175 220.180 C 385.954 219.392,386.751 189.391,386.013 188.653 C 385.778 188.418,385.600 186.301,385.600 183.744 C 385.600 181.177,385.428 179.141,385.200 179.000 C 384.980 178.864,384.800 177.514,384.800 176.000 C 384.800 174.486,384.620 173.136,384.400 173.000 C 384.180 172.864,384.000 171.694,384.000 170.400 C 384.000 169.106,383.820 167.936,383.600 167.800 C 383.380 167.664,383.200 166.674,383.200 165.600 C 383.200 164.526,383.020 163.536,382.800 163.400 C 382.580 163.264,382.400 162.454,382.400 161.600 C 382.400 160.746,382.239 159.948,382.042 159.826 C 381.706 159.618,381.494 158.589,380.947 154.500 C 380.822 153.565,380.558 152.800,380.360 152.800 C 380.162 152.800,380.000 152.170,380.000 151.400 C 380.000 150.630,379.820 150.000,379.600 150.000 C 379.380 150.000,379.200 149.471,379.200 148.824 C 379.200 148.177,379.020 147.536,378.800 147.400 C 378.580 147.264,378.400 146.533,378.400 145.776 C 378.400 145.019,378.220 144.400,378.000 144.400 C 377.780 144.400,377.600 143.860,377.600 143.200 C 377.600 142.540,377.420 142.000,377.200 142.000 C 376.980 142.000,376.800 141.460,376.800 140.800 C 376.800 140.140,376.620 139.600,376.400 139.600 C 376.180 139.600,376.000 139.161,376.000 138.624 C 376.000 138.087,375.820 137.536,375.600 137.400 C 375.380 137.264,375.200 136.830,375.200 136.436 C 375.200 136.042,374.390 133.668,373.401 131.160 C 372.411 128.652,371.601 126.375,371.601 126.100 C 371.600 125.825,371.420 125.600,371.200 125.600 C 370.980 125.600,370.800 125.240,370.800 124.800 C 370.800 124.360,370.620 124.000,370.400 124.000 C 370.180 124.000,370.000 123.705,370.000 123.344 C 370.000 122.577,365.186 112.663,364.718 112.467 C 364.543 112.393,364.400 111.988,364.400 111.567 C 364.400 111.145,364.220 110.800,364.000 110.800 C 363.780 110.800,363.600 110.522,363.600 110.183 C 363.600 109.844,363.240 109.180,362.800 108.708 C 362.360 108.236,362.000 107.613,362.000 107.325 C 362.000 107.036,361.820 106.800,361.600 106.800 C 361.380 106.800,361.200 106.440,361.200 106.000 C 361.200 105.560,361.041 105.200,360.847 105.200 C 360.652 105.200,360.390 104.885,360.264 104.500 C 359.824 103.156,353.310 92.852,352.195 91.738 C 351.883 91.426,351.313 90.637,350.928 89.985 C 350.543 89.333,350.086 88.800,349.914 88.800 C 349.741 88.800,349.600 88.622,349.600 88.405 C 349.600 88.049,348.956 87.144,347.787 85.855 C 347.560 85.605,346.934 84.770,346.396 84.000 C 345.858 83.230,345.053 82.216,344.609 81.746 C 344.164 81.276,343.260 80.232,342.600 79.426 C 341.940 78.620,340.950 77.443,340.400 76.810 C 339.850 76.177,338.950 75.071,338.400 74.353 C 337.152 72.723,327.578 63.155,325.039 61.000 C 324.002 60.120,322.285 58.590,321.224 57.600 C 318.799 55.339,317.660 54.400,317.342 54.400 C 317.206 54.400,316.803 54.076,316.447 53.681 C 316.091 53.286,315.170 52.523,314.400 51.985 C 313.630 51.448,312.478 50.512,311.841 49.904 C 311.203 49.297,310.453 48.800,310.174 48.800 C 309.895 48.800,309.607 48.665,309.533 48.500 C 309.354 48.096,303.659 43.997,302.846 43.687 C 302.491 43.551,301.851 43.116,301.425 42.720 C 300.998 42.324,300.413 42.000,300.125 42.000 C 299.836 42.000,299.600 41.820,299.600 41.600 C 299.600 41.380,299.330 41.200,299.000 41.200 C 298.670 41.200,298.400 41.020,298.400 40.800 C 298.400 40.580,298.145 40.400,297.833 40.400 C 297.522 40.400,297.207 40.265,297.133 40.100 C 296.966 39.724,294.836 38.425,293.900 38.129 C 293.515 38.007,293.200 37.748,293.200 37.553 C 293.200 37.359,292.840 37.200,292.400 37.200 C 291.960 37.200,291.600 37.020,291.600 36.800 C 291.600 36.580,291.330 36.400,291.000 36.400 C 290.670 36.400,290.400 36.264,290.400 36.098 C 290.400 35.931,289.815 35.541,289.100 35.230 C 288.385 34.919,287.710 34.548,287.600 34.407 C 287.278 33.992,275.987 28.578,273.800 27.789 C 272.700 27.392,271.629 26.918,271.420 26.734 C 271.211 26.550,270.626 26.400,270.120 26.400 C 269.614 26.400,269.200 26.220,269.200 26.000 C 269.200 25.780,268.851 25.600,268.424 25.600 C 267.997 25.600,267.536 25.420,267.400 25.200 C 267.264 24.980,266.713 24.800,266.176 24.800 C 265.639 24.800,265.200 24.620,265.200 24.400 C 265.200 24.180,264.851 24.000,264.424 24.000 C 263.997 24.000,263.536 23.820,263.400 23.600 C 263.264 23.380,262.724 23.200,262.200 23.200 C 261.676 23.200,261.136 23.020,261.000 22.800 C 260.864 22.580,260.313 22.400,259.776 22.400 C 259.239 22.400,258.800 22.220,258.800 22.000 C 258.800 21.780,258.260 21.600,257.600 21.600 C 256.940 21.600,256.400 21.420,256.400 21.200 C 256.400 20.980,255.871 20.800,255.224 20.800 C 254.577 20.800,253.936 20.620,253.800 20.400 C 253.664 20.180,253.023 20.000,252.376 20.000 C 251.729 20.000,251.200 19.820,251.200 19.600 C 251.200 19.380,250.581 19.200,249.824 19.200 C 249.067 19.200,248.336 19.020,248.200 18.800 C 248.064 18.580,247.434 18.400,246.800 18.400 C 246.166 18.400,245.536 18.220,245.400 18.000 C 245.264 17.780,244.544 17.600,243.800 17.600 C 243.056 17.600,242.336 17.420,242.200 17.200 C 242.064 16.980,241.279 16.800,240.456 16.800 C 239.633 16.800,238.789 16.638,238.580 16.441 C 238.224 16.105,237.332 15.932,233.100 15.377 C 232.165 15.255,231.040 14.998,230.600 14.807 C 230.160 14.616,228.630 14.340,227.200 14.193 C 225.770 14.046,223.340 13.755,221.800 13.548 C 214.907 12.619,191.721 11.613,191.117 12.217 M214.500 25.808 C 216.865 25.942,218.800 26.220,218.800 26.426 C 218.800 26.632,220.139 26.800,221.776 26.800 C 223.413 26.800,224.864 26.980,225.000 27.200 C 225.136 27.420,226.227 27.600,227.424 27.600 C 228.621 27.600,229.600 27.780,229.600 28.000 C 229.600 28.220,230.489 28.400,231.576 28.400 C 232.663 28.400,233.664 28.580,233.800 28.800 C 233.936 29.020,234.746 29.200,235.600 29.200 C 236.454 29.200,237.264 29.380,237.400 29.600 C 237.536 29.820,238.346 30.000,239.200 30.000 C 240.054 30.000,240.864 30.180,241.000 30.400 C 241.136 30.620,241.777 30.800,242.424 30.800 C 243.071 30.800,243.600 30.980,243.600 31.200 C 243.600 31.420,244.219 31.600,244.976 31.600 C 245.733 31.600,246.464 31.780,246.600 32.000 C 246.736 32.220,247.366 32.400,248.000 32.400 C 248.634 32.400,249.264 32.580,249.400 32.800 C 249.536 33.020,250.076 33.200,250.600 33.200 C 251.124 33.200,251.664 33.380,251.800 33.600 C 251.936 33.820,252.476 34.000,253.000 34.000 C 253.524 34.000,254.064 34.180,254.200 34.400 C 254.336 34.620,254.851 34.800,255.344 34.800 C 255.837 34.800,256.411 34.949,256.620 35.130 C 256.829 35.312,257.810 35.710,258.800 36.014 C 259.790 36.318,260.690 36.665,260.800 36.785 C 260.910 36.906,261.720 37.253,262.600 37.556 C 264.175 38.099,265.738 38.760,269.911 40.646 C 271.072 41.171,272.172 41.600,272.355 41.600 C 272.861 41.600,277.781 44.158,277.933 44.500 C 278.007 44.665,278.324 44.800,278.639 44.800 C 279.168 44.800,280.736 45.535,281.200 46.001 C 281.310 46.111,281.940 46.471,282.600 46.800 C 283.260 47.129,283.890 47.489,284.000 47.599 C 284.394 47.995,286.613 49.254,287.300 49.471 C 287.685 49.593,288.000 49.852,288.000 50.047 C 288.000 50.241,288.278 50.400,288.617 50.400 C 288.956 50.400,289.620 50.760,290.092 51.200 C 290.564 51.640,291.187 52.000,291.475 52.000 C 291.764 52.000,292.000 52.168,292.000 52.373 C 292.000 52.578,292.359 52.860,292.798 52.999 C 293.236 53.138,293.829 53.466,294.115 53.726 C 294.400 53.987,294.922 54.380,295.274 54.600 C 297.146 55.770,301.904 59.093,302.575 59.700 C 303.002 60.085,303.497 60.400,303.675 60.400 C 303.853 60.400,304.741 61.120,305.648 62.000 C 306.555 62.880,307.469 63.600,307.680 63.600 C 307.890 63.600,308.724 64.282,309.531 65.116 C 310.339 65.950,311.378 66.895,311.840 67.216 C 315.281 69.609,325.131 79.354,330.422 85.600 C 330.888 86.150,332.019 87.481,332.935 88.557 C 333.851 89.634,334.862 90.894,335.181 91.357 C 335.501 91.821,336.266 92.677,336.881 93.260 C 337.497 93.844,338.000 94.492,338.000 94.701 C 338.000 94.910,338.540 95.646,339.200 96.337 C 339.860 97.028,340.400 97.825,340.400 98.108 C 340.400 98.391,340.760 98.883,341.200 99.200 C 341.640 99.517,342.002 99.962,342.005 100.188 C 342.008 100.415,342.367 101.050,342.802 101.600 C 343.807 102.870,346.027 106.291,346.768 107.712 C 347.080 108.310,347.485 108.800,347.668 108.800 C 347.850 108.800,348.000 109.160,348.000 109.600 C 348.000 110.040,348.145 110.400,348.321 110.400 C 348.498 110.400,349.083 111.297,349.621 112.394 C 350.160 113.490,350.735 114.390,350.900 114.394 C 351.065 114.397,351.200 114.760,351.200 115.200 C 351.200 115.640,351.336 116.000,351.502 116.000 C 351.669 116.000,352.059 116.585,352.370 117.300 C 352.681 118.015,353.045 118.690,353.178 118.800 C 353.602 119.151,356.807 125.780,356.803 126.300 C 356.801 126.575,356.980 126.800,357.200 126.800 C 357.420 126.800,357.600 127.160,357.600 127.600 C 357.600 128.040,357.780 128.400,358.000 128.400 C 358.220 128.400,358.400 128.760,358.400 129.200 C 358.400 129.640,358.580 130.000,358.800 130.000 C 359.020 130.000,359.200 130.349,359.200 130.776 C 359.200 131.203,359.380 131.664,359.600 131.800 C 359.820 131.936,360.000 132.414,360.000 132.863 C 360.000 133.610,360.719 135.561,361.634 137.295 C 361.835 137.677,362.000 138.180,362.000 138.414 C 362.000 138.648,362.360 139.584,362.800 140.494 C 363.240 141.405,363.600 142.556,363.600 143.052 C 363.600 143.547,363.780 144.064,364.000 144.200 C 364.220 144.336,364.400 144.876,364.400 145.400 C 364.400 145.924,364.580 146.464,364.800 146.600 C 365.020 146.736,365.200 147.276,365.200 147.800 C 365.200 148.324,365.380 148.864,365.600 149.000 C 365.820 149.136,366.000 149.766,366.000 150.400 C 366.000 151.034,366.180 151.664,366.400 151.800 C 366.620 151.936,366.800 152.566,366.800 153.200 C 366.800 153.834,366.960 154.452,367.156 154.573 C 367.492 154.780,367.728 155.793,368.258 159.303 C 368.382 160.129,368.645 160.905,368.842 161.026 C 369.039 161.148,369.200 161.957,369.200 162.824 C 369.200 163.691,369.380 164.400,369.600 164.400 C 369.820 164.400,370.000 165.390,370.000 166.600 C 370.000 167.810,370.180 168.800,370.400 168.800 C 370.620 168.800,370.800 169.779,370.800 170.976 C 370.800 172.173,370.980 173.264,371.200 173.400 C 371.420 173.536,371.600 174.886,371.600 176.400 C 371.600 177.914,371.780 179.264,372.000 179.400 C 372.225 179.539,372.400 181.444,372.400 183.744 C 372.400 186.023,372.583 188.023,372.812 188.252 C 373.555 188.995,372.811 218.075,372.005 219.800 C 371.799 220.240,371.539 221.770,371.425 223.200 C 371.015 228.393,370.719 230.400,370.363 230.400 C 370.163 230.400,370.000 231.289,370.000 232.376 C 370.000 233.463,369.820 234.464,369.600 234.600 C 369.380 234.736,369.200 235.546,369.200 236.400 C 369.200 237.254,369.020 238.064,368.800 238.200 C 368.580 238.336,368.400 239.146,368.400 240.000 C 368.400 240.854,368.220 241.664,368.000 241.800 C 367.780 241.936,367.600 242.429,367.600 242.895 C 367.600 243.796,366.935 246.139,366.351 247.295 C 366.158 247.677,366.000 248.431,366.000 248.971 C 366.000 249.511,365.820 250.064,365.600 250.200 C 365.380 250.336,365.200 250.876,365.200 251.400 C 365.200 251.924,365.020 252.464,364.800 252.600 C 364.580 252.736,364.400 253.276,364.400 253.800 C 364.400 254.324,364.220 254.864,364.000 255.000 C 363.780 255.136,363.600 255.657,363.600 256.157 C 363.600 256.657,363.482 257.184,363.338 257.328 C 363.061 257.606,361.023 263.180,360.278 265.700 C 360.034 266.525,359.692 267.200,359.517 267.200 C 359.343 267.200,359.200 267.650,359.200 268.200 C 359.200 268.750,359.020 269.200,358.800 269.200 C 358.580 269.200,358.400 269.560,358.400 270.000 C 358.400 270.440,358.220 270.800,358.000 270.800 C 357.780 270.800,357.600 271.160,357.600 271.600 C 357.600 272.040,357.420 272.400,357.200 272.400 C 356.980 272.400,356.800 272.641,356.800 272.936 C 356.800 273.530,351.408 284.192,350.800 284.800 C 350.690 284.910,350.407 285.360,350.171 285.800 C 348.254 289.372,347.769 290.225,347.556 290.400 C 347.422 290.510,347.011 291.140,346.644 291.800 C 346.276 292.460,345.623 293.540,345.192 294.200 C 344.761 294.860,344.198 295.805,343.940 296.300 C 343.682 296.795,343.320 297.200,343.136 297.200 C 342.951 297.200,342.800 297.470,342.800 297.800 C 342.800 298.130,342.620 298.400,342.400 298.400 C 342.180 298.400,342.000 298.630,342.000 298.912 C 342.000 299.193,341.640 299.683,341.200 300.000 C 340.760 300.317,340.400 300.857,340.400 301.200 C 340.400 301.543,340.040 302.083,339.600 302.400 C 339.160 302.717,338.800 303.207,338.800 303.488 C 338.800 303.770,338.620 304.000,338.400 304.000 C 338.180 304.000,338.000 304.198,338.000 304.440 C 338.000 304.681,337.460 305.383,336.800 306.000 C 336.140 306.617,335.600 307.297,335.600 307.512 C 335.600 307.727,334.925 308.608,334.100 309.469 C 333.275 310.330,331.700 312.106,330.600 313.416 C 329.500 314.725,328.060 316.352,327.400 317.031 C 326.740 317.710,325.390 319.227,324.400 320.403 C 323.410 321.579,322.270 322.825,321.866 323.171 C 321.463 323.517,320.743 324.127,320.266 324.527 C 319.790 324.927,317.708 326.817,315.641 328.727 C 313.573 330.637,311.503 332.466,311.041 332.790 C 310.578 333.115,309.609 333.970,308.887 334.690 C 308.164 335.411,307.405 336.000,307.200 336.000 C 306.995 336.000,306.197 336.630,305.427 337.400 C 304.657 338.170,303.841 338.800,303.613 338.800 C 303.386 338.800,303.200 338.980,303.200 339.200 C 303.200 339.420,302.996 339.600,302.747 339.600 C 302.498 339.600,302.003 339.916,301.647 340.303 C 301.291 340.689,300.505 341.260,299.900 341.570 C 299.295 341.881,298.800 342.285,298.800 342.468 C 298.800 342.650,298.530 342.800,298.200 342.800 C 297.870 342.800,297.600 342.980,297.600 343.200 C 297.600 343.420,297.401 343.600,297.158 343.600 C 296.914 343.600,296.059 344.116,295.258 344.747 C 294.456 345.377,293.395 346.019,292.900 346.174 C 292.405 346.328,292.000 346.600,292.000 346.778 C 292.000 346.957,291.460 347.327,290.800 347.600 C 290.140 347.873,289.597 348.210,289.594 348.349 C 289.590 348.487,288.690 349.040,287.594 349.579 C 286.497 350.117,285.600 350.702,285.600 350.879 C 285.600 351.055,285.240 351.200,284.800 351.200 C 284.360 351.200,284.000 351.336,284.000 351.502 C 284.000 351.669,283.415 352.059,282.700 352.370 C 281.985 352.681,281.310 353.044,281.200 353.176 C 280.814 353.638,272.724 357.600,272.165 357.600 C 271.854 357.600,271.600 357.780,271.600 358.000 C 271.600 358.220,271.240 358.400,270.800 358.400 C 270.360 358.400,270.000 358.580,270.000 358.800 C 270.000 359.020,269.640 359.200,269.200 359.200 C 268.760 359.200,268.400 359.380,268.400 359.600 C 268.400 359.820,268.092 360.000,267.715 360.000 C 267.338 360.000,265.403 360.650,263.415 361.443 C 256.923 364.035,255.903 364.400,255.147 364.400 C 254.736 364.400,254.400 364.580,254.400 364.800 C 254.400 365.020,253.871 365.200,253.224 365.200 C 252.577 365.200,251.936 365.380,251.800 365.600 C 251.664 365.820,251.124 366.000,250.600 366.000 C 250.076 366.000,249.536 366.180,249.400 366.400 C 249.264 366.620,248.711 366.800,248.171 366.800 C 247.631 366.800,246.877 366.958,246.495 367.151 C 245.339 367.735,242.996 368.400,242.095 368.400 C 241.629 368.400,241.136 368.580,241.000 368.800 C 240.864 369.020,240.054 369.200,239.200 369.200 C 238.346 369.200,237.536 369.380,237.400 369.600 C 237.264 369.820,236.454 370.000,235.600 370.000 C 234.746 370.000,233.936 370.180,233.800 370.400 C 233.664 370.620,232.663 370.800,231.576 370.800 C 230.489 370.800,229.600 370.980,229.600 371.200 C 229.600 371.420,228.711 371.600,227.624 371.600 C 226.537 371.600,225.536 371.780,225.400 372.000 C 225.264 372.220,223.824 372.400,222.200 372.400 C 220.576 372.400,219.136 372.580,219.000 372.800 C 218.861 373.025,216.937 373.200,214.600 373.200 C 212.263 373.200,210.339 373.375,210.200 373.600 C 209.879 374.120,187.907 374.145,187.380 373.626 C 187.171 373.420,185.200 373.155,183.000 373.038 C 176.105 372.669,173.013 372.351,172.620 371.969 C 172.411 371.766,171.387 371.600,170.344 371.600 C 169.301 371.600,168.336 371.420,168.200 371.200 C 168.064 370.980,167.074 370.800,166.000 370.800 C 164.926 370.800,163.936 370.620,163.800 370.400 C 163.664 370.180,162.843 370.000,161.976 370.000 C 161.109 370.000,160.400 369.838,160.400 369.640 C 160.400 369.442,159.635 369.181,158.700 369.059 C 155.337 368.620,154.000 368.306,154.000 367.956 C 154.000 367.760,153.381 367.600,152.624 367.600 C 151.867 367.600,151.136 367.420,151.000 367.200 C 150.864 366.980,150.234 366.800,149.600 366.800 C 148.966 366.800,148.336 366.620,148.200 366.400 C 148.064 366.180,147.524 366.000,147.000 366.000 C 146.476 366.000,145.936 365.820,145.800 365.600 C 145.664 365.380,145.201 365.200,144.771 365.200 C 144.341 365.200,143.677 365.042,143.295 364.849 C 142.913 364.656,141.880 364.281,141.000 364.016 C 140.120 363.751,138.860 363.293,138.200 362.999 C 134.985 361.567,130.696 360.000,129.990 360.000 C 129.555 360.000,129.200 359.820,129.200 359.600 C 129.200 359.380,128.840 359.200,128.400 359.200 C 127.960 359.200,127.600 359.020,127.600 358.800 C 127.600 358.580,127.240 358.400,126.800 358.400 C 126.360 358.400,126.000 358.220,126.000 358.000 C 126.000 357.780,125.755 357.600,125.456 357.600 C 124.799 357.600,119.855 355.124,119.667 354.700 C 119.593 354.535,119.188 354.400,118.767 354.400 C 118.345 354.400,117.999 354.265,117.999 354.100 C 117.998 353.935,117.008 353.350,115.800 352.800 C 114.592 352.250,113.602 351.665,113.601 351.500 C 113.601 351.335,113.240 351.200,112.800 351.200 C 112.360 351.200,112.000 351.042,112.000 350.849 C 112.000 350.655,111.460 350.273,110.800 350.000 C 110.140 349.727,109.600 349.345,109.600 349.151 C 109.600 348.958,109.426 348.800,109.212 348.800 C 108.821 348.800,104.409 346.086,101.335 343.955 C 100.419 343.320,99.513 342.800,99.323 342.800 C 99.132 342.800,98.717 342.440,98.400 342.000 C 98.083 341.560,97.591 341.200,97.308 341.200 C 97.025 341.200,96.228 340.660,95.537 340.000 C 94.846 339.340,94.110 338.800,93.901 338.800 C 93.692 338.800,93.044 338.304,92.460 337.699 C 91.877 337.093,90.770 336.123,90.000 335.544 C 89.230 334.965,88.218 334.155,87.751 333.745 C 87.284 333.335,85.857 332.100,84.579 331.000 C 83.301 329.900,81.399 328.190,80.353 327.200 C 79.307 326.210,77.674 324.678,76.725 323.795 C 75.158 322.336,70.430 317.235,67.400 313.734 C 66.740 312.971,65.435 311.554,64.500 310.584 C 63.565 309.614,62.800 308.636,62.800 308.411 C 62.800 308.185,62.620 308.000,62.400 308.000 C 62.180 308.000,62.000 307.802,62.000 307.560 C 62.000 307.319,61.460 306.617,60.800 306.000 C 60.140 305.383,59.600 304.769,59.600 304.635 C 59.600 304.373,56.910 300.441,55.097 298.053 C 54.491 297.254,53.885 296.285,53.751 295.900 C 53.616 295.515,53.348 295.200,53.153 295.200 C 52.959 295.200,52.800 294.964,52.800 294.675 C 52.800 294.387,52.485 293.802,52.100 293.375 C 51.715 292.949,51.145 292.105,50.832 291.500 C 50.520 290.895,50.115 290.400,49.932 290.400 C 49.750 290.400,49.600 290.040,49.600 289.600 C 49.600 289.160,49.442 288.800,49.249 288.800 C 49.055 288.800,48.673 288.260,48.400 287.600 C 48.127 286.940,47.745 286.400,47.551 286.400 C 47.358 286.400,47.200 286.040,47.200 285.600 C 47.200 285.160,47.020 284.800,46.800 284.800 C 46.580 284.800,46.400 284.440,46.400 284.000 C 46.400 283.560,46.220 283.200,46.000 283.200 C 45.780 283.200,45.596 282.975,45.591 282.700 C 45.586 282.425,45.230 281.750,44.800 281.200 C 44.370 280.650,44.014 279.885,44.009 279.500 C 44.004 279.115,43.820 278.800,43.600 278.800 C 43.380 278.800,43.200 278.440,43.200 278.000 C 43.200 277.560,43.020 277.200,42.800 277.200 C 42.580 277.200,42.400 276.840,42.400 276.400 C 42.400 275.960,42.240 275.600,42.043 275.600 C 41.847 275.600,41.574 275.152,41.437 274.604 C 41.299 274.057,40.670 272.482,40.038 271.104 C 37.828 266.289,37.216 264.839,36.713 263.225 C 36.433 262.331,36.069 261.600,35.903 261.600 C 35.736 261.600,35.600 261.238,35.600 260.795 C 35.600 260.352,35.420 259.632,35.200 259.195 C 34.980 258.758,34.620 258.042,34.400 257.605 C 34.180 257.168,34.000 256.459,34.000 256.029 C 34.000 255.599,33.820 255.136,33.600 255.000 C 33.380 254.864,33.200 254.324,33.200 253.800 C 33.200 253.276,33.020 252.736,32.800 252.600 C 32.580 252.464,32.400 251.924,32.400 251.400 C 32.400 250.876,32.220 250.336,32.000 250.200 C 31.780 250.064,31.600 249.434,31.600 248.800 C 31.600 248.166,31.420 247.536,31.200 247.400 C 30.980 247.264,30.800 246.533,30.800 245.776 C 30.800 245.019,30.620 244.400,30.400 244.400 C 30.180 244.400,30.000 243.871,30.000 243.224 C 30.000 242.577,29.820 241.936,29.600 241.800 C 29.380 241.664,29.200 240.753,29.200 239.776 C 29.200 238.799,29.020 238.000,28.800 238.000 C 28.580 238.000,28.400 237.291,28.400 236.424 C 28.400 235.557,28.220 234.736,28.000 234.600 C 27.780 234.464,27.600 233.463,27.600 232.376 C 27.600 231.289,27.420 230.400,27.200 230.400 C 26.980 230.400,26.800 229.421,26.800 228.224 C 26.800 227.027,26.620 225.936,26.400 225.800 C 26.180 225.664,26.000 224.228,26.000 222.610 C 26.000 220.611,25.840 219.613,25.500 219.500 C 24.769 219.256,24.769 179.944,25.500 179.700 C 25.840 179.587,26.000 178.584,26.000 176.567 C 26.000 174.856,26.169 173.600,26.400 173.600 C 26.620 173.600,26.800 172.621,26.800 171.424 C 26.800 170.227,26.980 169.136,27.200 169.000 C 27.420 168.864,27.600 167.773,27.600 166.576 C 27.600 165.379,27.780 164.400,28.000 164.400 C 28.220 164.400,28.400 163.691,28.400 162.824 C 28.400 161.957,28.580 161.136,28.800 161.000 C 29.020 160.864,29.200 160.144,29.200 159.400 C 29.200 158.656,29.380 157.936,29.600 157.800 C 29.820 157.664,30.000 156.933,30.000 156.176 C 30.000 155.419,30.180 154.800,30.400 154.800 C 30.620 154.800,30.800 154.170,30.800 153.400 C 30.800 152.630,30.980 152.000,31.200 152.000 C 31.420 152.000,31.600 151.381,31.600 150.624 C 31.600 149.867,31.780 149.136,32.000 149.000 C 32.220 148.864,32.400 148.324,32.400 147.800 C 32.400 147.276,32.580 146.736,32.800 146.600 C 33.020 146.464,33.200 145.924,33.200 145.400 C 33.200 144.876,33.380 144.336,33.600 144.200 C 33.820 144.064,34.000 143.423,34.000 142.776 C 34.000 142.129,34.180 141.600,34.400 141.600 C 34.620 141.600,34.800 141.328,34.800 140.995 C 34.800 140.662,34.959 140.077,35.153 139.695 C 35.348 139.313,35.729 138.460,36.000 137.800 C 36.271 137.140,36.652 136.287,36.847 135.905 C 37.041 135.523,37.200 134.955,37.200 134.643 C 37.200 134.331,37.541 133.384,37.958 132.538 C 39.927 128.544,41.600 124.703,41.600 124.179 C 41.600 123.860,41.780 123.600,42.000 123.600 C 42.220 123.600,42.400 123.240,42.400 122.800 C 42.400 122.360,42.580 122.000,42.800 122.000 C 43.020 122.000,43.200 121.640,43.200 121.200 C 43.200 120.760,43.380 120.400,43.600 120.400 C 43.820 120.400,44.000 120.040,44.000 119.600 C 44.000 119.160,44.180 118.800,44.400 118.800 C 44.620 118.800,44.800 118.440,44.800 118.000 C 44.800 117.560,44.980 117.200,45.200 117.200 C 45.420 117.200,45.600 116.930,45.600 116.600 C 45.600 116.270,45.780 116.000,46.000 116.000 C 46.220 116.000,46.400 115.640,46.400 115.200 C 46.400 114.760,46.559 114.400,46.753 114.400 C 46.948 114.400,47.207 114.085,47.329 113.700 C 47.625 112.764,48.924 110.634,49.300 110.467 C 49.465 110.393,49.600 110.028,49.600 109.655 C 49.600 109.282,49.960 108.717,50.400 108.400 C 50.840 108.083,51.200 107.670,51.200 107.482 C 51.200 107.294,52.550 105.152,54.200 102.722 C 55.850 100.292,57.201 98.190,57.202 98.052 C 57.203 97.913,57.743 97.225,58.402 96.522 C 59.061 95.819,59.600 95.036,59.600 94.782 C 59.600 94.529,60.103 93.844,60.719 93.260 C 61.334 92.677,62.119 91.791,62.462 91.291 C 62.806 90.792,63.743 89.675,64.544 88.809 C 65.345 87.943,66.000 87.131,66.000 87.004 C 66.000 86.877,66.585 86.177,67.300 85.447 C 68.015 84.718,69.950 82.619,71.600 80.784 C 75.234 76.741,75.453 76.522,79.376 73.000 C 81.092 71.460,83.059 69.657,83.748 68.993 C 84.832 67.947,87.635 65.585,90.147 63.600 C 90.564 63.270,91.506 62.415,92.240 61.700 C 92.973 60.985,93.761 60.400,93.990 60.400 C 94.220 60.400,94.972 59.860,95.663 59.200 C 96.354 58.540,97.072 58.000,97.258 58.000 C 97.675 58.000,101.748 55.129,101.933 54.705 C 102.007 54.537,102.244 54.400,102.461 54.400 C 102.678 54.400,103.641 53.860,104.600 53.200 C 105.559 52.540,106.445 52.000,106.567 52.000 C 106.690 52.000,107.158 51.685,107.607 51.300 C 108.605 50.444,111.942 48.449,112.900 48.136 C 113.285 48.010,113.600 47.748,113.600 47.553 C 113.600 47.359,113.960 47.200,114.400 47.200 C 114.840 47.200,115.201 47.065,115.201 46.900 C 115.202 46.735,116.192 46.150,117.400 45.600 C 118.608 45.050,119.598 44.465,119.599 44.300 C 119.599 44.135,119.960 44.000,120.400 44.000 C 120.840 44.000,121.200 43.820,121.200 43.600 C 121.200 43.380,121.560 43.200,122.000 43.200 C 122.440 43.200,122.800 43.020,122.800 42.800 C 122.800 42.580,123.160 42.400,123.600 42.400 C 124.040 42.400,124.400 42.220,124.400 42.000 C 124.400 41.780,124.657 41.600,124.971 41.600 C 125.285 41.600,126.860 41.000,128.471 40.267 C 130.082 39.534,132.480 38.527,133.800 38.028 C 138.224 36.358,139.715 35.753,140.895 35.153 C 141.277 34.959,141.941 34.800,142.371 34.800 C 142.801 34.800,143.264 34.620,143.400 34.400 C 143.536 34.180,144.076 34.000,144.600 34.000 C 145.124 34.000,145.664 33.820,145.800 33.600 C 145.936 33.380,146.476 33.200,147.000 33.200 C 147.524 33.200,148.064 33.020,148.200 32.800 C 148.336 32.580,149.067 32.400,149.824 32.400 C 150.581 32.400,151.200 32.220,151.200 32.000 C 151.200 31.780,151.830 31.600,152.600 31.600 C 153.370 31.600,154.000 31.420,154.000 31.200 C 154.000 30.980,154.619 30.800,155.376 30.800 C 156.133 30.800,156.864 30.620,157.000 30.400 C 157.136 30.180,157.856 30.000,158.600 30.000 C 159.344 30.000,160.064 29.820,160.200 29.600 C 160.336 29.380,161.157 29.200,162.024 29.200 C 162.891 29.200,163.600 29.020,163.600 28.800 C 163.600 28.580,164.579 28.400,165.776 28.400 C 166.973 28.400,168.064 28.220,168.200 28.000 C 168.336 27.780,169.427 27.600,170.624 27.600 C 171.821 27.600,172.800 27.420,172.800 27.200 C 172.800 26.969,174.059 26.800,175.776 26.800 C 177.413 26.800,178.864 26.620,179.000 26.400 C 179.138 26.177,180.996 26.000,183.200 26.000 C 185.480 26.000,187.261 25.826,187.407 25.588 C 187.668 25.166,205.741 25.313,214.500 25.808 M127.142 110.369 C 122.930 111.721,116.916 116.146,116.192 118.424 C 116.057 118.851,115.778 119.200,115.573 119.200 C 115.368 119.200,115.200 119.560,115.200 120.000 C 115.200 120.440,115.020 120.800,114.800 120.800 C 114.580 120.800,114.400 121.130,114.400 121.533 C 114.400 121.937,114.271 122.395,114.114 122.553 C 113.007 123.659,112.209 135.587,113.200 136.200 C 113.420 136.336,113.600 136.794,113.600 137.217 C 113.600 138.249,115.678 142.488,116.745 143.633 C 117.215 144.138,117.600 144.710,117.600 144.904 C 117.600 145.360,118.264 145.994,120.000 147.194 C 120.770 147.726,121.490 148.284,121.600 148.434 C 122.021 149.009,124.861 150.400,125.612 150.400 C 126.045 150.400,126.400 150.580,126.400 150.800 C 126.400 151.020,127.019 151.200,127.776 151.200 C 128.533 151.200,129.264 151.380,129.400 151.600 C 129.539 151.825,131.463 152.000,133.800 152.000 C 136.137 152.000,138.061 151.825,138.200 151.600 C 138.336 151.380,139.157 151.200,140.024 151.200 C 140.891 151.200,141.600 151.059,141.600 150.887 C 141.600 150.715,142.401 150.338,143.381 150.049 C 144.361 149.760,145.669 149.045,146.288 148.461 C 146.907 147.878,147.862 147.168,148.410 146.884 C 148.958 146.601,149.855 145.701,150.403 144.884 C 150.951 144.068,151.715 143.051,152.100 142.625 C 152.485 142.198,152.800 141.613,152.800 141.325 C 152.800 141.036,152.980 140.800,153.200 140.800 C 153.420 140.800,153.600 140.528,153.600 140.195 C 153.600 139.862,153.758 139.277,153.951 138.895 C 155.704 135.424,155.704 126.176,153.951 122.705 C 153.758 122.323,153.600 121.738,153.600 121.405 C 153.600 121.072,153.462 120.800,153.294 120.800 C 153.126 120.800,152.676 120.079,152.294 119.197 C 151.281 116.857,147.346 113.182,144.142 111.582 L 141.400 110.213 134.800 110.121 C 131.170 110.070,127.724 110.182,127.142 110.369 M242.200 166.400 C 242.064 166.620,240.984 166.800,239.800 166.800 C 238.616 166.800,237.536 166.980,237.400 167.200 C 237.264 167.420,236.621 167.600,235.971 167.600 C 235.321 167.600,234.477 167.759,234.095 167.953 C 233.713 168.148,232.950 168.485,232.400 168.703 C 230.895 169.298,227.428 170.961,227.200 171.195 C 227.090 171.309,226.505 171.656,225.900 171.968 C 225.295 172.280,224.800 172.685,224.800 172.868 C 224.800 173.050,224.538 173.200,224.218 173.200 C 223.594 173.200,215.400 181.132,214.301 182.800 C 213.676 183.748,213.641 183.422,213.621 176.500 L 213.600 169.200 193.799 169.200 L 173.997 169.200 174.099 229.300 L 174.200 289.400 193.800 289.400 L 213.400 289.400 213.502 252.700 C 213.569 228.697,213.742 216.000,214.002 216.000 C 214.221 216.000,214.400 215.280,214.400 214.400 C 214.400 213.520,214.580 212.800,214.800 212.800 C 215.020 212.800,215.200 212.547,215.200 212.238 C 215.200 211.572,216.868 208.259,217.300 208.067 C 217.465 207.993,217.600 207.708,217.600 207.432 C 217.600 206.509,224.380 200.400,225.405 200.400 C 225.732 200.400,226.000 200.220,226.000 200.000 C 226.000 199.780,226.439 199.600,226.976 199.600 C 227.513 199.600,228.064 199.420,228.200 199.200 C 228.336 198.980,228.977 198.800,229.624 198.800 C 230.271 198.800,230.800 198.620,230.800 198.400 C 230.800 198.163,232.267 198.000,234.400 198.000 C 236.533 198.000,238.000 198.163,238.000 198.400 C 238.000 198.620,238.720 198.800,239.600 198.800 C 240.480 198.800,241.200 198.980,241.200 199.200 C 241.200 199.420,241.472 199.600,241.805 199.600 C 242.380 199.600,243.969 200.347,244.400 200.819 C 244.510 200.940,245.185 201.447,245.899 201.946 C 247.692 203.198,251.200 208.404,251.200 209.812 C 251.200 210.135,251.380 210.400,251.600 210.400 C 251.820 210.400,252.000 210.940,252.000 211.600 C 252.000 212.260,252.180 212.800,252.400 212.800 C 252.620 212.800,252.800 213.754,252.800 214.920 C 252.800 216.086,252.979 217.219,253.198 217.438 C 253.454 217.694,253.632 230.565,253.698 253.618 L 253.800 289.400 273.500 289.504 L 293.200 289.608 293.200 250.627 C 293.200 225.072,293.062 211.562,292.800 211.400 C 292.580 211.264,292.400 209.813,292.400 208.176 C 292.400 206.539,292.246 205.200,292.058 205.200 C 291.870 205.200,291.610 203.985,291.480 202.500 C 291.257 199.953,290.055 195.438,289.191 193.905 C 288.976 193.523,288.800 193.004,288.800 192.751 C 288.800 192.036,285.494 185.600,285.127 185.600 C 284.947 185.600,284.800 185.364,284.800 185.075 C 284.800 184.787,284.440 184.164,284.000 183.692 C 283.560 183.220,283.200 182.706,283.200 182.550 C 283.200 181.816,275.981 174.907,273.976 173.722 C 273.329 173.340,272.800 172.920,272.800 172.788 C 272.800 172.657,272.170 172.302,271.400 172.000 C 270.630 171.698,270.000 171.304,270.000 171.125 C 270.000 170.946,269.735 170.800,269.412 170.800 C 269.089 170.800,268.183 170.440,267.400 170.000 C 266.617 169.560,265.621 169.200,265.188 169.200 C 264.755 169.200,264.400 169.020,264.400 168.800 C 264.400 168.580,263.961 168.400,263.424 168.400 C 262.887 168.400,262.336 168.220,262.200 168.000 C 262.064 167.780,261.243 167.600,260.376 167.600 C 259.509 167.600,258.800 167.420,258.800 167.200 C 258.800 166.980,257.821 166.800,256.624 166.800 C 255.427 166.800,254.336 166.620,254.200 166.400 C 254.054 166.163,251.604 166.000,248.200 166.000 C 244.796 166.000,242.346 166.163,242.200 166.400 M112.986 169.696 C 112.881 169.973,112.841 197.020,112.897 229.800 L 113.000 289.400 132.800 289.400 L 152.600 289.400 152.600 229.400 L 152.600 169.400 132.889 169.296 C 117.333 169.214,113.137 169.299,112.986 169.696 " stroke="none" fill="#89cff0" fill-rule="evenodd"></path><path id="path4" d="" stroke="none" fill="#00ffff" fill-rule="evenodd"></path></g></svg>