<svg id="svg" version="1.1" width="400" height="400" viewBox="0 0 400 400" xmlns="http://www.w3.org/2000/svg" xmlns:xlink="http://www.w3.org/1999/xlink" ><g id="svgg"><path id="path0" d="" stroke="none" fill="#ffffff" fill-rule="evenodd"></path><path id="path1" d="" stroke="none" fill="#0000ff" fill-rule="evenodd"></path><path id="path2" d="" stroke="none" fill="#3399ff" fill-rule="evenodd"></path><path id="path3" d="M178.802 0.276 C 176.933 0.364,175.232 0.608,175.022 0.818 C 174.812 1.028,173.427 1.200,171.944 1.200 C 170.461 1.200,169.136 1.380,169.000 1.600 C 168.864 1.820,167.899 2.000,166.856 2.000 C 165.813 2.000,164.789 2.163,164.580 2.361 C 164.371 2.560,163.345 2.830,162.300 2.961 C 157.519 3.562,156.800 3.703,156.800 4.040 C 156.800 4.238,156.080 4.400,155.200 4.400 C 154.320 4.400,153.600 4.580,153.600 4.800 C 153.600 5.020,152.790 5.200,151.800 5.200 C 150.810 5.200,150.000 5.380,150.000 5.600 C 150.000 5.820,149.370 6.000,148.600 6.000 C 147.830 6.000,147.200 6.180,147.200 6.400 C 147.200 6.620,146.570 6.800,145.800 6.800 C 145.030 6.800,144.400 6.980,144.400 7.200 C 144.400 7.420,143.871 7.600,143.224 7.600 C 142.577 7.600,141.936 7.780,141.800 8.000 C 141.664 8.220,141.023 8.400,140.376 8.400 C 139.729 8.400,139.200 8.580,139.200 8.800 C 139.200 9.020,138.748 9.200,138.195 9.200 C 137.642 9.200,136.877 9.359,136.495 9.553 C 136.113 9.747,134.630 10.273,133.200 10.722 C 129.686 11.825,126.643 12.949,126.400 13.235 C 126.290 13.364,125.345 13.718,124.300 14.022 C 123.255 14.326,122.400 14.715,122.400 14.887 C 122.400 15.059,122.121 15.200,121.781 15.200 C 121.440 15.200,120.416 15.560,119.506 16.000 C 118.595 16.440,117.614 16.800,117.325 16.800 C 117.036 16.800,116.800 16.980,116.800 17.200 C 116.800 17.420,116.440 17.600,116.000 17.600 C 115.560 17.600,115.200 17.780,115.200 18.000 C 115.200 18.220,114.996 18.400,114.746 18.400 C 114.035 18.400,107.600 21.708,107.600 22.073 C 107.600 22.253,107.347 22.400,107.038 22.400 C 106.372 22.400,103.059 24.068,102.867 24.500 C 102.793 24.665,102.388 24.800,101.967 24.800 C 101.545 24.800,101.200 24.980,101.200 25.200 C 101.200 25.420,100.930 25.600,100.600 25.600 C 100.270 25.600,100.000 25.780,100.000 26.000 C 100.000 26.220,99.730 26.400,99.400 26.400 C 99.070 26.400,98.800 26.580,98.800 26.800 C 98.800 27.020,98.526 27.200,98.192 27.200 C 97.858 27.200,96.871 27.650,96.000 28.200 C 95.129 28.750,94.232 29.200,94.008 29.200 C 93.784 29.200,93.600 29.358,93.600 29.551 C 93.600 29.745,93.060 30.127,92.400 30.400 C 91.740 30.673,91.200 31.033,91.200 31.200 C 91.200 31.367,90.660 31.727,90.000 32.000 C 89.340 32.273,88.800 32.655,88.800 32.849 C 88.800 33.042,88.575 33.200,88.300 33.201 C 88.025 33.201,87.170 33.741,86.400 34.400 C 85.630 35.059,84.841 35.599,84.647 35.599 C 84.453 35.600,84.003 35.916,83.647 36.303 C 83.291 36.689,82.505 37.260,81.900 37.570 C 81.295 37.881,80.800 38.285,80.800 38.468 C 80.800 38.650,80.620 38.800,80.401 38.800 C 80.181 38.800,79.334 39.430,78.518 40.200 C 77.701 40.970,76.910 41.600,76.759 41.600 C 76.608 41.600,75.907 42.140,75.200 42.800 C 74.493 43.460,73.799 44.003,73.658 44.006 C 73.516 44.010,72.836 44.505,72.147 45.106 C 71.457 45.708,70.021 46.920,68.956 47.800 C 66.413 49.900,49.857 66.451,47.800 68.950 C 46.920 70.019,45.708 71.457,45.106 72.147 C 44.505 72.836,44.010 73.516,44.006 73.658 C 44.003 73.799,43.460 74.493,42.800 75.200 C 42.140 75.907,41.600 76.608,41.600 76.759 C 41.600 76.910,40.970 77.701,40.200 78.518 C 39.430 79.334,38.800 80.181,38.800 80.401 C 38.800 80.620,38.650 80.800,38.468 80.800 C 38.285 80.800,37.881 81.295,37.570 81.900 C 37.260 82.505,36.689 83.291,36.303 83.647 C 35.916 84.003,35.600 84.453,35.599 84.647 C 35.599 84.841,35.059 85.630,34.400 86.400 C 33.741 87.170,33.201 87.943,33.201 88.117 C 33.200 88.291,32.840 88.820,32.400 89.292 C 31.960 89.764,31.600 90.387,31.600 90.675 C 31.600 90.964,31.442 91.200,31.249 91.200 C 31.055 91.200,30.673 91.740,30.400 92.400 C 30.127 93.060,29.745 93.600,29.551 93.600 C 29.358 93.600,29.200 93.784,29.200 94.008 C 29.200 94.232,28.750 95.129,28.200 96.000 C 27.650 96.871,27.200 97.858,27.200 98.192 C 27.200 98.526,27.020 98.800,26.800 98.800 C 26.580 98.800,26.400 99.070,26.400 99.400 C 26.400 99.730,26.220 100.000,26.000 100.000 C 25.780 100.000,25.600 100.270,25.600 100.600 C 25.600 100.930,25.420 101.200,25.200 101.200 C 24.980 101.200,24.800 101.545,24.800 101.967 C 24.800 102.388,24.665 102.793,24.500 102.867 C 24.223 102.990,23.242 104.793,19.749 111.600 C 19.015 113.030,18.412 114.425,18.407 114.700 C 18.403 114.975,18.220 115.200,18.000 115.200 C 17.780 115.200,17.600 115.560,17.600 116.000 C 17.600 116.440,17.420 116.800,17.200 116.800 C 16.980 116.800,16.800 117.042,16.800 117.339 C 16.800 117.635,16.550 118.400,16.244 119.039 C 15.234 121.147,14.474 122.978,13.935 124.600 C 13.643 125.480,13.313 126.290,13.202 126.400 C 12.940 126.659,11.756 129.905,10.722 133.200 C 10.273 134.630,9.747 136.113,9.553 136.495 C 9.359 136.877,9.200 137.642,9.200 138.195 C 9.200 138.748,9.020 139.200,8.800 139.200 C 8.580 139.200,8.400 139.729,8.400 140.376 C 8.400 141.023,8.220 141.664,8.000 141.800 C 7.780 141.936,7.600 142.577,7.600 143.224 C 7.600 143.871,7.420 144.400,7.200 144.400 C 6.980 144.400,6.800 145.030,6.800 145.800 C 6.800 146.570,6.620 147.200,6.400 147.200 C 6.180 147.200,6.000 147.830,6.000 148.600 C 6.000 149.370,5.820 150.000,5.600 150.000 C 5.380 150.000,5.200 150.810,5.200 151.800 C 5.200 152.790,5.020 153.600,4.800 153.600 C 4.580 153.600,4.400 154.320,4.400 155.200 C 4.400 156.080,4.238 156.800,4.040 156.800 C 3.698 156.800,3.533 157.633,2.969 162.200 C 2.833 163.300,2.560 164.371,2.361 164.580 C 2.163 164.789,2.000 165.813,2.000 166.856 C 2.000 167.899,1.820 168.864,1.600 169.000 C 1.380 169.136,1.200 170.461,1.200 171.944 C 1.200 173.567,1.001 174.839,0.700 175.140 C -0.029 175.869,-0.029 224.131,0.700 224.860 C 1.001 225.161,1.200 226.433,1.200 228.056 C 1.200 229.539,1.380 230.864,1.600 231.000 C 1.820 231.136,2.000 232.126,2.000 233.200 C 2.000 234.274,2.180 235.264,2.400 235.400 C 2.620 235.536,2.800 236.526,2.800 237.600 C 2.800 238.674,2.980 239.664,3.200 239.800 C 3.420 239.936,3.600 240.757,3.600 241.624 C 3.600 242.491,3.780 243.200,4.000 243.200 C 4.220 243.200,4.400 243.909,4.400 244.776 C 4.400 245.643,4.580 246.464,4.800 246.600 C 5.020 246.736,5.200 247.546,5.200 248.400 C 5.200 249.254,5.380 250.064,5.600 250.200 C 5.820 250.336,6.000 250.977,6.000 251.624 C 6.000 252.271,6.180 252.800,6.400 252.800 C 6.620 252.800,6.800 253.430,6.800 254.200 C 6.800 254.970,6.980 255.600,7.200 255.600 C 7.420 255.600,7.600 256.230,7.600 257.000 C 7.600 257.770,7.780 258.400,8.000 258.400 C 8.220 258.400,8.400 258.904,8.400 259.520 C 8.400 260.136,8.549 260.811,8.730 261.020 C 8.912 261.229,9.295 262.210,9.581 263.200 C 10.934 267.882,12.968 273.574,14.047 275.695 C 14.241 276.077,14.400 276.662,14.400 276.995 C 14.400 277.328,14.580 277.600,14.800 277.600 C 15.020 277.600,15.200 277.888,15.200 278.239 C 15.200 279.316,21.537 292.400,22.058 292.400 C 22.246 292.400,22.400 292.653,22.400 292.962 C 22.400 293.628,24.068 296.941,24.500 297.133 C 24.665 297.207,24.800 297.612,24.800 298.033 C 24.800 298.455,24.980 298.800,25.200 298.800 C 25.420 298.800,25.600 299.036,25.600 299.325 C 25.600 299.613,25.960 300.236,26.400 300.708 C 26.840 301.180,27.200 301.758,27.200 301.991 C 27.200 302.225,27.650 303.129,28.200 304.000 C 28.750 304.871,29.200 305.768,29.200 305.992 C 29.200 306.216,29.358 306.400,29.551 306.400 C 29.745 306.400,30.127 306.940,30.400 307.600 C 30.673 308.260,31.055 308.800,31.249 308.800 C 31.442 308.800,31.600 309.036,31.600 309.325 C 31.600 309.613,31.960 310.236,32.400 310.708 C 32.840 311.180,33.200 311.709,33.201 311.883 C 33.201 312.057,33.741 312.830,34.400 313.600 C 35.059 314.370,35.599 315.159,35.599 315.353 C 35.600 315.547,35.916 315.997,36.303 316.353 C 36.689 316.709,37.260 317.495,37.570 318.100 C 37.881 318.705,38.285 319.200,38.468 319.200 C 38.650 319.200,38.800 319.382,38.800 319.603 C 38.800 319.959,40.000 321.480,41.500 323.027 C 41.775 323.311,42.000 323.670,42.000 323.825 C 42.000 323.979,42.315 324.398,42.700 324.754 C 43.085 325.110,43.842 326.031,44.382 326.801 C 45.525 328.429,45.732 328.681,47.600 330.724 C 48.370 331.566,49.450 332.862,50.000 333.604 C 50.928 334.855,55.711 339.746,58.849 342.650 C 59.592 343.338,61.190 344.961,62.400 346.257 C 63.610 347.553,65.402 349.241,66.382 350.007 C 67.361 350.773,68.758 351.980,69.484 352.689 C 70.779 353.953,73.676 356.237,76.952 358.577 C 77.859 359.224,78.891 360.079,79.247 360.477 C 79.603 360.875,80.070 361.200,80.285 361.200 C 80.500 361.200,81.002 361.560,81.400 362.000 C 81.798 362.440,82.366 362.800,82.662 362.800 C 82.958 362.800,83.200 362.941,83.200 363.114 C 83.200 363.286,83.695 363.721,84.300 364.079 C 84.905 364.437,85.940 365.196,86.600 365.765 C 87.260 366.334,87.943 366.799,88.117 366.800 C 88.291 366.800,88.820 367.160,89.292 367.600 C 89.764 368.040,90.387 368.400,90.675 368.400 C 90.964 368.400,91.200 368.558,91.200 368.751 C 91.200 368.945,91.740 369.327,92.400 369.600 C 93.060 369.873,93.600 370.255,93.600 370.449 C 93.600 370.642,93.762 370.800,93.959 370.800 C 94.157 370.800,95.514 371.526,96.975 372.414 C 98.436 373.302,100.300 374.337,101.116 374.714 C 101.932 375.091,102.690 375.490,102.800 375.600 C 103.262 376.062,106.521 377.600,107.038 377.600 C 107.347 377.600,107.600 377.754,107.600 377.942 C 107.600 378.335,113.947 381.608,114.700 381.603 C 114.975 381.601,115.200 381.780,115.200 382.000 C 115.200 382.220,115.452 382.400,115.759 382.400 C 116.067 382.400,117.345 382.940,118.600 383.600 C 119.855 384.260,121.223 384.800,121.641 384.800 C 122.058 384.800,122.400 384.980,122.400 385.200 C 122.400 385.420,122.749 385.600,123.176 385.600 C 123.603 385.600,124.064 385.780,124.200 386.000 C 124.336 386.220,124.887 386.400,125.424 386.400 C 125.961 386.400,126.400 386.580,126.400 386.800 C 126.400 387.020,126.672 387.200,127.005 387.200 C 127.338 387.200,128.013 387.408,128.505 387.662 C 130.384 388.634,130.807 388.800,131.400 388.800 C 131.736 388.800,132.323 388.976,132.705 389.191 C 133.908 389.868,139.574 391.600,140.585 391.600 C 141.117 391.600,141.664 391.780,141.800 392.000 C 141.936 392.220,142.577 392.400,143.224 392.400 C 143.871 392.400,144.400 392.580,144.400 392.800 C 144.400 393.020,145.030 393.200,145.800 393.200 C 146.570 393.200,147.200 393.380,147.200 393.600 C 147.200 393.820,147.830 394.000,148.600 394.000 C 149.370 394.000,150.000 394.180,150.000 394.400 C 150.000 394.620,150.709 394.800,151.576 394.800 C 152.443 394.800,153.264 394.980,153.400 395.200 C 153.536 395.420,154.357 395.600,155.224 395.600 C 156.091 395.600,156.800 395.780,156.800 396.000 C 156.800 396.220,157.509 396.400,158.376 396.400 C 159.243 396.400,160.064 396.580,160.200 396.800 C 160.336 397.020,161.326 397.200,162.400 397.200 C 163.474 397.200,164.464 397.380,164.600 397.600 C 164.736 397.820,165.726 398.000,166.800 398.000 C 167.874 398.000,168.864 398.180,169.000 398.400 C 169.136 398.620,170.461 398.800,171.944 398.800 C 173.567 398.800,174.839 398.999,175.140 399.300 C 175.529 399.689,181.045 399.800,200.000 399.800 C 218.955 399.800,224.471 399.689,224.860 399.300 C 225.162 398.998,226.437 398.800,228.080 398.800 C 229.627 398.800,230.800 398.627,230.800 398.400 C 230.800 398.180,231.779 398.000,232.976 398.000 C 234.173 398.000,235.264 397.820,235.400 397.600 C 235.536 397.380,236.526 397.200,237.600 397.200 C 238.674 397.200,239.664 397.020,239.800 396.800 C 239.936 396.580,240.757 396.400,241.624 396.400 C 242.491 396.400,243.200 396.220,243.200 396.000 C 243.200 395.780,243.909 395.600,244.776 395.600 C 245.643 395.600,246.464 395.420,246.600 395.200 C 246.736 394.980,247.546 394.800,248.400 394.800 C 249.254 394.800,250.064 394.620,250.200 394.400 C 250.336 394.180,250.966 394.000,251.600 394.000 C 252.234 394.000,252.864 393.820,253.000 393.600 C 253.136 393.380,253.777 393.200,254.424 393.200 C 255.071 393.200,255.600 393.020,255.600 392.800 C 255.600 392.580,256.230 392.400,257.000 392.400 C 257.770 392.400,258.400 392.220,258.400 392.000 C 258.400 391.780,258.834 391.600,259.364 391.600 C 260.548 391.600,267.194 389.460,271.900 387.563 C 272.395 387.363,273.205 387.044,273.700 386.854 C 274.195 386.663,275.095 386.303,275.700 386.054 C 276.305 385.804,277.205 385.446,277.700 385.257 C 278.195 385.068,279.382 384.528,280.338 384.057 C 281.294 383.586,282.329 383.200,282.638 383.200 C 282.947 383.200,283.200 383.020,283.200 382.800 C 283.200 382.580,283.560 382.400,284.000 382.400 C 284.440 382.400,284.800 382.220,284.800 382.000 C 284.800 381.780,285.025 381.601,285.300 381.603 C 286.053 381.608,292.400 378.335,292.400 377.942 C 292.400 377.754,292.653 377.600,292.962 377.600 C 293.628 377.600,296.941 375.932,297.133 375.500 C 297.207 375.335,297.515 375.200,297.818 375.200 C 298.121 375.200,300.019 374.210,302.036 373.000 C 304.052 371.790,305.859 370.800,306.051 370.800 C 306.243 370.800,306.400 370.642,306.400 370.449 C 306.400 370.255,306.940 369.873,307.600 369.600 C 308.260 369.327,308.800 368.945,308.800 368.751 C 308.800 368.558,309.036 368.400,309.325 368.400 C 309.613 368.400,310.198 368.085,310.625 367.700 C 311.051 367.315,311.895 366.745,312.500 366.432 C 313.105 366.120,313.600 365.715,313.600 365.532 C 313.600 365.350,313.843 365.200,314.141 365.200 C 314.438 365.200,315.246 364.660,315.937 364.000 C 316.628 363.340,317.340 362.800,317.521 362.800 C 317.701 362.800,318.198 362.480,318.625 362.089 C 319.051 361.698,320.030 360.936,320.800 360.395 C 322.309 359.335,322.513 359.177,325.138 357.025 C 326.094 356.241,326.994 355.597,327.138 355.594 C 327.282 355.591,328.745 354.331,330.389 352.794 C 332.033 351.257,333.505 350.000,333.660 350.000 C 334.027 350.000,350.000 334.027,350.000 333.660 C 350.000 333.505,351.257 332.033,352.794 330.389 C 354.331 328.745,355.591 327.282,355.594 327.138 C 355.597 326.994,356.241 326.094,357.025 325.138 C 359.177 322.513,359.335 322.309,360.395 320.800 C 360.936 320.030,361.698 319.051,362.089 318.625 C 362.480 318.198,362.800 317.701,362.800 317.521 C 362.800 317.340,363.340 316.628,364.000 315.937 C 364.660 315.246,365.200 314.438,365.200 314.141 C 365.200 313.843,365.350 313.600,365.532 313.600 C 365.715 313.600,366.120 313.105,366.432 312.500 C 366.745 311.895,367.315 311.051,367.700 310.625 C 368.085 310.198,368.400 309.613,368.400 309.325 C 368.400 309.036,368.558 308.800,368.751 308.800 C 368.945 308.800,369.327 308.260,369.600 307.600 C 369.873 306.940,370.255 306.400,370.449 306.400 C 370.642 306.400,370.800 306.243,370.800 306.051 C 370.800 305.859,371.790 304.052,373.000 302.036 C 374.210 300.019,375.200 298.121,375.200 297.818 C 375.200 297.515,375.335 297.207,375.500 297.133 C 375.932 296.941,377.600 293.628,377.600 292.962 C 377.600 292.653,377.754 292.400,377.942 292.400 C 378.335 292.400,381.608 286.053,381.603 285.300 C 381.601 285.025,381.780 284.800,382.000 284.800 C 382.220 284.800,382.400 284.440,382.400 284.000 C 382.400 283.560,382.580 283.200,382.800 283.200 C 383.020 283.200,383.200 282.947,383.200 282.638 C 383.200 282.153,383.752 280.880,385.250 277.905 C 385.443 277.523,385.600 277.026,385.600 276.801 C 385.600 276.576,385.978 275.538,386.440 274.496 C 387.485 272.137,387.794 271.365,388.400 269.600 C 388.664 268.830,389.035 267.840,389.224 267.400 C 390.086 265.388,391.600 260.286,391.600 259.392 C 391.600 258.846,391.780 258.400,392.000 258.400 C 392.220 258.400,392.400 257.770,392.400 257.000 C 392.400 256.230,392.580 255.600,392.800 255.600 C 393.020 255.600,393.200 254.970,393.200 254.200 C 393.200 253.430,393.380 252.800,393.600 252.800 C 393.820 252.800,394.000 252.271,394.000 251.624 C 394.000 250.977,394.180 250.336,394.400 250.200 C 394.620 250.064,394.800 249.254,394.800 248.400 C 394.800 247.546,394.980 246.736,395.200 246.600 C 395.420 246.464,395.600 245.643,395.600 244.776 C 395.600 243.909,395.780 243.200,396.000 243.200 C 396.220 243.200,396.400 242.491,396.400 241.624 C 396.400 240.757,396.580 239.936,396.800 239.800 C 397.020 239.664,397.200 238.674,397.200 237.600 C 397.200 236.526,397.380 235.536,397.600 235.400 C 397.820 235.264,398.000 234.274,398.000 233.200 C 398.000 232.126,398.180 231.136,398.400 231.000 C 398.620 230.864,398.800 229.539,398.800 228.056 C 398.800 226.433,398.999 225.161,399.300 224.860 C 400.029 224.131,400.029 175.869,399.300 175.140 C 399.007 174.847,398.800 173.607,398.800 172.144 C 398.800 170.771,398.620 169.536,398.400 169.400 C 398.180 169.264,398.000 168.184,398.000 167.000 C 398.000 165.816,397.820 164.736,397.600 164.600 C 397.380 164.464,397.200 163.474,397.200 162.400 C 397.200 161.326,397.020 160.336,396.800 160.200 C 396.580 160.064,396.400 159.243,396.400 158.376 C 396.400 157.509,396.220 156.800,396.000 156.800 C 395.780 156.800,395.600 156.091,395.600 155.224 C 395.600 154.357,395.420 153.536,395.200 153.400 C 394.980 153.264,394.800 152.443,394.800 151.576 C 394.800 150.709,394.620 150.000,394.400 150.000 C 394.180 150.000,394.000 149.370,394.000 148.600 C 394.000 147.830,393.820 147.200,393.600 147.200 C 393.380 147.200,393.200 146.570,393.200 145.800 C 393.200 145.030,393.020 144.400,392.800 144.400 C 392.580 144.400,392.400 143.871,392.400 143.224 C 392.400 142.577,392.220 141.936,392.000 141.800 C 391.780 141.664,391.600 141.117,391.600 140.585 C 391.600 139.574,389.868 133.908,389.191 132.705 C 388.976 132.323,388.800 131.736,388.800 131.400 C 388.800 131.064,388.620 130.432,388.400 129.995 C 388.180 129.558,387.820 128.842,387.600 128.405 C 387.380 127.968,387.200 127.338,387.200 127.005 C 387.200 126.672,387.020 126.400,386.800 126.400 C 386.580 126.400,386.400 125.961,386.400 125.424 C 386.400 124.887,386.220 124.336,386.000 124.200 C 385.780 124.064,385.600 123.603,385.600 123.176 C 385.600 122.749,385.420 122.400,385.200 122.400 C 384.980 122.400,384.800 122.058,384.800 121.641 C 384.800 121.223,384.260 119.855,383.600 118.600 C 382.940 117.345,382.400 116.067,382.400 115.759 C 382.400 115.452,382.220 115.200,382.000 115.200 C 381.780 115.200,381.601 114.975,381.603 114.700 C 381.608 113.947,378.335 107.600,377.942 107.600 C 377.754 107.600,377.600 107.347,377.600 107.038 C 377.600 106.372,375.932 103.059,375.500 102.867 C 375.335 102.793,375.200 102.485,375.200 102.182 C 375.200 101.879,374.210 99.981,373.000 97.964 C 371.790 95.948,370.800 94.156,370.800 93.982 C 370.800 93.809,370.665 93.607,370.500 93.533 C 370.135 93.371,368.793 91.400,368.027 89.900 C 367.718 89.295,367.315 88.800,367.132 88.800 C 366.950 88.800,366.800 88.575,366.799 88.300 C 366.799 88.025,366.259 87.170,365.600 86.400 C 364.941 85.630,364.401 84.841,364.401 84.647 C 364.400 84.453,364.084 84.003,363.697 83.647 C 363.311 83.291,362.740 82.505,362.430 81.900 C 362.119 81.295,361.715 80.800,361.532 80.800 C 361.350 80.800,361.200 80.596,361.200 80.347 C 361.200 80.098,360.875 79.603,360.477 79.247 C 360.079 78.891,359.224 77.859,358.577 76.952 C 356.237 73.676,353.953 70.779,352.689 69.484 C 351.980 68.758,350.773 67.361,350.007 66.382 C 349.241 65.402,347.553 63.610,346.257 62.400 C 344.961 61.190,343.338 59.599,342.650 58.865 C 339.338 55.328,334.824 50.898,333.617 50.000 C 332.878 49.450,331.588 48.370,330.750 47.600 C 328.856 45.861,328.538 45.602,326.801 44.382 C 326.031 43.842,325.110 43.085,324.754 42.700 C 324.398 42.315,323.984 42.000,323.835 42.000 C 323.686 42.000,323.144 41.595,322.632 41.100 C 321.107 39.626,320.016 38.800,319.595 38.800 C 319.378 38.800,319.200 38.650,319.200 38.468 C 319.200 38.285,318.705 37.881,318.100 37.570 C 317.495 37.260,316.709 36.689,316.353 36.303 C 315.997 35.916,315.547 35.600,315.353 35.599 C 315.159 35.599,314.370 35.059,313.600 34.400 C 312.830 33.741,312.057 33.201,311.883 33.201 C 311.709 33.200,311.180 32.840,310.708 32.400 C 310.236 31.960,309.613 31.600,309.325 31.600 C 309.036 31.600,308.800 31.442,308.800 31.249 C 308.800 31.055,308.260 30.673,307.600 30.400 C 306.940 30.127,306.400 29.745,306.400 29.551 C 306.400 29.358,306.216 29.200,305.992 29.200 C 305.768 29.200,304.871 28.750,304.000 28.200 C 303.129 27.650,302.225 27.200,301.991 27.200 C 301.758 27.200,301.180 26.840,300.708 26.400 C 300.236 25.960,299.613 25.600,299.325 25.600 C 299.036 25.600,298.800 25.420,298.800 25.200 C 298.800 24.980,298.455 24.800,298.033 24.800 C 297.612 24.800,297.207 24.665,297.133 24.500 C 296.941 24.068,293.628 22.400,292.962 22.400 C 292.653 22.400,292.400 22.246,292.400 22.058 C 292.400 21.537,279.316 15.200,278.239 15.200 C 277.888 15.200,277.600 15.020,277.600 14.800 C 277.600 14.580,277.328 14.400,276.995 14.400 C 276.662 14.400,276.077 14.241,275.695 14.047 C 273.574 12.968,267.882 10.934,263.200 9.581 C 262.210 9.295,261.229 8.912,261.020 8.730 C 260.811 8.549,260.136 8.400,259.520 8.400 C 258.904 8.400,258.400 8.220,258.400 8.000 C 258.400 7.780,257.770 7.600,257.000 7.600 C 256.230 7.600,255.600 7.420,255.600 7.200 C 255.600 6.980,254.970 6.800,254.200 6.800 C 253.430 6.800,252.800 6.620,252.800 6.400 C 252.800 6.180,252.271 6.000,251.624 6.000 C 250.977 6.000,250.336 5.820,250.200 5.600 C 250.064 5.380,249.254 5.200,248.400 5.200 C 247.546 5.200,246.736 5.020,246.600 4.800 C 246.464 4.580,245.643 4.400,244.776 4.400 C 243.909 4.400,243.200 4.220,243.200 4.000 C 243.200 3.780,242.491 3.600,241.624 3.600 C 240.757 3.600,239.936 3.420,239.800 3.200 C 239.664 2.980,238.674 2.800,237.600 2.800 C 236.526 2.800,235.536 2.620,235.400 2.400 C 235.264 2.180,234.274 2.000,233.200 2.000 C 232.126 2.000,231.136 1.820,231.000 1.600 C 230.864 1.380,229.539 1.200,228.056 1.200 C 226.458 1.200,225.160 1.000,224.869 0.709 C 224.383 0.223,187.344 -0.125,178.802 0.276 M216.400 9.200 C 216.400 9.439,217.933 9.600,220.200 9.600 C 222.467 9.600,224.000 9.761,224.000 10.000 C 224.000 10.229,225.200 10.400,226.800 10.400 C 228.400 10.400,229.600 10.571,229.600 10.800 C 229.600 11.020,230.554 11.200,231.720 11.200 C 232.886 11.200,234.011 11.363,234.220 11.561 C 234.429 11.760,235.455 12.030,236.500 12.161 C 241.281 12.762,242.000 12.903,242.000 13.240 C 242.000 13.438,242.720 13.600,243.600 13.600 C 244.480 13.600,245.200 13.780,245.200 14.000 C 245.200 14.220,245.920 14.400,246.800 14.400 C 247.680 14.400,248.400 14.580,248.400 14.800 C 248.400 15.020,249.030 15.200,249.800 15.200 C 250.570 15.200,251.200 15.380,251.200 15.600 C 251.200 15.820,251.729 16.000,252.376 16.000 C 253.023 16.000,253.664 16.180,253.800 16.400 C 253.936 16.620,254.667 16.800,255.424 16.800 C 256.181 16.800,256.800 16.980,256.800 17.200 C 256.800 17.420,257.340 17.600,258.000 17.600 C 258.660 17.600,259.200 17.780,259.200 18.000 C 259.200 18.220,259.515 18.403,259.900 18.406 C 260.718 18.413,263.461 19.327,263.859 19.726 C 264.010 19.877,264.430 20.000,264.792 20.000 C 265.154 20.000,266.195 20.360,267.106 20.800 C 268.016 21.240,269.004 21.600,269.301 21.600 C 269.597 21.600,270.011 21.758,270.220 21.952 C 270.429 22.145,271.320 22.530,272.200 22.806 C 273.080 23.083,274.649 23.735,275.687 24.255 C 276.724 24.775,277.939 25.200,278.387 25.200 C 278.834 25.200,279.200 25.380,279.200 25.600 C 279.200 25.820,279.434 26.000,279.720 26.000 C 280.456 26.000,282.393 26.941,282.397 27.300 C 282.399 27.465,282.760 27.600,283.200 27.600 C 283.640 27.600,284.000 27.780,284.000 28.000 C 284.000 28.220,284.360 28.400,284.800 28.400 C 285.240 28.400,285.600 28.580,285.600 28.800 C 285.600 29.020,285.960 29.200,286.400 29.200 C 286.840 29.200,287.200 29.380,287.200 29.600 C 287.200 29.820,287.560 30.000,288.000 30.000 C 288.440 30.000,288.800 30.180,288.800 30.400 C 288.800 30.620,289.160 30.800,289.600 30.800 C 290.040 30.800,290.400 30.959,290.400 31.153 C 290.400 31.348,290.715 31.607,291.100 31.729 C 291.847 31.966,294.067 33.246,294.400 33.632 C 294.510 33.760,295.185 34.119,295.900 34.430 C 296.615 34.741,297.200 35.131,297.200 35.298 C 297.200 35.464,297.390 35.600,297.622 35.600 C 297.854 35.600,299.104 36.320,300.400 37.200 C 301.696 38.080,302.864 38.800,302.995 38.800 C 303.126 38.800,303.451 38.983,303.717 39.206 C 304.738 40.063,307.254 41.600,307.636 41.600 C 307.856 41.600,308.473 42.037,309.007 42.571 C 309.541 43.105,310.523 43.864,311.189 44.257 C 311.855 44.651,312.400 45.114,312.400 45.286 C 312.400 45.459,312.630 45.600,312.912 45.600 C 313.193 45.600,313.683 45.960,314.000 46.400 C 314.317 46.840,314.780 47.200,315.029 47.200 C 315.278 47.200,316.003 47.697,316.641 48.304 C 317.278 48.912,318.430 49.853,319.200 50.396 C 319.970 50.938,320.973 51.747,321.428 52.191 C 321.884 52.636,323.044 53.630,324.006 54.400 C 328.855 58.283,341.129 70.533,345.401 75.755 C 346.280 76.831,347.495 78.245,348.100 78.897 C 348.705 79.550,349.200 80.208,349.200 80.359 C 349.200 80.510,349.830 81.301,350.600 82.118 C 351.370 82.934,352.000 83.755,352.000 83.942 C 352.000 84.128,352.540 84.846,353.200 85.537 C 353.860 86.228,354.400 86.974,354.400 87.196 C 354.400 87.418,354.541 87.600,354.714 87.600 C 354.886 87.600,355.349 88.145,355.743 88.811 C 356.136 89.477,356.895 90.459,357.429 90.993 C 357.963 91.527,358.400 92.202,358.400 92.494 C 358.400 92.785,358.760 93.283,359.200 93.600 C 359.640 93.917,360.000 94.414,360.000 94.705 C 360.000 94.995,360.342 95.720,360.761 96.316 C 362.293 98.499,364.400 102.026,364.400 102.408 C 364.400 102.623,364.536 102.800,364.702 102.800 C 364.869 102.800,365.259 103.385,365.570 104.100 C 365.881 104.815,366.240 105.490,366.368 105.600 C 366.754 105.933,368.034 108.153,368.271 108.900 C 368.393 109.285,368.652 109.600,368.847 109.600 C 369.041 109.600,369.200 109.960,369.200 110.400 C 369.200 110.840,369.380 111.200,369.600 111.200 C 369.820 111.200,370.000 111.560,370.000 112.000 C 370.000 112.440,370.180 112.800,370.400 112.800 C 370.620 112.800,370.800 113.160,370.800 113.600 C 370.800 114.040,370.980 114.400,371.200 114.400 C 371.420 114.400,371.600 114.760,371.600 115.200 C 371.600 115.640,371.780 116.000,372.000 116.000 C 372.220 116.000,372.400 116.360,372.400 116.800 C 372.400 117.240,372.580 117.600,372.800 117.600 C 373.020 117.600,373.200 117.960,373.200 118.400 C 373.200 118.840,373.380 119.200,373.600 119.200 C 373.820 119.200,374.000 119.549,374.000 119.976 C 374.000 120.403,374.180 120.864,374.400 121.000 C 374.620 121.136,374.800 121.597,374.800 122.024 C 374.800 122.451,374.980 122.800,375.200 122.800 C 375.420 122.800,375.600 123.160,375.600 123.600 C 375.600 124.040,375.780 124.400,376.000 124.400 C 376.220 124.400,376.400 124.760,376.400 125.200 C 376.400 125.640,376.580 126.000,376.800 126.000 C 377.020 126.000,377.200 126.391,377.200 126.869 C 377.200 127.701,378.807 132.245,379.613 133.695 C 379.826 134.077,380.000 134.741,380.000 135.171 C 380.000 135.601,380.180 136.064,380.400 136.200 C 380.620 136.336,380.800 136.876,380.800 137.400 C 380.800 137.924,380.980 138.464,381.200 138.600 C 381.420 138.736,381.600 139.287,381.600 139.824 C 381.600 140.361,381.780 140.800,382.000 140.800 C 382.220 140.800,382.400 141.239,382.400 141.776 C 382.400 142.313,382.560 142.852,382.756 142.973 C 383.092 143.180,383.214 143.673,383.832 147.300 C 383.973 148.125,384.248 148.800,384.444 148.800 C 384.640 148.800,384.800 149.329,384.800 149.976 C 384.800 150.623,384.980 151.264,385.200 151.400 C 385.420 151.536,385.600 152.357,385.600 153.224 C 385.600 154.091,385.780 154.800,386.000 154.800 C 386.220 154.800,386.400 155.509,386.400 156.376 C 386.400 157.243,386.561 158.052,386.758 158.174 C 387.125 158.401,387.469 160.196,387.855 163.900 C 387.975 165.055,388.237 166.000,388.437 166.000 C 388.637 166.000,388.800 166.990,388.800 168.200 C 388.800 169.410,388.980 170.400,389.200 170.400 C 389.429 170.400,389.600 171.600,389.600 173.200 C 389.600 174.800,389.771 176.000,390.000 176.000 C 390.238 176.000,390.400 177.525,390.400 179.776 C 390.400 181.863,390.579 183.663,390.800 183.800 C 391.056 183.958,391.200 189.796,391.200 200.000 C 391.200 210.204,391.056 216.042,390.800 216.200 C 390.579 216.337,390.400 218.137,390.400 220.224 C 390.400 222.475,390.238 224.000,390.000 224.000 C 389.771 224.000,389.600 225.200,389.600 226.800 C 389.600 228.400,389.429 229.600,389.200 229.600 C 388.980 229.600,388.800 230.590,388.800 231.800 C 388.800 233.010,388.637 234.000,388.437 234.000 C 388.237 234.000,387.973 234.945,387.850 236.100 C 387.377 240.537,387.107 242.000,386.760 242.000 C 386.562 242.000,386.400 242.720,386.400 243.600 C 386.400 244.480,386.220 245.200,386.000 245.200 C 385.780 245.200,385.600 245.909,385.600 246.776 C 385.600 247.643,385.420 248.464,385.200 248.600 C 384.980 248.736,384.800 249.366,384.800 250.000 C 384.800 250.634,384.620 251.264,384.400 251.400 C 384.180 251.536,384.000 252.166,384.000 252.800 C 384.000 253.434,383.820 254.064,383.600 254.200 C 383.380 254.336,383.200 254.977,383.200 255.624 C 383.200 256.271,383.020 256.800,382.800 256.800 C 382.580 256.800,382.400 257.340,382.400 258.000 C 382.400 258.660,382.220 259.200,382.000 259.200 C 381.780 259.200,381.600 259.740,381.600 260.400 C 381.600 261.060,381.420 261.600,381.200 261.600 C 380.980 261.600,380.800 262.039,380.800 262.576 C 380.800 263.113,380.620 263.664,380.400 263.800 C 380.180 263.936,380.000 264.399,380.000 264.829 C 380.000 265.259,379.838 265.923,379.640 266.305 C 378.696 268.126,377.198 272.296,377.199 273.100 C 377.199 273.595,377.020 274.000,376.800 274.000 C 376.580 274.000,376.400 274.360,376.400 274.800 C 376.400 275.240,376.220 275.600,376.000 275.600 C 375.780 275.600,375.600 275.960,375.600 276.400 C 375.600 276.840,375.420 277.200,375.200 277.200 C 374.980 277.200,374.800 277.549,374.800 277.976 C 374.800 278.403,374.620 278.864,374.400 279.000 C 374.180 279.136,374.000 279.597,374.000 280.024 C 374.000 280.451,373.820 280.800,373.600 280.800 C 373.380 280.800,373.200 281.034,373.200 281.320 C 373.200 282.056,372.259 283.993,371.900 283.997 C 371.735 283.999,371.600 284.360,371.600 284.800 C 371.600 285.240,371.420 285.600,371.200 285.600 C 370.980 285.600,370.800 285.960,370.800 286.400 C 370.800 286.840,370.620 287.200,370.400 287.200 C 370.180 287.200,370.000 287.560,370.000 288.000 C 370.000 288.440,369.820 288.800,369.600 288.800 C 369.380 288.800,369.200 289.160,369.200 289.600 C 369.200 290.040,369.020 290.400,368.800 290.400 C 368.580 290.400,368.400 290.678,368.400 291.017 C 368.400 291.356,368.040 292.020,367.600 292.492 C 367.160 292.964,366.800 293.587,366.800 293.875 C 366.800 294.164,366.664 294.400,366.498 294.400 C 366.331 294.400,365.942 294.985,365.632 295.700 C 365.101 296.924,362.438 301.288,360.759 303.684 C 360.342 304.280,360.000 305.005,360.000 305.295 C 360.000 305.586,359.640 306.083,359.200 306.400 C 358.760 306.717,358.400 307.215,358.400 307.506 C 358.400 307.798,357.963 308.473,357.429 309.007 C 356.895 309.541,356.136 310.523,355.743 311.189 C 355.349 311.855,354.886 312.400,354.714 312.400 C 354.541 312.400,354.400 312.593,354.400 312.829 C 354.400 313.064,354.175 313.494,353.900 313.784 C 352.916 314.820,352.000 316.013,352.000 316.258 C 352.000 316.394,351.676 316.797,351.281 317.153 C 350.886 317.509,350.125 318.430,349.590 319.200 C 349.056 319.970,348.133 321.140,347.540 321.800 C 345.943 323.575,345.070 324.626,344.411 325.564 C 343.965 326.199,337.590 333.013,335.302 335.302 C 333.013 337.590,326.199 343.965,325.564 344.411 C 324.626 345.070,323.575 345.943,321.800 347.540 C 321.140 348.133,319.970 349.056,319.200 349.590 C 318.430 350.125,317.509 350.886,317.153 351.281 C 316.797 351.676,316.379 352.000,316.225 352.000 C 316.070 352.000,315.706 352.225,315.416 352.500 C 314.215 353.640,313.167 354.400,312.795 354.400 C 312.578 354.400,312.400 354.541,312.400 354.714 C 312.400 354.886,311.855 355.349,311.189 355.743 C 310.523 356.136,309.541 356.895,309.007 357.429 C 308.473 357.963,307.798 358.400,307.506 358.400 C 307.215 358.400,306.717 358.760,306.400 359.200 C 306.083 359.640,305.586 360.000,305.295 360.000 C 305.005 360.000,304.280 360.342,303.684 360.759 C 301.288 362.438,296.924 365.101,295.700 365.632 C 294.985 365.942,294.400 366.331,294.400 366.498 C 294.400 366.664,294.164 366.800,293.875 366.800 C 293.587 366.800,292.964 367.160,292.492 367.600 C 292.020 368.040,291.356 368.400,291.017 368.400 C 290.678 368.400,290.400 368.580,290.400 368.800 C 290.400 369.020,290.040 369.200,289.600 369.200 C 289.160 369.200,288.800 369.380,288.800 369.600 C 288.800 369.820,288.440 370.000,288.000 370.000 C 287.560 370.000,287.200 370.180,287.200 370.400 C 287.200 370.620,286.840 370.800,286.400 370.800 C 285.960 370.800,285.600 370.980,285.600 371.200 C 285.600 371.420,285.240 371.600,284.800 371.600 C 284.360 371.600,283.999 371.735,283.997 371.900 C 283.993 372.259,282.056 373.200,281.320 373.200 C 281.034 373.200,280.800 373.380,280.800 373.600 C 280.800 373.820,280.440 374.000,280.000 374.000 C 279.560 374.000,279.200 374.180,279.200 374.400 C 279.200 374.620,278.750 374.800,278.200 374.800 C 277.650 374.800,277.200 374.980,277.200 375.200 C 277.200 375.420,276.840 375.600,276.400 375.600 C 275.960 375.600,275.600 375.780,275.600 376.000 C 275.600 376.220,275.240 376.400,274.800 376.400 C 274.360 376.400,274.000 376.580,274.000 376.800 C 274.000 377.020,273.595 377.199,273.100 377.199 C 272.296 377.198,268.126 378.696,266.305 379.640 C 265.923 379.838,265.259 380.000,264.829 380.000 C 264.399 380.000,263.936 380.180,263.800 380.400 C 263.664 380.620,263.113 380.800,262.576 380.800 C 262.039 380.800,261.600 380.980,261.600 381.200 C 261.600 381.420,261.060 381.600,260.400 381.600 C 259.740 381.600,259.200 381.780,259.200 382.000 C 259.200 382.220,258.660 382.400,258.000 382.400 C 257.340 382.400,256.800 382.580,256.800 382.800 C 256.800 383.020,256.271 383.200,255.624 383.200 C 254.977 383.200,254.336 383.380,254.200 383.600 C 254.064 383.820,253.434 384.000,252.800 384.000 C 252.166 384.000,251.536 384.180,251.400 384.400 C 251.264 384.620,250.634 384.800,250.000 384.800 C 249.366 384.800,248.736 384.980,248.600 385.200 C 248.464 385.420,247.643 385.600,246.776 385.600 C 245.909 385.600,245.200 385.780,245.200 386.000 C 245.200 386.220,244.480 386.400,243.600 386.400 C 242.720 386.400,242.000 386.580,242.000 386.800 C 242.000 387.020,241.291 387.200,240.424 387.200 C 239.557 387.200,238.736 387.380,238.600 387.600 C 238.464 387.820,237.373 388.000,236.176 388.000 C 234.979 388.000,234.000 388.180,234.000 388.400 C 234.000 388.620,233.010 388.800,231.800 388.800 C 230.590 388.800,229.600 388.980,229.600 389.200 C 229.600 389.429,228.400 389.600,226.800 389.600 C 225.200 389.600,224.000 389.771,224.000 390.000 C 224.000 390.238,222.475 390.400,220.224 390.400 C 218.137 390.400,216.337 390.579,216.200 390.800 C 216.042 391.056,210.204 391.200,200.000 391.200 C 189.796 391.200,183.958 391.056,183.800 390.800 C 183.663 390.579,181.863 390.400,179.776 390.400 C 177.525 390.400,176.000 390.238,176.000 390.000 C 176.000 389.771,174.800 389.600,173.200 389.600 C 171.600 389.600,170.400 389.429,170.400 389.200 C 170.400 388.980,169.410 388.800,168.200 388.800 C 166.990 388.800,166.000 388.637,166.000 388.437 C 166.000 388.237,165.055 387.975,163.900 387.855 C 160.196 387.469,158.401 387.125,158.174 386.758 C 158.052 386.561,157.243 386.400,156.376 386.400 C 155.509 386.400,154.800 386.220,154.800 386.000 C 154.800 385.780,154.091 385.600,153.224 385.600 C 152.357 385.600,151.536 385.420,151.400 385.200 C 151.264 384.980,150.623 384.800,149.976 384.800 C 149.329 384.800,148.800 384.640,148.800 384.444 C 148.800 384.248,148.170 383.978,147.400 383.844 C 146.630 383.710,145.368 383.490,144.596 383.356 C 143.824 383.221,143.094 382.951,142.973 382.756 C 142.852 382.560,142.313 382.400,141.776 382.400 C 141.239 382.400,140.800 382.220,140.800 382.000 C 140.800 381.780,140.361 381.600,139.824 381.600 C 139.287 381.600,138.736 381.420,138.600 381.200 C 138.464 380.980,137.924 380.800,137.400 380.800 C 136.876 380.800,136.336 380.620,136.200 380.400 C 136.064 380.180,135.601 380.000,135.171 380.000 C 134.741 380.000,134.077 379.826,133.695 379.613 C 132.245 378.807,127.701 377.200,126.869 377.200 C 126.391 377.200,126.000 377.020,126.000 376.800 C 126.000 376.580,125.640 376.400,125.200 376.400 C 124.760 376.400,124.400 376.220,124.400 376.000 C 124.400 375.780,124.040 375.600,123.600 375.600 C 123.160 375.600,122.800 375.420,122.800 375.200 C 122.800 374.980,122.451 374.800,122.024 374.800 C 121.597 374.800,121.136 374.620,121.000 374.400 C 120.864 374.180,120.403 374.000,119.976 374.000 C 119.549 374.000,119.200 373.820,119.200 373.600 C 119.200 373.380,118.840 373.200,118.400 373.200 C 117.960 373.200,117.600 373.020,117.600 372.800 C 117.600 372.580,117.240 372.400,116.800 372.400 C 116.360 372.400,116.000 372.220,116.000 372.000 C 116.000 371.780,115.640 371.600,115.200 371.600 C 114.760 371.600,114.400 371.420,114.400 371.200 C 114.400 370.980,114.040 370.800,113.600 370.800 C 113.160 370.800,112.800 370.620,112.800 370.400 C 112.800 370.180,112.440 370.000,112.000 370.000 C 111.560 370.000,111.200 369.820,111.200 369.600 C 111.200 369.380,110.840 369.200,110.400 369.200 C 109.960 369.200,109.600 369.041,109.600 368.847 C 109.600 368.652,109.285 368.393,108.900 368.271 C 108.153 368.034,105.933 366.754,105.600 366.368 C 105.490 366.240,104.815 365.881,104.100 365.570 C 103.385 365.259,102.800 364.869,102.800 364.702 C 102.800 364.536,102.623 364.400,102.408 364.400 C 102.026 364.400,98.499 362.293,96.316 360.761 C 95.720 360.342,94.995 360.000,94.705 360.000 C 94.414 360.000,93.917 359.640,93.600 359.200 C 93.283 358.760,92.785 358.400,92.494 358.400 C 92.202 358.400,91.527 357.963,90.993 357.429 C 90.459 356.895,89.477 356.136,88.811 355.743 C 88.145 355.349,87.600 354.886,87.600 354.714 C 87.600 354.541,87.418 354.400,87.196 354.400 C 86.974 354.400,86.228 353.860,85.537 353.200 C 84.846 352.540,84.120 352.000,83.922 352.000 C 83.725 352.000,83.110 351.546,82.556 350.992 C 82.002 350.438,81.069 349.673,80.484 349.292 C 79.898 348.911,78.875 348.115,78.210 347.522 C 74.432 344.158,73.755 343.618,73.300 343.609 C 73.025 343.604,72.800 343.440,72.800 343.243 C 72.800 343.047,71.495 341.655,69.900 340.150 C 64.250 334.817,57.059 327.327,54.400 324.006 C 53.630 323.044,52.636 321.884,52.191 321.428 C 51.747 320.973,50.938 319.970,50.396 319.200 C 49.853 318.430,48.912 317.278,48.304 316.641 C 47.697 316.003,47.200 315.278,47.200 315.029 C 47.200 314.780,46.840 314.317,46.400 314.000 C 45.960 313.683,45.600 313.193,45.600 312.912 C 45.600 312.630,45.459 312.400,45.286 312.400 C 45.114 312.400,44.651 311.855,44.257 311.189 C 43.864 310.523,43.105 309.541,42.571 309.007 C 42.037 308.473,41.600 307.856,41.600 307.636 C 41.600 307.254,40.063 304.738,39.206 303.717 C 38.983 303.451,38.800 303.126,38.800 302.995 C 38.800 302.864,38.080 301.696,37.200 300.400 C 36.320 299.104,35.600 297.854,35.600 297.622 C 35.600 297.390,35.441 297.200,35.247 297.200 C 35.052 297.200,34.790 296.885,34.664 296.500 C 34.538 296.115,33.879 294.900,33.200 293.800 C 32.521 292.700,31.862 291.485,31.736 291.100 C 31.610 290.715,31.348 290.400,31.153 290.400 C 30.959 290.400,30.800 290.040,30.800 289.600 C 30.800 289.160,30.620 288.800,30.400 288.800 C 30.180 288.800,30.000 288.440,30.000 288.000 C 30.000 287.560,29.820 287.200,29.600 287.200 C 29.380 287.200,29.200 286.840,29.200 286.400 C 29.200 285.960,29.020 285.600,28.800 285.600 C 28.580 285.600,28.400 285.240,28.400 284.800 C 28.400 284.360,28.220 284.000,28.000 284.000 C 27.780 284.000,27.600 283.640,27.600 283.200 C 27.600 282.760,27.465 282.399,27.300 282.397 C 26.941 282.393,26.000 280.456,26.000 279.720 C 26.000 279.434,25.820 279.200,25.600 279.200 C 25.380 279.200,25.200 278.834,25.200 278.387 C 25.200 277.939,24.773 276.724,24.252 275.687 C 23.730 274.649,23.169 273.350,23.005 272.800 C 22.841 272.250,22.277 270.850,21.753 269.688 C 21.229 268.527,20.800 267.322,20.800 267.012 C 20.800 266.701,20.620 266.336,20.400 266.200 C 20.180 266.064,20.000 265.524,20.000 265.000 C 20.000 264.476,19.820 263.936,19.600 263.800 C 19.380 263.664,19.200 263.113,19.200 262.576 C 19.200 262.039,19.020 261.600,18.800 261.600 C 18.580 261.600,18.400 261.060,18.400 260.400 C 18.400 259.740,18.220 259.200,18.000 259.200 C 17.780 259.200,17.600 258.660,17.600 258.000 C 17.600 257.340,17.420 256.800,17.200 256.800 C 16.980 256.800,16.800 256.181,16.800 255.424 C 16.800 254.667,16.620 253.936,16.400 253.800 C 16.180 253.664,16.000 253.023,16.000 252.376 C 16.000 251.729,15.820 251.200,15.600 251.200 C 15.380 251.200,15.200 250.570,15.200 249.800 C 15.200 249.030,15.020 248.400,14.800 248.400 C 14.580 248.400,14.400 247.680,14.400 246.800 C 14.400 245.920,14.220 245.200,14.000 245.200 C 13.780 245.200,13.600 244.480,13.600 243.600 C 13.600 242.720,13.438 242.000,13.240 242.000 C 12.903 242.000,12.762 241.281,12.161 236.500 C 12.030 235.455,11.760 234.429,11.561 234.220 C 11.363 234.011,11.200 232.886,11.200 231.720 C 11.200 230.554,11.020 229.600,10.800 229.600 C 10.572 229.600,10.400 228.408,10.400 226.824 C 10.400 225.297,10.220 223.936,10.000 223.800 C 9.780 223.664,9.600 221.943,9.600 219.976 C 9.600 217.859,9.437 216.400,9.200 216.400 C 8.940 216.400,8.800 210.733,8.800 200.200 C 8.800 189.667,8.940 184.000,9.200 184.000 C 9.438 184.000,9.600 182.475,9.600 180.224 C 9.600 178.137,9.779 176.337,10.000 176.200 C 10.220 176.064,10.400 174.714,10.400 173.200 C 10.400 171.686,10.580 170.336,10.800 170.200 C 11.020 170.064,11.200 169.063,11.200 167.976 C 11.200 166.889,11.380 166.000,11.600 166.000 C 11.820 166.000,12.000 165.010,12.000 163.800 C 12.000 162.590,12.180 161.600,12.400 161.600 C 12.620 161.600,12.800 160.891,12.800 160.024 C 12.800 159.157,12.980 158.336,13.200 158.200 C 13.420 158.064,13.600 157.243,13.600 156.376 C 13.600 155.509,13.780 154.800,14.000 154.800 C 14.220 154.800,14.400 154.181,14.400 153.424 C 14.400 152.667,14.580 151.936,14.800 151.800 C 15.020 151.664,15.200 150.933,15.200 150.176 C 15.200 149.419,15.380 148.800,15.600 148.800 C 15.820 148.800,16.000 148.271,16.000 147.624 C 16.000 146.977,16.180 146.336,16.400 146.200 C 16.620 146.064,16.800 145.333,16.800 144.576 C 16.800 143.819,16.980 143.200,17.200 143.200 C 17.420 143.200,17.600 142.660,17.600 142.000 C 17.600 141.340,17.780 140.800,18.000 140.800 C 18.220 140.800,18.400 140.361,18.400 139.824 C 18.400 139.287,18.580 138.736,18.800 138.600 C 19.020 138.464,19.200 137.924,19.200 137.400 C 19.200 136.876,19.380 136.336,19.600 136.200 C 19.820 136.064,20.000 135.637,20.000 135.252 C 20.000 134.866,20.360 133.805,20.800 132.894 C 21.240 131.984,21.600 130.996,21.600 130.699 C 21.600 130.403,21.758 129.989,21.952 129.780 C 22.145 129.571,22.531 128.680,22.810 127.800 C 23.290 126.287,24.835 122.623,25.634 121.105 C 25.835 120.723,26.000 120.138,26.000 119.805 C 26.000 119.472,26.180 119.200,26.400 119.200 C 26.620 119.200,26.800 118.840,26.800 118.400 C 26.800 117.960,26.980 117.600,27.200 117.600 C 27.420 117.600,27.600 117.240,27.600 116.800 C 27.600 116.360,27.780 116.000,28.000 116.000 C 28.220 116.000,28.400 115.640,28.400 115.200 C 28.400 114.760,28.580 114.400,28.800 114.400 C 29.020 114.400,29.200 114.040,29.200 113.600 C 29.200 113.160,29.380 112.800,29.600 112.800 C 29.820 112.800,30.000 112.440,30.000 112.000 C 30.000 111.560,30.180 111.200,30.400 111.200 C 30.620 111.200,30.800 110.840,30.800 110.400 C 30.800 109.960,30.980 109.600,31.200 109.600 C 31.420 109.600,31.600 109.407,31.600 109.172 C 31.600 108.937,32.101 107.992,32.712 107.072 C 33.324 106.152,34.089 104.860,34.412 104.200 C 34.735 103.540,35.089 102.910,35.199 102.800 C 35.444 102.556,36.358 100.975,37.082 99.542 C 37.376 98.960,37.883 98.263,38.208 97.993 C 38.534 97.723,38.800 97.336,38.800 97.134 C 38.800 96.932,38.983 96.549,39.206 96.283 C 40.063 95.262,41.600 92.746,41.600 92.364 C 41.600 92.144,42.005 91.544,42.500 91.032 C 43.974 89.507,44.800 88.416,44.800 87.995 C 44.800 87.778,44.980 87.600,45.200 87.600 C 45.420 87.600,45.600 87.418,45.600 87.196 C 45.600 86.974,46.140 86.228,46.800 85.537 C 47.460 84.846,48.000 84.128,48.000 83.942 C 48.000 83.755,48.630 82.934,49.400 82.118 C 50.170 81.301,50.800 80.497,50.800 80.330 C 50.800 80.163,51.385 79.428,52.100 78.695 C 52.815 77.963,54.204 76.382,55.186 75.182 C 59.348 70.097,70.097 59.348,75.182 55.186 C 76.382 54.204,77.963 52.815,78.695 52.100 C 79.428 51.385,80.163 50.800,80.330 50.800 C 80.497 50.800,81.301 50.170,82.118 49.400 C 82.934 48.630,83.755 48.000,83.942 48.000 C 84.128 48.000,84.846 47.460,85.537 46.800 C 86.228 46.140,86.974 45.600,87.196 45.600 C 87.418 45.600,87.600 45.420,87.600 45.200 C 87.600 44.980,87.778 44.800,87.995 44.800 C 88.416 44.800,89.507 43.974,91.032 42.500 C 91.544 42.005,92.144 41.600,92.364 41.600 C 92.746 41.600,95.262 40.063,96.283 39.206 C 96.549 38.983,96.932 38.800,97.134 38.800 C 97.336 38.800,97.723 38.534,97.993 38.208 C 98.263 37.883,98.960 37.376,99.542 37.082 C 100.975 36.358,102.556 35.444,102.800 35.199 C 102.910 35.089,103.540 34.735,104.200 34.412 C 104.860 34.089,106.152 33.324,107.072 32.712 C 107.992 32.101,108.937 31.600,109.172 31.600 C 109.407 31.600,109.600 31.420,109.600 31.200 C 109.600 30.980,109.960 30.800,110.400 30.800 C 110.840 30.800,111.200 30.620,111.200 30.400 C 111.200 30.180,111.560 30.000,112.000 30.000 C 112.440 30.000,112.800 29.820,112.800 29.600 C 112.800 29.380,113.160 29.200,113.600 29.200 C 114.040 29.200,114.400 29.020,114.400 28.800 C 114.400 28.580,114.760 28.400,115.200 28.400 C 115.640 28.400,116.000 28.220,116.000 28.000 C 116.000 27.780,116.360 27.600,116.800 27.600 C 117.240 27.600,117.600 27.420,117.600 27.200 C 117.600 26.980,117.960 26.800,118.400 26.800 C 118.840 26.800,119.200 26.620,119.200 26.400 C 119.200 26.180,119.472 26.000,119.805 26.000 C 120.138 26.000,120.723 25.835,121.105 25.634 C 122.623 24.835,126.287 23.290,127.800 22.810 C 128.680 22.531,129.571 22.145,129.780 21.952 C 129.989 21.758,130.403 21.600,130.699 21.600 C 130.996 21.600,131.984 21.240,132.894 20.800 C 133.805 20.360,134.866 20.000,135.252 20.000 C 135.637 20.000,136.064 19.820,136.200 19.600 C 136.336 19.380,136.876 19.200,137.400 19.200 C 137.924 19.200,138.464 19.020,138.600 18.800 C 138.736 18.580,139.287 18.400,139.824 18.400 C 140.361 18.400,140.800 18.220,140.800 18.000 C 140.800 17.780,141.340 17.600,142.000 17.600 C 142.660 17.600,143.200 17.440,143.200 17.244 C 143.200 16.907,143.649 16.790,147.300 16.168 C 148.125 16.027,148.800 15.752,148.800 15.556 C 148.800 15.360,149.419 15.200,150.176 15.200 C 150.933 15.200,151.664 15.020,151.800 14.800 C 151.936 14.580,152.667 14.400,153.424 14.400 C 154.181 14.400,154.800 14.220,154.800 14.000 C 154.800 13.780,155.509 13.600,156.376 13.600 C 157.243 13.600,158.064 13.420,158.200 13.200 C 158.336 12.980,159.157 12.800,160.024 12.800 C 160.891 12.800,161.600 12.620,161.600 12.400 C 161.600 12.180,162.590 12.000,163.800 12.000 C 165.010 12.000,166.000 11.820,166.000 11.600 C 166.000 11.380,166.889 11.200,167.976 11.200 C 169.063 11.200,170.064 11.020,170.200 10.800 C 170.336 10.580,171.776 10.400,173.400 10.400 C 175.024 10.400,176.464 10.220,176.600 10.000 C 176.736 9.780,178.457 9.600,180.424 9.600 C 182.541 9.600,184.000 9.437,184.000 9.200 C 184.000 8.940,189.667 8.800,200.200 8.800 C 210.733 8.800,216.400 8.940,216.400 9.200 M244.600 91.600 C 244.464 91.820,243.463 92.000,242.376 92.000 C 241.289 92.000,240.400 92.180,240.400 92.400 C 240.400 92.620,239.691 92.800,238.824 92.800 C 237.957 92.800,237.136 92.980,237.000 93.200 C 236.864 93.420,236.228 93.600,235.587 93.600 C 233.609 93.600,222.400 98.429,222.400 99.281 C 222.400 99.457,222.164 99.600,221.875 99.600 C 221.587 99.600,220.964 99.960,220.492 100.400 C 220.020 100.840,219.491 101.201,219.317 101.201 C 218.282 101.206,210.387 108.886,207.600 112.599 C 206.610 113.918,205.485 115.347,205.100 115.774 C 204.715 116.201,204.400 116.787,204.400 117.075 C 204.400 117.364,204.220 117.600,204.000 117.600 C 203.780 117.600,203.600 117.836,203.600 118.125 C 203.600 118.413,203.240 119.036,202.800 119.508 C 202.360 119.980,202.000 120.644,202.000 120.983 C 202.000 121.322,201.820 121.600,201.600 121.600 C 201.380 121.600,201.200 121.960,201.200 122.400 C 201.200 122.840,201.053 123.200,200.872 123.200 C 200.692 123.200,200.300 124.100,200.000 125.200 C 199.700 126.300,199.308 127.200,199.128 127.200 C 198.947 127.200,198.800 127.639,198.800 128.176 C 198.800 128.713,198.641 129.251,198.446 129.371 C 198.251 129.492,197.990 130.087,197.864 130.695 C 197.739 131.303,197.438 132.700,197.197 133.800 C 195.652 140.838,195.425 156.150,196.853 157.033 C 197.685 157.547,197.153 158.400,196.000 158.400 C 195.340 158.400,194.800 158.220,194.800 158.000 C 194.800 157.760,193.200 157.600,190.800 157.600 C 188.400 157.600,186.800 157.440,186.800 157.200 C 186.800 156.975,185.675 156.800,184.224 156.800 C 182.807 156.800,181.536 156.620,181.400 156.400 C 181.264 156.180,180.173 156.000,178.976 156.000 C 177.779 156.000,176.800 155.820,176.800 155.600 C 176.800 155.380,175.900 155.200,174.800 155.200 C 173.700 155.200,172.800 155.020,172.800 154.800 C 172.800 154.580,172.091 154.400,171.224 154.400 C 170.357 154.400,169.536 154.220,169.400 154.000 C 169.264 153.780,168.544 153.600,167.800 153.600 C 167.056 153.600,166.348 153.440,166.227 153.244 C 166.106 153.049,165.331 152.773,164.504 152.633 C 160.851 152.011,160.400 151.893,160.400 151.556 C 160.400 151.360,159.860 151.200,159.200 151.200 C 158.540 151.200,158.000 151.020,158.000 150.800 C 158.000 150.580,157.460 150.400,156.800 150.400 C 156.140 150.400,155.600 150.220,155.600 150.000 C 155.600 149.780,155.161 149.600,154.624 149.600 C 154.087 149.600,153.536 149.420,153.400 149.200 C 153.264 148.980,152.713 148.800,152.176 148.800 C 151.639 148.800,151.200 148.653,151.200 148.472 C 151.200 148.292,150.289 147.896,149.175 147.593 C 148.061 147.290,147.060 146.897,146.951 146.721 C 146.842 146.544,146.488 146.400,146.165 146.400 C 145.842 146.400,144.250 145.770,142.627 145.000 C 141.004 144.230,139.390 143.600,139.038 143.600 C 138.687 143.600,138.400 143.420,138.400 143.200 C 138.400 142.980,138.113 142.800,137.762 142.800 C 137.411 142.800,136.646 142.477,136.062 142.082 C 135.478 141.687,134.100 140.922,133.000 140.382 C 131.900 139.842,130.940 139.265,130.867 139.100 C 130.793 138.935,130.388 138.800,129.967 138.800 C 129.545 138.800,129.200 138.620,129.200 138.400 C 129.200 138.180,128.840 138.000,128.400 138.000 C 127.960 138.000,127.600 137.850,127.600 137.668 C 127.600 137.485,127.105 137.080,126.500 136.768 C 125.895 136.456,125.310 136.111,125.200 136.001 C 124.806 135.605,122.587 134.346,121.900 134.129 C 121.515 134.007,121.200 133.748,121.200 133.553 C 121.200 133.359,120.930 133.200,120.600 133.200 C 120.270 133.200,120.000 133.050,120.000 132.868 C 120.000 132.685,119.505 132.280,118.900 131.968 C 118.295 131.655,117.620 131.260,117.400 131.088 C 115.477 129.588,112.596 127.600,112.346 127.600 C 112.176 127.600,111.586 127.150,111.036 126.600 C 110.486 126.050,109.892 125.600,109.716 125.600 C 109.540 125.600,108.631 124.880,107.697 124.000 C 106.763 123.120,105.901 122.400,105.781 122.400 C 105.661 122.400,105.149 121.995,104.642 121.500 C 104.136 121.005,102.580 119.610,101.186 118.400 C 99.791 117.190,97.810 115.390,96.782 114.400 C 95.755 113.410,94.123 111.847,93.157 110.926 C 92.191 110.005,90.770 108.492,90.000 107.562 C 84.127 100.474,83.823 100.253,82.768 102.300 C 82.456 102.905,82.090 103.490,81.953 103.600 C 81.557 103.919,80.000 107.301,80.000 107.842 C 80.000 108.112,79.865 108.393,79.699 108.467 C 79.172 108.700,77.540 114.025,77.309 116.264 C 77.186 117.452,76.931 118.519,76.743 118.635 C 76.554 118.752,76.400 120.176,76.400 121.800 C 76.400 123.424,76.220 124.864,76.000 125.000 C 75.476 125.324,75.476 133.076,76.000 133.400 C 76.220 133.536,76.400 134.886,76.400 136.400 C 76.400 137.914,76.580 139.264,76.800 139.400 C 77.020 139.536,77.200 140.336,77.200 141.178 C 77.200 142.674,78.114 146.311,78.837 147.695 C 79.037 148.077,79.200 148.589,79.200 148.834 C 79.200 149.460,82.494 156.172,82.881 156.333 C 83.056 156.407,83.200 156.772,83.200 157.145 C 83.200 157.518,83.560 158.083,84.000 158.400 C 84.440 158.717,84.800 159.257,84.800 159.600 C 84.800 159.943,85.160 160.483,85.600 160.800 C 86.040 161.117,86.400 161.578,86.400 161.825 C 86.400 162.225,87.374 163.374,90.852 167.080 C 92.392 168.721,96.024 172.091,97.354 173.113 L 98.508 174.000 97.054 174.000 C 96.254 174.000,95.600 173.820,95.600 173.600 C 95.600 173.380,94.621 173.200,93.424 173.200 C 92.227 173.200,91.136 173.020,91.000 172.800 C 90.864 172.580,90.144 172.400,89.400 172.400 C 88.656 172.400,87.936 172.220,87.800 172.000 C 87.664 171.780,87.124 171.600,86.600 171.600 C 86.076 171.600,85.536 171.420,85.400 171.200 C 85.264 170.980,84.713 170.800,84.176 170.800 C 83.639 170.800,83.200 170.620,83.200 170.400 C 83.200 170.180,82.965 170.000,82.677 170.000 C 82.389 170.000,80.904 169.371,79.377 168.601 C 75.414 166.605,75.600 166.428,75.600 172.200 C 75.600 175.267,75.755 177.200,76.000 177.200 C 76.220 177.200,76.400 178.089,76.400 179.176 C 76.400 180.263,76.580 181.264,76.800 181.400 C 77.020 181.536,77.200 182.166,77.200 182.800 C 77.200 185.301,82.372 197.343,83.700 197.933 C 83.865 198.007,84.000 198.288,84.000 198.558 C 84.000 198.828,84.320 199.398,84.711 199.825 C 85.102 200.251,85.827 201.174,86.321 201.876 C 86.816 202.578,87.801 203.768,88.510 204.519 C 89.220 205.271,90.081 206.226,90.424 206.643 C 91.055 207.409,93.324 209.442,96.402 212.000 C 97.329 212.770,98.292 213.580,98.543 213.800 C 98.795 214.020,99.495 214.455,100.100 214.768 C 100.705 215.080,101.200 215.485,101.200 215.668 C 101.200 215.850,101.560 216.000,102.000 216.000 C 102.440 216.000,102.800 216.159,102.800 216.353 C 102.800 216.548,103.115 216.807,103.500 216.929 C 103.885 217.051,104.740 217.459,105.400 217.836 C 107.314 218.929,107.949 219.200,108.595 219.200 C 108.928 219.200,109.200 219.380,109.200 219.600 C 109.200 219.820,109.524 220.000,109.920 220.000 C 110.316 220.000,110.811 220.149,111.020 220.330 C 111.229 220.512,112.210 220.893,113.200 221.178 C 116.109 222.013,116.306 222.123,115.200 222.304 C 114.650 222.394,114.029 222.632,113.820 222.834 C 113.293 223.342,98.115 223.310,97.800 222.800 C 97.664 222.580,97.027 222.400,96.384 222.400 C 95.113 222.400,94.331 223.924,95.097 224.905 C 95.310 225.177,95.729 226.255,96.029 227.300 C 96.329 228.345,96.715 229.200,96.887 229.200 C 97.059 229.200,97.200 229.434,97.200 229.720 C 97.200 230.456,98.141 232.393,98.500 232.397 C 98.665 232.399,98.800 232.760,98.800 233.200 C 98.800 233.640,98.980 234.000,99.200 234.000 C 99.420 234.000,99.600 234.193,99.600 234.428 C 99.600 234.935,102.009 238.541,102.477 238.733 C 102.655 238.807,102.800 239.023,102.800 239.214 C 102.800 239.517,105.278 242.325,108.403 245.561 C 109.307 246.497,111.879 248.784,113.866 250.418 C 115.356 251.643,118.352 253.600,118.739 253.600 C 118.956 253.600,119.193 253.749,119.267 253.931 C 119.340 254.114,121.020 255.036,123.000 255.980 C 124.980 256.925,126.907 257.852,127.283 258.041 C 127.658 258.230,128.693 258.501,129.583 258.644 C 130.472 258.786,131.200 259.059,131.200 259.251 C 131.200 259.443,131.920 259.600,132.800 259.600 C 133.680 259.600,134.400 259.780,134.400 260.000 C 134.400 260.220,135.199 260.400,136.176 260.400 C 137.153 260.400,138.064 260.580,138.200 260.800 C 138.336 261.020,139.585 261.200,140.975 261.200 C 142.733 261.200,143.654 261.383,144.000 261.800 C 144.274 262.130,144.324 262.400,144.111 262.400 C 143.898 262.400,143.201 262.850,142.562 263.400 C 141.923 263.949,141.175 264.399,140.900 264.400 C 140.625 264.400,140.400 264.580,140.400 264.800 C 140.400 265.020,140.164 265.200,139.875 265.200 C 139.587 265.200,138.993 265.515,138.555 265.900 C 138.117 266.285,137.408 266.797,136.980 267.038 C 136.551 267.278,135.750 267.728,135.200 268.038 C 134.650 268.347,134.110 268.692,134.000 268.805 C 133.890 268.918,132.900 269.458,131.800 270.005 C 130.700 270.552,129.740 271.135,129.667 271.300 C 129.593 271.465,129.188 271.600,128.767 271.600 C 128.345 271.600,128.000 271.780,128.000 272.000 C 128.000 272.220,127.640 272.400,127.200 272.400 C 126.760 272.400,126.400 272.580,126.400 272.800 C 126.400 273.020,126.040 273.200,125.600 273.200 C 125.160 273.200,124.800 273.380,124.800 273.600 C 124.800 273.820,124.440 274.000,124.000 274.000 C 123.560 274.000,123.200 274.180,123.200 274.400 C 123.200 274.620,122.851 274.800,122.424 274.800 C 121.997 274.800,121.536 274.980,121.400 275.200 C 121.264 275.420,120.713 275.600,120.176 275.600 C 119.639 275.600,119.200 275.780,119.200 276.000 C 119.200 276.220,118.840 276.400,118.400 276.400 C 117.960 276.400,117.600 276.580,117.600 276.800 C 117.600 277.020,117.225 277.200,116.767 277.200 C 116.309 277.200,114.554 277.653,112.867 278.207 C 107.609 279.935,107.370 280.000,106.295 280.000 C 105.719 280.000,105.148 280.161,105.026 280.358 C 104.816 280.698,103.760 280.917,99.900 281.423 C 98.965 281.545,97.840 281.807,97.400 282.003 C 94.880 283.131,79.858 283.891,70.055 283.386 C 63.582 283.052,62.790 283.800,67.200 286.081 C 67.750 286.366,68.290 286.712,68.400 286.850 C 68.734 287.270,77.418 291.600,77.926 291.600 C 78.187 291.600,78.401 291.735,78.403 291.900 C 78.407 292.259,80.344 293.200,81.080 293.200 C 81.366 293.200,81.600 293.380,81.600 293.600 C 81.600 293.820,81.960 294.000,82.400 294.000 C 82.840 294.000,83.200 294.180,83.200 294.400 C 83.200 294.620,83.453 294.800,83.762 294.800 C 84.247 294.800,85.520 295.352,88.495 296.850 C 88.877 297.043,89.462 297.200,89.795 297.200 C 90.128 297.200,90.400 297.380,90.400 297.600 C 90.400 297.820,90.940 298.000,91.600 298.000 C 92.260 298.000,92.800 298.180,92.800 298.400 C 92.800 298.620,93.149 298.800,93.576 298.800 C 94.003 298.800,94.464 298.980,94.600 299.200 C 94.736 299.420,95.287 299.600,95.824 299.600 C 96.361 299.600,96.800 299.780,96.800 300.000 C 96.800 300.220,97.239 300.400,97.776 300.400 C 98.313 300.400,98.864 300.580,99.000 300.800 C 99.136 301.020,99.676 301.200,100.200 301.200 C 100.724 301.200,101.264 301.380,101.400 301.600 C 101.536 301.820,102.076 302.000,102.600 302.000 C 103.124 302.000,103.652 302.160,103.773 302.356 C 103.894 302.551,104.579 302.805,105.296 302.919 C 106.013 303.032,107.320 303.334,108.200 303.589 C 110.468 304.247,112.803 304.816,114.200 305.052 C 114.860 305.163,115.760 305.409,116.200 305.598 C 116.640 305.787,117.810 306.044,118.800 306.170 C 119.790 306.296,121.590 306.579,122.800 306.801 C 132.041 308.492,139.244 308.912,154.600 308.656 C 161.860 308.535,168.340 308.340,169.000 308.221 C 169.660 308.103,171.550 307.826,173.200 307.604 C 174.850 307.383,177.190 307.022,178.400 306.803 C 179.610 306.583,181.590 306.231,182.800 306.020 C 184.010 305.810,185.810 305.459,186.800 305.241 C 188.491 304.868,189.520 304.619,193.700 303.575 C 194.635 303.342,195.897 303.051,196.505 302.929 C 197.113 302.807,197.708 302.549,197.829 302.354 C 197.949 302.159,198.476 302.000,199.000 302.000 C 199.524 302.000,200.064 301.820,200.200 301.600 C 200.336 301.380,200.977 301.200,201.624 301.200 C 202.271 301.200,202.800 301.020,202.800 300.800 C 202.800 300.580,203.329 300.400,203.976 300.400 C 204.623 300.400,205.264 300.220,205.400 300.000 C 205.536 299.780,205.997 299.600,206.424 299.600 C 206.851 299.600,207.200 299.420,207.200 299.200 C 207.200 298.980,207.639 298.800,208.176 298.800 C 208.713 298.800,209.264 298.620,209.400 298.400 C 209.536 298.180,209.997 298.000,210.424 298.000 C 210.851 298.000,211.200 297.820,211.200 297.600 C 211.200 297.380,211.639 297.200,212.176 297.200 C 212.713 297.200,213.264 297.020,213.400 296.800 C 213.536 296.580,213.997 296.400,214.424 296.400 C 214.851 296.400,215.200 296.220,215.200 296.000 C 215.200 295.780,215.560 295.600,216.000 295.600 C 216.440 295.600,216.800 295.420,216.800 295.200 C 216.800 294.980,217.250 294.800,217.800 294.800 C 218.350 294.800,218.800 294.620,218.800 294.400 C 218.800 294.180,219.053 294.000,219.362 294.000 C 220.028 294.000,223.341 292.332,223.533 291.900 C 223.607 291.735,223.940 291.600,224.274 291.600 C 224.814 291.600,228.687 289.713,229.200 289.200 C 229.310 289.090,229.805 288.775,230.300 288.500 C 230.795 288.225,231.605 287.775,232.100 287.500 C 232.595 287.225,233.090 286.910,233.200 286.800 C 233.310 286.690,233.850 286.347,234.400 286.038 C 234.950 285.728,235.751 285.278,236.180 285.038 C 236.608 284.797,237.286 284.314,237.686 283.964 C 238.086 283.614,238.902 283.074,239.500 282.764 C 240.097 282.454,241.111 281.705,241.752 281.100 C 242.394 280.495,243.122 280.000,243.371 280.000 C 243.620 280.000,244.083 279.640,244.400 279.200 C 244.717 278.760,245.185 278.400,245.440 278.400 C 245.695 278.400,246.645 277.680,247.552 276.800 C 248.459 275.920,249.336 275.200,249.500 275.200 C 249.665 275.199,250.276 274.794,250.858 274.300 C 251.440 273.805,252.871 272.590,254.038 271.600 C 258.709 267.638,269.500 256.395,272.451 252.417 C 273.029 251.638,273.884 250.603,274.351 250.117 C 274.818 249.631,275.200 249.091,275.201 248.917 C 275.201 248.743,275.741 247.970,276.400 247.200 C 277.059 246.430,277.599 245.641,277.599 245.447 C 277.600 245.253,277.916 244.803,278.303 244.447 C 278.689 244.091,279.260 243.305,279.570 242.700 C 279.881 242.095,280.285 241.600,280.468 241.600 C 280.650 241.600,280.800 241.412,280.800 241.183 C 280.800 240.954,281.160 240.380,281.600 239.908 C 282.040 239.436,282.400 238.813,282.400 238.525 C 282.400 238.236,282.568 238.000,282.773 238.000 C 282.978 238.000,283.260 237.641,283.399 237.202 C 283.538 236.764,283.866 236.173,284.126 235.890 C 284.792 235.167,286.007 233.134,286.271 232.300 C 286.393 231.915,286.652 231.600,286.847 231.600 C 287.041 231.600,287.200 231.240,287.200 230.800 C 287.200 230.360,287.342 230.000,287.516 230.000 C 287.861 230.000,288.831 228.139,291.995 221.400 C 293.131 218.980,294.227 216.687,294.431 216.305 C 294.634 215.923,294.800 215.338,294.800 215.005 C 294.800 214.672,294.980 214.400,295.200 214.400 C 295.420 214.400,295.600 214.128,295.600 213.795 C 295.600 213.462,295.780 212.832,296.000 212.395 C 296.220 211.958,296.580 211.242,296.800 210.805 C 297.020 210.368,297.200 209.738,297.200 209.405 C 297.200 209.072,297.380 208.800,297.600 208.800 C 297.820 208.800,298.000 208.260,298.000 207.600 C 298.000 206.940,298.180 206.400,298.400 206.400 C 298.620 206.400,298.800 205.950,298.800 205.400 C 298.800 204.850,298.980 204.400,299.200 204.400 C 299.420 204.400,299.600 203.961,299.600 203.424 C 299.600 202.887,299.780 202.336,300.000 202.200 C 300.220 202.064,300.400 201.434,300.400 200.800 C 300.400 200.166,300.580 199.536,300.800 199.400 C 301.020 199.264,301.200 198.713,301.200 198.176 C 301.200 197.639,301.360 197.200,301.556 197.200 C 301.752 197.200,302.022 196.570,302.156 195.800 C 302.290 195.030,302.510 193.770,302.644 193.000 C 302.778 192.230,303.048 191.600,303.244 191.600 C 303.440 191.600,303.600 190.891,303.600 190.024 C 303.600 189.157,303.780 188.336,304.000 188.200 C 304.220 188.064,304.400 187.369,304.400 186.656 C 304.400 185.943,304.562 185.189,304.759 184.980 C 304.956 184.771,305.219 183.880,305.343 183.000 C 305.467 182.120,305.753 180.320,305.979 179.000 C 306.653 175.056,307.204 171.137,307.411 168.800 C 307.519 167.590,307.721 165.790,307.860 164.800 C 307.999 163.810,308.223 159.059,308.357 154.242 C 308.583 146.084,308.654 145.455,309.388 145.042 C 309.821 144.799,310.658 144.105,311.248 143.500 C 311.838 142.895,312.519 142.400,312.760 142.400 C 313.002 142.400,313.200 142.220,313.200 142.000 C 313.200 141.780,313.393 141.600,313.629 141.600 C 313.864 141.600,314.296 141.375,314.587 141.100 C 314.878 140.825,316.339 139.520,317.833 138.200 C 321.537 134.928,323.680 132.772,325.048 130.941 C 325.682 130.094,327.055 128.557,328.100 127.526 C 329.145 126.495,330.000 125.537,330.000 125.397 C 330.000 125.257,330.225 124.914,330.500 124.635 C 330.775 124.355,331.450 123.526,332.000 122.792 C 332.550 122.058,333.405 120.969,333.900 120.371 C 334.395 119.773,334.800 119.085,334.800 118.842 C 334.800 118.599,334.980 118.400,335.200 118.400 C 335.420 118.400,335.600 118.040,335.600 117.600 C 335.600 116.978,335.333 116.800,334.400 116.800 C 333.740 116.800,333.200 116.980,333.200 117.200 C 333.200 117.420,332.750 117.600,332.200 117.600 C 331.650 117.600,331.200 117.780,331.200 118.000 C 331.200 118.220,330.761 118.400,330.224 118.400 C 329.687 118.400,329.136 118.580,329.000 118.800 C 328.864 119.020,328.403 119.200,327.976 119.200 C 327.549 119.200,327.200 119.380,327.200 119.600 C 327.200 119.820,326.660 120.000,326.000 120.000 C 325.340 120.000,324.800 120.180,324.800 120.400 C 324.800 120.620,324.271 120.800,323.624 120.800 C 322.977 120.800,322.336 120.980,322.200 121.200 C 322.064 121.420,321.434 121.600,320.800 121.600 C 320.166 121.600,319.536 121.780,319.400 122.000 C 319.264 122.220,318.544 122.400,317.800 122.400 C 317.056 122.400,316.336 122.580,316.200 122.800 C 316.064 123.020,315.344 123.200,314.600 123.200 C 313.856 123.200,313.136 123.380,313.000 123.600 C 312.864 123.820,311.874 124.000,310.800 124.000 C 309.726 124.000,308.736 124.180,308.600 124.400 C 308.464 124.620,307.963 124.800,307.487 124.800 C 306.648 124.800,306.652 124.779,307.611 124.109 C 309.380 122.873,314.353 118.468,315.775 116.878 C 316.229 116.372,317.365 115.128,318.300 114.115 C 319.235 113.102,320.000 112.115,320.000 111.922 C 320.000 111.729,320.371 111.173,320.824 110.686 C 322.034 109.385,325.186 103.913,325.193 103.100 C 325.197 102.715,325.380 102.400,325.600 102.400 C 325.820 102.400,326.000 101.950,326.000 101.400 C 326.000 100.850,326.180 100.400,326.400 100.400 C 326.620 100.400,326.800 100.051,326.800 99.624 C 326.800 99.197,326.980 98.736,327.200 98.600 C 327.420 98.464,327.600 97.949,327.600 97.456 C 327.600 96.963,327.810 96.350,328.067 96.093 C 329.585 94.575,326.742 95.263,322.255 97.501 C 319.585 98.832,316.320 100.405,315.000 100.996 C 313.680 101.586,312.287 102.234,311.905 102.435 C 311.523 102.636,310.938 102.800,310.605 102.800 C 310.272 102.800,310.000 102.980,310.000 103.200 C 310.000 103.420,309.460 103.600,308.800 103.600 C 308.140 103.600,307.600 103.780,307.600 104.000 C 307.600 104.220,307.060 104.400,306.400 104.400 C 305.740 104.400,305.200 104.580,305.200 104.800 C 305.200 105.020,304.660 105.200,304.000 105.200 C 303.340 105.200,302.800 105.380,302.800 105.600 C 302.800 105.820,302.260 106.000,301.600 106.000 C 300.940 106.000,300.400 106.180,300.400 106.400 C 300.400 106.620,299.691 106.800,298.824 106.800 C 297.957 106.800,297.136 106.980,297.000 107.200 C 296.864 107.420,296.221 107.600,295.571 107.600 C 294.921 107.600,294.056 107.808,293.648 108.063 C 293.011 108.461,292.600 108.224,290.700 106.363 C 287.832 103.552,285.092 101.200,284.687 101.200 C 284.511 101.200,283.980 100.840,283.508 100.400 C 283.036 99.960,282.413 99.600,282.125 99.600 C 281.836 99.600,281.600 99.420,281.600 99.200 C 281.600 98.980,281.428 98.800,281.218 98.800 C 281.007 98.800,279.972 98.295,278.918 97.678 C 276.275 96.132,270.789 93.976,268.826 93.713 C 267.932 93.593,267.200 93.338,267.200 93.147 C 267.200 92.956,266.480 92.800,265.600 92.800 C 264.720 92.800,264.000 92.620,264.000 92.400 C 264.000 92.178,262.941 92.000,261.624 92.000 C 260.317 92.000,259.136 91.820,259.000 91.600 C 258.851 91.358,256.004 91.200,251.800 91.200 C 247.596 91.200,244.749 91.358,244.600 91.600 " stroke="none" fill="#89cff0" fill-rule="evenodd"></path><path id="path4" d="M334.975 335.300 L 333.800 336.600 335.100 335.425 C 335.815 334.779,336.400 334.194,336.400 334.125 C 336.400 333.816,336.070 334.088,334.975 335.300 " stroke="none" fill="#00ffff" fill-rule="evenodd"></path></g></svg>